<svg width="44" height="48" viewBox="0 0 44 48" fill="none" xmlns="http://www.w3.org/2000/svg">
<path d="M32.1568 28.9576C31.246 27.9843 29.5413 26.5203 29.5413 21.725C29.5429 20.0041 28.9412 18.3365 27.8396 17.009C26.738 15.6815 25.2054 14.7772 23.5056 14.4516V13.475C23.5056 13.278 23.4666 13.0829 23.3907 12.901C23.3149 12.719 23.2038 12.5536 23.0636 12.4143C22.9235 12.275 22.7572 12.1645 22.5741 12.0892C22.391 12.0138 22.1948 11.975 21.9967 11.975C21.7985 11.975 21.6023 12.0138 21.4192 12.0892C21.2362 12.1645 21.0698 12.275 20.9297 12.4143C20.7896 12.5536 20.6784 12.719 20.6026 12.901C20.5268 13.0829 20.4878 13.278 20.4878 13.475V14.4516C18.7879 14.7772 17.2554 15.6815 16.1538 17.009C15.0522 18.3365 14.4504 20.0041 14.4521 21.725C14.4521 26.5203 12.7473 27.9843 11.8366 28.9576C11.5768 29.2331 11.4339 29.5974 11.4376 29.975C11.4377 30.1723 11.477 30.3677 11.5532 30.5499C11.6294 30.7321 11.741 30.8976 11.8816 31.0369C12.0222 31.1762 12.189 31.2866 12.3725 31.3618C12.556 31.4369 12.7527 31.4754 12.9512 31.475H31.0489C31.2474 31.4754 31.444 31.4369 31.6275 31.3618C31.8111 31.2866 31.9779 31.1762 32.1185 31.0369C32.2591 30.8976 32.3706 30.7321 32.4468 30.5499C32.523 30.3677 32.5623 30.1723 32.5625 29.975C32.5643 29.5965 32.419 29.232 32.1568 28.9576Z" stroke="#3F80FF" stroke-width="1.95"/>
<path d="M20.375 12.7875H23.625V14.4125L22.8125 15.3062H22H21.1875L20.375 14.4125V12.7875Z" fill="#3F80FF"/>
<path d="M25.25 33.75C25.25 34.612 24.9076 35.4386 24.2981 36.0481C23.6886 36.6576 22.862 37 22 37C21.138 37 20.3114 36.6576 19.7019 36.0481C19.0924 35.4386 18.75 34.612 18.75 33.75L22 33.75H25.25Z" fill="#3F80FF"/>
<circle cx="28.75" cy="17.75" r="3.75" fill="#3F80FF"/>
</svg>
