<svg width="89" height="56" viewBox="0 0 89 56" fill="none" xmlns="http://www.w3.org/2000/svg">
<path d="M50.625 25C51.1554 25 51.6641 25.2107 52.0392 25.5858C52.4143 25.9609 52.625 26.4696 52.625 27C52.625 27.5304 52.4143 28.0391 52.0392 28.4142C51.6641 28.7893 51.1554 29 50.625 29C50.0946 29 49.5859 28.7893 49.2108 28.4142C48.8357 28.0391 48.625 27.5304 48.625 27C48.625 25.89 49.515 25 50.625 25ZM34.625 9H37.895L38.835 11H53.625C53.8902 11 54.1446 11.1054 54.3321 11.2929C54.5196 11.4804 54.625 11.7348 54.625 12C54.625 12.17 54.575 12.34 54.505 12.5L50.925 18.97C50.585 19.58 49.925 20 49.175 20H41.725L40.825 21.63L40.795 21.75C40.795 21.8163 40.8213 21.8799 40.8682 21.9268C40.9151 21.9737 40.9787 22 41.045 22H52.625V24H40.625C40.0946 24 39.5859 23.7893 39.2108 23.4142C38.8357 23.0391 38.625 22.5304 38.625 22C38.625 21.65 38.715 21.32 38.865 21.04L40.225 18.59L36.625 11H34.625V9ZM40.625 25C41.1554 25 41.6641 25.2107 42.0392 25.5858C42.4143 25.9609 42.625 26.4696 42.625 27C42.625 27.5304 42.4143 28.0391 42.0392 28.4142C41.6641 28.7893 41.1554 29 40.625 29C40.0946 29 39.5859 28.7893 39.2108 28.4142C38.8357 28.0391 38.625 27.5304 38.625 27C38.625 25.89 39.515 25 40.625 25ZM49.625 18L52.405 13H39.765L42.125 18H49.625Z" fill="#67687E"/>
<path d="M31.641 38.812C31.641 37.996 31.825 37.264 32.193 36.616C32.561 35.96 33.061 35.448 33.693 35.08C34.333 34.712 35.041 34.528 35.817 34.528C36.729 34.528 37.525 34.748 38.205 35.188C38.885 35.628 39.381 36.252 39.693 37.06H38.385C38.153 36.556 37.817 36.168 37.377 35.896C36.945 35.624 36.425 35.488 35.817 35.488C35.233 35.488 34.709 35.624 34.245 35.896C33.781 36.168 33.417 36.556 33.153 37.06C32.889 37.556 32.757 38.14 32.757 38.812C32.757 39.476 32.889 40.06 33.153 40.564C33.417 41.06 33.781 41.444 34.245 41.716C34.709 41.988 35.233 42.124 35.817 42.124C36.425 42.124 36.945 41.992 37.377 41.728C37.817 41.456 38.153 41.068 38.385 40.564H39.693C39.381 41.364 38.885 41.984 38.205 42.424C37.525 42.856 36.729 43.072 35.817 43.072C35.041 43.072 34.333 42.892 33.693 42.532C33.061 42.164 32.561 41.656 32.193 41.008C31.825 40.36 31.641 39.628 31.641 38.812ZM40.9105 39.688C40.9105 39.016 41.0465 38.428 41.3185 37.924C41.5905 37.412 41.9625 37.016 42.4345 36.736C42.9145 36.456 43.4465 36.316 44.0305 36.316C44.6065 36.316 45.1065 36.44 45.5305 36.688C45.9545 36.936 46.2705 37.248 46.4785 37.624V36.424H47.5825V43H46.4785V41.776C46.2625 42.16 45.9385 42.48 45.5065 42.736C45.0825 42.984 44.5865 43.108 44.0185 43.108C43.4345 43.108 42.9065 42.964 42.4345 42.676C41.9625 42.388 41.5905 41.984 41.3185 41.464C41.0465 40.944 40.9105 40.352 40.9105 39.688ZM46.4785 39.7C46.4785 39.204 46.3785 38.772 46.1785 38.404C45.9785 38.036 45.7065 37.756 45.3625 37.564C45.0265 37.364 44.6545 37.264 44.2465 37.264C43.8385 37.264 43.4665 37.36 43.1305 37.552C42.7945 37.744 42.5265 38.024 42.3265 38.392C42.1265 38.76 42.0265 39.192 42.0265 39.688C42.0265 40.192 42.1265 40.632 42.3265 41.008C42.5265 41.376 42.7945 41.66 43.1305 41.86C43.4665 42.052 43.8385 42.148 44.2465 42.148C44.6545 42.148 45.0265 42.052 45.3625 41.86C45.7065 41.66 45.9785 41.376 46.1785 41.008C46.3785 40.632 46.4785 40.196 46.4785 39.7ZM50.5199 37.492C50.7119 37.116 50.9839 36.824 51.3359 36.616C51.6959 36.408 52.1319 36.304 52.6439 36.304V37.432H52.3559C51.1319 37.432 50.5199 38.096 50.5199 39.424V43H49.4279V36.424H50.5199V37.492ZM55.2365 37.324V41.2C55.2365 41.52 55.3045 41.748 55.4405 41.884C55.5765 42.012 55.8125 42.076 56.1485 42.076H56.9525V43H55.9685C55.3605 43 54.9045 42.86 54.6005 42.58C54.2965 42.3 54.1445 41.84 54.1445 41.2V37.324H53.2925V36.424H54.1445V34.768H55.2365V36.424H56.9525V37.324H55.2365Z" fill="#67687E"/>
</svg>
