<svg width="89" height="56" viewBox="0 0 89 56" fill="none" xmlns="http://www.w3.org/2000/svg">
<path d="M51.225 25.6C51.8085 25.6 52.3681 25.8318 52.7806 26.2444C53.1932 26.6569 53.425 27.2165 53.425 27.8C53.425 28.3835 53.1932 28.9431 52.7806 29.3556C52.3681 29.7682 51.8085 30 51.225 30C50.6415 30 50.0819 29.7682 49.6694 29.3556C49.2568 28.9431 49.025 28.3835 49.025 27.8C49.025 26.579 50.004 25.6 51.225 25.6ZM33.625 8H37.222L38.256 10.2H54.525C54.8167 10.2 55.0965 10.3159 55.3028 10.5222C55.5091 10.7285 55.625 11.0083 55.625 11.3C55.625 11.487 55.57 11.674 55.493 11.85L51.555 18.967C51.181 19.638 50.455 20.1 49.63 20.1H41.435L40.445 21.893L40.412 22.025C40.412 22.0979 40.441 22.1679 40.4925 22.2195C40.5441 22.271 40.6141 22.3 40.687 22.3H53.425V24.5H40.225C39.6415 24.5 39.0819 24.2682 38.6694 23.8556C38.2568 23.4431 38.025 22.8835 38.025 22.3C38.025 21.915 38.124 21.552 38.289 21.244L39.785 18.549L35.825 10.2H33.625V8ZM40.225 25.6C40.8085 25.6 41.3681 25.8318 41.7806 26.2444C42.1932 26.6569 42.425 27.2165 42.425 27.8C42.425 28.3835 42.1932 28.9431 41.7806 29.3556C41.3681 29.7682 40.8085 30 40.225 30C39.6415 30 39.0819 29.7682 38.6694 29.3556C38.2568 28.9431 38.025 28.3835 38.025 27.8C38.025 26.579 39.004 25.6 40.225 25.6ZM50.125 17.9L53.183 12.4H39.279L41.875 17.9H50.125Z" fill="#3F80FF"/>
<path d="M31.569 39.812C31.569 38.996 31.757 38.264 32.133 37.616C32.517 36.968 33.033 36.464 33.681 36.104C34.337 35.736 35.053 35.552 35.829 35.552C36.717 35.552 37.505 35.772 38.193 36.212C38.889 36.644 39.393 37.26 39.705 38.06H38.061C37.845 37.62 37.545 37.292 37.161 37.076C36.777 36.86 36.333 36.752 35.829 36.752C35.277 36.752 34.785 36.876 34.353 37.124C33.921 37.372 33.581 37.728 33.333 38.192C33.093 38.656 32.973 39.196 32.973 39.812C32.973 40.428 33.093 40.968 33.333 41.432C33.581 41.896 33.921 42.256 34.353 42.512C34.785 42.76 35.277 42.884 35.829 42.884C36.333 42.884 36.777 42.776 37.161 42.56C37.545 42.344 37.845 42.016 38.061 41.576H39.705C39.393 42.376 38.889 42.992 38.193 43.424C37.505 43.856 36.717 44.072 35.829 44.072C35.045 44.072 34.329 43.892 33.681 43.532C33.033 43.164 32.517 42.656 32.133 42.008C31.757 41.36 31.569 40.628 31.569 39.812ZM40.8503 40.664C40.8503 40 40.9863 39.412 41.2583 38.9C41.5383 38.388 41.9143 37.992 42.3863 37.712C42.8663 37.424 43.3943 37.28 43.9703 37.28C44.4903 37.28 44.9423 37.384 45.3263 37.592C45.7183 37.792 46.0303 38.044 46.2623 38.348V37.388H47.6423V44H46.2623V43.016C46.0303 43.328 45.7143 43.588 45.3143 43.796C44.9143 44.004 44.4583 44.108 43.9463 44.108C43.3783 44.108 42.8583 43.964 42.3863 43.676C41.9143 43.38 41.5383 42.972 41.2583 42.452C40.9863 41.924 40.8503 41.328 40.8503 40.664ZM46.2623 40.688C46.2623 40.232 46.1663 39.836 45.9743 39.5C45.7903 39.164 45.5463 38.908 45.2423 38.732C44.9383 38.556 44.6103 38.468 44.2583 38.468C43.9063 38.468 43.5783 38.556 43.2743 38.732C42.9703 38.9 42.7223 39.152 42.5303 39.488C42.3463 39.816 42.2543 40.208 42.2543 40.664C42.2543 41.12 42.3463 41.52 42.5303 41.864C42.7223 42.208 42.9703 42.472 43.2743 42.656C43.5863 42.832 43.9143 42.92 44.2583 42.92C44.6103 42.92 44.9383 42.832 45.2423 42.656C45.5463 42.48 45.7903 42.224 45.9743 41.888C46.1663 41.544 46.2623 41.144 46.2623 40.688ZM50.8071 38.348C51.0071 38.012 51.2711 37.752 51.5991 37.568C51.9351 37.376 52.3311 37.28 52.7871 37.28V38.696H52.4391C51.9031 38.696 51.4951 38.832 51.2151 39.104C50.9431 39.376 50.8071 39.848 50.8071 40.52V44H49.4391V37.388H50.8071V38.348ZM55.6405 38.504V42.164C55.6405 42.412 55.6965 42.592 55.8085 42.704C55.9285 42.808 56.1285 42.86 56.4085 42.86H57.2485V44H56.1685C55.5525 44 55.0805 43.856 54.7525 43.568C54.4245 43.28 54.2605 42.812 54.2605 42.164V38.504H53.4805V37.388H54.2605V35.744H55.6405V37.388H57.2485V38.504H55.6405Z" fill="#3F80FF"/>
</svg>
