<svg width="17" height="16" viewBox="0 0 17 16" fill="none" xmlns="http://www.w3.org/2000/svg">
<path d="M14.2266 1.6001H3.02659C2.39007 1.6001 1.77962 1.85295 1.32953 2.30304C0.879443 2.75313 0.626587 3.36358 0.626587 4.0001V12.0001C0.626587 12.6366 0.879443 13.2471 1.32953 13.6972C1.77962 14.1472 2.39007 14.4001 3.02659 14.4001H14.2266C14.8631 14.4001 15.4736 14.1472 15.9236 13.6972C16.3737 13.2471 16.6266 12.6366 16.6266 12.0001V4.0001C16.6266 3.36358 16.3737 2.75313 15.9236 2.30304C15.4736 1.85295 14.8631 1.6001 14.2266 1.6001ZM13.6906 3.2001L8.62659 7.0001L3.56259 3.2001H13.6906ZM14.2266 12.8001H3.02659C2.81441 12.8001 2.61093 12.7158 2.4609 12.5658C2.31087 12.4158 2.22659 12.2123 2.22659 12.0001V4.2001L8.14659 8.6401C8.28506 8.74396 8.45349 8.8001 8.62659 8.8001C8.79968 8.8001 8.96811 8.74396 9.10659 8.6401L15.0266 4.2001V12.0001C15.0266 12.2123 14.9423 12.4158 14.7923 12.5658C14.6422 12.7158 14.4388 12.8001 14.2266 12.8001Z" fill="#001640"/>
</svg>
