<svg width="89" height="56" viewBox="0 0 89 56" fill="none" xmlns="http://www.w3.org/2000/svg">
<g clip-path="url(#clip0_567_3178)">
<path d="M51.375 21C52.865 19.54 54.375 17.79 54.375 15.5C54.375 14.0413 53.7955 12.6424 52.7641 11.6109C51.7326 10.5795 50.3337 10 48.875 10C47.115 10 45.875 10.5 44.375 12C42.875 10.5 41.635 10 39.875 10C38.4163 10 37.0174 10.5795 35.9859 11.6109C34.9545 12.6424 34.375 14.0413 34.375 15.5C34.375 17.8 35.875 19.55 37.375 21L44.375 28L51.375 21Z" fill="#67687E"/>
</g>
<path d="M22.527 34.636V35.524H18.891V38.344H21.843V39.232H18.891V43H17.799V34.636H22.527ZM23.4379 39.688C23.4379 39.016 23.5739 38.428 23.8459 37.924C24.1179 37.412 24.4899 37.016 24.9619 36.736C25.4419 36.456 25.9739 36.316 26.5579 36.316C27.1339 36.316 27.6339 36.44 28.0579 36.688C28.4819 36.936 28.7979 37.248 29.0059 37.624V36.424H30.1099V43H29.0059V41.776C28.7899 42.16 28.4659 42.48 28.0339 42.736C27.6099 42.984 27.1139 43.108 26.5459 43.108C25.9619 43.108 25.4339 42.964 24.9619 42.676C24.4899 42.388 24.1179 41.984 23.8459 41.464C23.5739 40.944 23.4379 40.352 23.4379 39.688ZM29.0059 39.7C29.0059 39.204 28.9059 38.772 28.7059 38.404C28.5059 38.036 28.2339 37.756 27.8899 37.564C27.5539 37.364 27.1819 37.264 26.7739 37.264C26.3659 37.264 25.9939 37.36 25.6579 37.552C25.3219 37.744 25.0539 38.024 24.8539 38.392C24.6539 38.76 24.5539 39.192 24.5539 39.688C24.5539 40.192 24.6539 40.632 24.8539 41.008C25.0539 41.376 25.3219 41.66 25.6579 41.86C25.9939 42.052 26.3659 42.148 26.7739 42.148C27.1819 42.148 27.5539 42.052 27.8899 41.86C28.2339 41.66 28.5059 41.376 28.7059 41.008C28.9059 40.632 29.0059 40.196 29.0059 39.7ZM34.4033 41.992L36.4433 36.424H37.6073L35.0273 43H33.7553L31.1753 36.424H32.3513L34.4033 41.992ZM41.5498 43.108C40.9338 43.108 40.3738 42.968 39.8698 42.688C39.3738 42.408 38.9818 42.012 38.6938 41.5C38.4138 40.98 38.2738 40.38 38.2738 39.7C38.2738 39.028 38.4178 38.436 38.7058 37.924C39.0018 37.404 39.4018 37.008 39.9058 36.736C40.4098 36.456 40.9738 36.316 41.5978 36.316C42.2218 36.316 42.7858 36.456 43.2898 36.736C43.7938 37.008 44.1898 37.4 44.4778 37.912C44.7738 38.424 44.9218 39.02 44.9218 39.7C44.9218 40.38 44.7698 40.98 44.4658 41.5C44.1698 42.012 43.7658 42.408 43.2538 42.688C42.7418 42.968 42.1738 43.108 41.5498 43.108ZM41.5498 42.148C41.9418 42.148 42.3098 42.056 42.6538 41.872C42.9978 41.688 43.2738 41.412 43.4818 41.044C43.6978 40.676 43.8058 40.228 43.8058 39.7C43.8058 39.172 43.7018 38.724 43.4938 38.356C43.2858 37.988 43.0138 37.716 42.6778 37.54C42.3418 37.356 41.9778 37.264 41.5858 37.264C41.1858 37.264 40.8178 37.356 40.4818 37.54C40.1538 37.716 39.8898 37.988 39.6898 38.356C39.4898 38.724 39.3898 39.172 39.3898 39.7C39.3898 40.236 39.4858 40.688 39.6778 41.056C39.8778 41.424 40.1418 41.7 40.4698 41.884C40.7978 42.06 41.1578 42.148 41.5498 42.148ZM47.4496 37.492C47.6416 37.116 47.9136 36.824 48.2656 36.616C48.6256 36.408 49.0616 36.304 49.5736 36.304V37.432H49.2856C48.0616 37.432 47.4496 38.096 47.4496 39.424V43H46.3576V36.424H47.4496V37.492ZM51.3982 35.356C51.1902 35.356 51.0142 35.284 50.8702 35.14C50.7262 34.996 50.6542 34.82 50.6542 34.612C50.6542 34.404 50.7262 34.228 50.8702 34.084C51.0142 33.94 51.1902 33.868 51.3982 33.868C51.5982 33.868 51.7662 33.94 51.9022 34.084C52.0462 34.228 52.1182 34.404 52.1182 34.612C52.1182 34.82 52.0462 34.996 51.9022 35.14C51.7662 35.284 51.5982 35.356 51.3982 35.356ZM51.9262 36.424V43H50.8342V36.424H51.9262ZM55.1193 37.324V41.2C55.1193 41.52 55.1873 41.748 55.3233 41.884C55.4593 42.012 55.6953 42.076 56.0313 42.076H56.8353V43H55.8513C55.2433 43 54.7873 42.86 54.4833 42.58C54.1793 42.3 54.0273 41.84 54.0273 41.2V37.324H53.1753V36.424H54.0273V34.768H55.1193V36.424H56.8353V37.324H55.1193ZM64.1584 39.46C64.1584 39.668 64.1464 39.888 64.1224 40.12H58.8664C58.9064 40.768 59.1264 41.276 59.5264 41.644C59.9344 42.004 60.4264 42.184 61.0024 42.184C61.4744 42.184 61.8664 42.076 62.1784 41.86C62.4984 41.636 62.7224 41.34 62.8504 40.972H64.0264C63.8504 41.604 63.4984 42.12 62.9704 42.52C62.4424 42.912 61.7864 43.108 61.0024 43.108C60.3784 43.108 59.8184 42.968 59.3224 42.688C58.8344 42.408 58.4504 42.012 58.1704 41.5C57.8904 40.98 57.7504 40.38 57.7504 39.7C57.7504 39.02 57.8864 38.424 58.1584 37.912C58.4304 37.4 58.8104 37.008 59.2984 36.736C59.7944 36.456 60.3624 36.316 61.0024 36.316C61.6264 36.316 62.1784 36.452 62.6584 36.724C63.1384 36.996 63.5064 37.372 63.7624 37.852C64.0264 38.324 64.1584 38.86 64.1584 39.46ZM63.0304 39.232C63.0304 38.816 62.9384 38.46 62.7544 38.164C62.5704 37.86 62.3184 37.632 61.9984 37.48C61.6864 37.32 61.3384 37.24 60.9544 37.24C60.4024 37.24 59.9304 37.416 59.5384 37.768C59.1544 38.12 58.9344 38.608 58.8784 39.232H63.0304ZM67.9278 43.108C67.4238 43.108 66.9718 43.024 66.5718 42.856C66.1718 42.68 65.8558 42.44 65.6238 42.136C65.3918 41.824 65.2638 41.468 65.2398 41.068H66.3678C66.3998 41.396 66.5518 41.664 66.8238 41.872C67.1038 42.08 67.4678 42.184 67.9158 42.184C68.3318 42.184 68.6598 42.092 68.8998 41.908C69.1398 41.724 69.2598 41.492 69.2598 41.212C69.2598 40.924 69.1318 40.712 68.8758 40.576C68.6198 40.432 68.2238 40.292 67.6878 40.156C67.1998 40.028 66.7998 39.9 66.4878 39.772C66.1838 39.636 65.9198 39.44 65.6958 39.184C65.4798 38.92 65.3718 38.576 65.3718 38.152C65.3718 37.816 65.4718 37.508 65.6718 37.228C65.8718 36.948 66.1558 36.728 66.5238 36.568C66.8918 36.4 67.3118 36.316 67.7838 36.316C68.5118 36.316 69.0998 36.5 69.5478 36.868C69.9958 37.236 70.2358 37.74 70.2678 38.38H69.1758C69.1518 38.036 69.0118 37.76 68.7558 37.552C68.5078 37.344 68.1718 37.24 67.7478 37.24C67.3558 37.24 67.0438 37.324 66.8118 37.492C66.5798 37.66 66.4638 37.88 66.4638 38.152C66.4638 38.368 66.5318 38.548 66.6678 38.692C66.8118 38.828 66.9878 38.94 67.1958 39.028C67.4118 39.108 67.7078 39.2 68.0838 39.304C68.5558 39.432 68.9398 39.56 69.2358 39.688C69.5318 39.808 69.7838 39.992 69.9918 40.24C70.2078 40.488 70.3198 40.812 70.3278 41.212C70.3278 41.572 70.2278 41.896 70.0278 42.184C69.8278 42.472 69.5438 42.7 69.1758 42.868C68.8158 43.028 68.3998 43.108 67.9278 43.108Z" fill="#67687E"/>
<defs>
<clipPath id="clip0_567_3178">
<rect width="20" height="20" fill="white" transform="translate(34.375 9)"/>
</clipPath>
</defs>
</svg>
