<svg width="89" height="56" viewBox="0 0 89 56" fill="none" xmlns="http://www.w3.org/2000/svg">
<path d="M51.6375 21.075C53.1834 19.5603 54.75 17.7446 54.75 15.3688C54.75 13.8554 54.1488 12.4039 53.0787 11.3338C52.0086 10.2637 50.5572 9.66249 49.0438 9.66249C47.2178 9.66249 45.9313 10.1812 44.375 11.7375C42.8188 10.1812 41.5323 9.66249 39.7063 9.66249C38.1929 9.66249 36.7415 10.2637 35.6713 11.3338C34.6012 12.4039 34 13.8554 34 15.3688C34 17.755 35.5563 19.5706 37.1125 21.075L44.375 28.3375L51.6375 21.075Z" fill="#3F80FF"/>
<path d="M22.683 35.66V36.776H19.143V39.236H21.903V40.352H19.143V44H17.775V35.66H22.683ZM23.4948 40.664C23.4948 40 23.6308 39.412 23.9028 38.9C24.1828 38.388 24.5588 37.992 25.0308 37.712C25.5108 37.424 26.0388 37.28 26.6148 37.28C27.1348 37.28 27.5868 37.384 27.9708 37.592C28.3628 37.792 28.6748 38.044 28.9068 38.348V37.388H30.2868V44H28.9068V43.016C28.6748 43.328 28.3588 43.588 27.9588 43.796C27.5588 44.004 27.1028 44.108 26.5908 44.108C26.0228 44.108 25.5028 43.964 25.0308 43.676C24.5588 43.38 24.1828 42.972 23.9028 42.452C23.6308 41.924 23.4948 41.328 23.4948 40.664ZM28.9068 40.688C28.9068 40.232 28.8108 39.836 28.6188 39.5C28.4348 39.164 28.1908 38.908 27.8868 38.732C27.5828 38.556 27.2548 38.468 26.9028 38.468C26.5508 38.468 26.2228 38.556 25.9188 38.732C25.6148 38.9 25.3668 39.152 25.1748 39.488C24.9908 39.816 24.8988 40.208 24.8988 40.664C24.8988 41.12 24.9908 41.52 25.1748 41.864C25.3668 42.208 25.6148 42.472 25.9188 42.656C26.2308 42.832 26.5588 42.92 26.9028 42.92C27.2548 42.92 27.5828 42.832 27.8868 42.656C28.1908 42.48 28.4348 42.224 28.6188 41.888C28.8108 41.544 28.9068 41.144 28.9068 40.688ZM34.6396 42.776L36.5116 37.388H37.9636L35.4436 44H33.8116L31.3036 37.388H32.7676L34.6396 42.776ZM41.8657 44.108C41.2417 44.108 40.6777 43.968 40.1737 43.688C39.6697 43.4 39.2737 43 38.9857 42.488C38.6977 41.968 38.5537 41.368 38.5537 40.688C38.5537 40.016 38.7017 39.42 38.9977 38.9C39.2937 38.38 39.6977 37.98 40.2097 37.7C40.7217 37.42 41.2937 37.28 41.9257 37.28C42.5577 37.28 43.1297 37.42 43.6417 37.7C44.1537 37.98 44.5577 38.38 44.8537 38.9C45.1497 39.42 45.2977 40.016 45.2977 40.688C45.2977 41.36 45.1457 41.956 44.8417 42.476C44.5377 42.996 44.1217 43.4 43.5937 43.688C43.0737 43.968 42.4977 44.108 41.8657 44.108ZM41.8657 42.92C42.2177 42.92 42.5457 42.836 42.8497 42.668C43.1617 42.5 43.4137 42.248 43.6057 41.912C43.7977 41.576 43.8937 41.168 43.8937 40.688C43.8937 40.208 43.8017 39.804 43.6177 39.476C43.4337 39.14 43.1897 38.888 42.8857 38.72C42.5817 38.552 42.2537 38.468 41.9017 38.468C41.5497 38.468 41.2217 38.552 40.9177 38.72C40.6217 38.888 40.3857 39.14 40.2097 39.476C40.0337 39.804 39.9457 40.208 39.9457 40.688C39.9457 41.4 40.1257 41.952 40.4857 42.344C40.8537 42.728 41.3137 42.92 41.8657 42.92ZM48.018 38.348C48.218 38.012 48.482 37.752 48.81 37.568C49.146 37.376 49.542 37.28 49.998 37.28V38.696H49.65C49.114 38.696 48.706 38.832 48.426 39.104C48.154 39.376 48.018 39.848 48.018 40.52V44H46.65V37.388H48.018V38.348ZM51.9515 36.512C51.7035 36.512 51.4955 36.428 51.3275 36.26C51.1595 36.092 51.0755 35.884 51.0755 35.636C51.0755 35.388 51.1595 35.18 51.3275 35.012C51.4955 34.844 51.7035 34.76 51.9515 34.76C52.1915 34.76 52.3955 34.844 52.5635 35.012C52.7315 35.18 52.8155 35.388 52.8155 35.636C52.8155 35.884 52.7315 36.092 52.5635 36.26C52.3955 36.428 52.1915 36.512 51.9515 36.512ZM52.6235 37.388V44H51.2555V37.388H52.6235ZM56.0155 38.504V42.164C56.0155 42.412 56.0715 42.592 56.1835 42.704C56.3035 42.808 56.5035 42.86 56.7835 42.86H57.6235V44H56.5435C55.9275 44 55.4555 43.856 55.1275 43.568C54.7995 43.28 54.6355 42.812 54.6355 42.164V38.504H53.8555V37.388H54.6355V35.744H56.0155V37.388H57.6235V38.504H56.0155ZM64.9444 40.532C64.9444 40.78 64.9284 41.004 64.8964 41.204H59.8444C59.8844 41.732 60.0804 42.156 60.4324 42.476C60.7844 42.796 61.2164 42.956 61.7284 42.956C62.4644 42.956 62.9844 42.648 63.2884 42.032H64.7644C64.5644 42.64 64.2004 43.14 63.6724 43.532C63.1524 43.916 62.5044 44.108 61.7284 44.108C61.0964 44.108 60.5284 43.968 60.0244 43.688C59.5284 43.4 59.1364 43 58.8484 42.488C58.5684 41.968 58.4284 41.368 58.4284 40.688C58.4284 40.008 58.5644 39.412 58.8364 38.9C59.1164 38.38 59.5044 37.98 60.0004 37.7C60.5044 37.42 61.0804 37.28 61.7284 37.28C62.3524 37.28 62.9084 37.416 63.3964 37.688C63.8844 37.96 64.2644 38.344 64.5364 38.84C64.8084 39.328 64.9444 39.892 64.9444 40.532ZM63.5164 40.1C63.5084 39.596 63.3284 39.192 62.9764 38.888C62.6244 38.584 62.1884 38.432 61.6684 38.432C61.1964 38.432 60.7924 38.584 60.4564 38.888C60.1204 39.184 59.9204 39.588 59.8564 40.1H63.5164ZM68.6906 44.108C68.1706 44.108 67.7026 44.016 67.2866 43.832C66.8786 43.64 66.5546 43.384 66.3146 43.064C66.0746 42.736 65.9466 42.372 65.9306 41.972H67.3466C67.3706 42.252 67.5026 42.488 67.7426 42.68C67.9906 42.864 68.2986 42.956 68.6666 42.956C69.0506 42.956 69.3466 42.884 69.5546 42.74C69.7706 42.588 69.8786 42.396 69.8786 42.164C69.8786 41.916 69.7586 41.732 69.5186 41.612C69.2866 41.492 68.9146 41.36 68.4026 41.216C67.9066 41.08 67.5026 40.948 67.1906 40.82C66.8786 40.692 66.6066 40.496 66.3746 40.232C66.1506 39.968 66.0386 39.62 66.0386 39.188C66.0386 38.836 66.1426 38.516 66.3506 38.228C66.5586 37.932 66.8546 37.7 67.2386 37.532C67.6306 37.364 68.0786 37.28 68.5826 37.28C69.3346 37.28 69.9386 37.472 70.3946 37.856C70.8586 38.232 71.1066 38.748 71.1386 39.404H69.7706C69.7466 39.108 69.6266 38.872 69.4106 38.696C69.1946 38.52 68.9026 38.432 68.5346 38.432C68.1746 38.432 67.8986 38.5 67.7066 38.636C67.5146 38.772 67.4186 38.952 67.4186 39.176C67.4186 39.352 67.4826 39.5 67.6106 39.62C67.7386 39.74 67.8946 39.836 68.0786 39.908C68.2626 39.972 68.5346 40.056 68.8946 40.16C69.3746 40.288 69.7666 40.42 70.0706 40.556C70.3826 40.684 70.6506 40.876 70.8746 41.132C71.0986 41.388 71.2146 41.728 71.2226 42.152C71.2226 42.528 71.1186 42.864 70.9106 43.16C70.7026 43.456 70.4066 43.688 70.0226 43.856C69.6466 44.024 69.2026 44.108 68.6906 44.108Z" fill="#3F80FF"/>
</svg>
