<svg width="44" height="44" viewBox="0 0 44 44" fill="none" xmlns="http://www.w3.org/2000/svg">
<rect x="10" y="10" width="24" height="24" rx="8" fill="white"/>
<rect x="9.5" y="9.5" width="25" height="25" rx="8.5" stroke="#B2CCFF" stroke-opacity="0.7"/>
<path fill-rule="evenodd" clip-rule="evenodd" d="M20.8584 15.093H30.026C30.5639 15.093 31 15.5616 31 16.1395C31 16.7175 30.5639 17.186 30.026 17.186H20.8584C20.4563 18.4041 19.3737 19.279 18.1039 19.279C16.8341 19.279 15.7514 18.4041 15.3493 17.186H13.974C13.4361 17.186 13 16.7175 13 16.1395C13 15.5616 13.4361 15.093 13.974 15.093H15.3493C15.7515 13.875 16.8341 13 18.1039 13C19.3737 13 20.4563 13.875 20.8584 15.093ZM17.1309 16.14C17.1309 16.717 17.5678 17.1865 18.1049 17.1865C18.642 17.1865 19.0789 16.717 19.0789 16.14C19.0789 15.5629 18.642 15.0935 18.1049 15.0935C17.5678 15.0935 17.1309 15.5629 17.1309 16.14ZM20.8584 26.8139H30.026C30.5639 26.8139 31 27.2825 31 27.8605C31 28.4385 30.5639 28.907 30.026 28.907H20.8584C20.4563 30.125 19.3737 31 18.1039 31C16.8341 31 15.7514 30.125 15.3493 28.907H13.974C13.4361 28.907 13 28.4385 13 27.8605C13 27.2825 13.4361 26.8139 13.974 26.8139H15.3493C15.7515 25.596 16.8341 24.721 18.1039 24.721C19.3737 24.721 20.4564 25.596 20.8584 26.8139ZM17.1309 27.8607C17.1309 28.4377 17.5678 28.9072 18.1049 28.9072C18.642 28.9072 19.0789 28.4377 19.0789 27.8607C19.0789 27.2836 18.642 26.8142 18.1049 26.8142C17.5678 26.8142 17.1309 27.2836 17.1309 27.8607ZM30.026 20.9536H28.6507C28.2485 19.7355 27.1659 18.8606 25.8961 18.8606C24.6263 18.8606 23.5437 19.7355 23.1416 20.9536H13.974C13.4361 20.9536 13 21.4221 13 22.0001C13 22.578 13.4361 23.0466 13.974 23.0466H23.1416C23.5436 24.2646 24.6263 25.1396 25.8961 25.1396C27.1659 25.1396 28.2485 24.2646 28.6507 23.0466H30.026C30.5639 23.0466 31 22.578 31 22.0001C31 21.4221 30.5639 20.9536 30.026 20.9536ZM25.897 23.0468C25.36 23.0468 24.923 22.5773 24.923 22.0003C24.923 21.4232 25.36 20.9538 25.897 20.9538C26.4341 20.9538 26.871 21.4232 26.871 22.0003C26.871 22.5773 26.4341 23.0468 25.897 23.0468Z" fill="#3F80FF"/>
</svg>
