<svg width="88" height="56" viewBox="0 0 88 56" fill="none" xmlns="http://www.w3.org/2000/svg">
<g clip-path="url(#clip0_4658_933)">
<path d="M36.2222 19H34L44 9L54 19H51.7778M36.2222 19V26.7778C36.2222 27.3671 36.4563 27.9324 36.8731 28.3491C37.2898 28.7659 37.8551 29 38.4444 29H49.5556C50.1449 29 50.7102 28.7659 51.1269 28.3491C51.5437 27.9324 51.7778 27.3671 51.7778 26.7778V19" stroke="#3F80FF" stroke-width="2" stroke-linecap="round" stroke-linejoin="round"/>
<path d="M40.6665 29V22.3333C40.6665 21.7439 40.9006 21.1787 41.3174 20.762C41.7341 20.3452 42.2994 20.1111 42.8887 20.1111H45.1109C45.7003 20.1111 46.2655 20.3452 46.6823 20.762C47.099 21.1787 47.3332 21.7439 47.3332 22.3333V29" stroke="#3F80FF" stroke-width="2" stroke-linecap="round" stroke-linejoin="round"/>
</g>
<path d="M33.435 35.66V44H32.067V40.352H28.143V44H26.775V35.66H28.143V39.236H32.067V35.66H33.435ZM38.1039 44.108C37.4799 44.108 36.9159 43.968 36.4119 43.688C35.9079 43.4 35.5119 43 35.2239 42.488C34.9359 41.968 34.7919 41.368 34.7919 40.688C34.7919 40.016 34.9399 39.42 35.2359 38.9C35.5319 38.38 35.9359 37.98 36.4479 37.7C36.9599 37.42 37.5319 37.28 38.1639 37.28C38.7959 37.28 39.3679 37.42 39.8799 37.7C40.3919 37.98 40.7959 38.38 41.0919 38.9C41.3879 39.42 41.5359 40.016 41.5359 40.688C41.5359 41.36 41.3839 41.956 41.0799 42.476C40.7759 42.996 40.3599 43.4 39.8319 43.688C39.3119 43.968 38.7359 44.108 38.1039 44.108ZM38.1039 42.92C38.4559 42.92 38.7839 42.836 39.0879 42.668C39.3999 42.5 39.6519 42.248 39.8439 41.912C40.0359 41.576 40.1319 41.168 40.1319 40.688C40.1319 40.208 40.0399 39.804 39.8559 39.476C39.6719 39.14 39.4279 38.888 39.1239 38.72C38.8199 38.552 38.4919 38.468 38.1399 38.468C37.7879 38.468 37.4599 38.552 37.1559 38.72C36.8599 38.888 36.6239 39.14 36.4479 39.476C36.2719 39.804 36.1839 40.208 36.1839 40.688C36.1839 41.4 36.3639 41.952 36.7239 42.344C37.0919 42.728 37.5519 42.92 38.1039 42.92ZM50.8923 37.28C51.4123 37.28 51.8763 37.388 52.2843 37.604C52.7003 37.82 53.0243 38.14 53.2563 38.564C53.4963 38.988 53.6163 39.5 53.6163 40.1V44H52.2603V40.304C52.2603 39.712 52.1123 39.26 51.8163 38.948C51.5203 38.628 51.1163 38.468 50.6043 38.468C50.0923 38.468 49.6843 38.628 49.3803 38.948C49.0843 39.26 48.9363 39.712 48.9363 40.304V44H47.5803V40.304C47.5803 39.712 47.4323 39.26 47.1363 38.948C46.8403 38.628 46.4363 38.468 45.9243 38.468C45.4123 38.468 45.0043 38.628 44.7003 38.948C44.4043 39.26 44.2563 39.712 44.2563 40.304V44H42.8883V37.388H44.2563V38.144C44.4803 37.872 44.7643 37.66 45.1083 37.508C45.4523 37.356 45.8203 37.28 46.2123 37.28C46.7403 37.28 47.2123 37.392 47.6283 37.616C48.0443 37.84 48.3643 38.164 48.5883 38.588C48.7883 38.188 49.1003 37.872 49.5243 37.64C49.9483 37.4 50.4043 37.28 50.8923 37.28ZM61.417 40.532C61.417 40.78 61.401 41.004 61.369 41.204H56.317C56.357 41.732 56.553 42.156 56.905 42.476C57.257 42.796 57.689 42.956 58.201 42.956C58.937 42.956 59.457 42.648 59.761 42.032H61.237C61.037 42.64 60.673 43.14 60.145 43.532C59.625 43.916 58.977 44.108 58.201 44.108C57.569 44.108 57.001 43.968 56.497 43.688C56.001 43.4 55.609 43 55.321 42.488C55.041 41.968 54.901 41.368 54.901 40.688C54.901 40.008 55.037 39.412 55.309 38.9C55.589 38.38 55.977 37.98 56.473 37.7C56.977 37.42 57.553 37.28 58.201 37.28C58.825 37.28 59.381 37.416 59.869 37.688C60.357 37.96 60.737 38.344 61.009 38.84C61.281 39.328 61.417 39.892 61.417 40.532ZM59.989 40.1C59.981 39.596 59.801 39.192 59.449 38.888C59.097 38.584 58.661 38.432 58.141 38.432C57.669 38.432 57.265 38.584 56.929 38.888C56.593 39.184 56.393 39.588 56.329 40.1H59.989Z" fill="#3F80FF"/>
<defs>
<clipPath id="clip0_4658_933">
<rect width="22" height="22" fill="white" transform="translate(32.875 8)"/>
</clipPath>
</defs>
</svg>
