<svg width="257" height="256" viewBox="0 0 257 256" fill="none" xmlns="http://www.w3.org/2000/svg">
<g clip-path="url(#clip0_570_11064)">
<path d="M223.849 216.882C217.243 223.692 211.332 227.694 206.806 230.716C162.668 260.187 112.213 251.693 96.6138 248.79C71.4462 244.106 50.2009 240.801 31.9481 224.31C-9.52939 186.838 -7.51156 108.666 24.1822 60.2429C27.9399 54.5012 59.5852 7.59289 110.15 0.983521C111.387 0.821692 112.309 0.729349 113.118 0.644321C120.939 -0.184022 169.412 -4.55522 208.937 28.5584C214.594 33.298 223.7 41.8484 232.142 54.888C263.014 102.567 263.112 176.412 223.85 216.882H223.849Z" fill="url(#paint0_linear_570_11064)"/>
<g opacity="0.3">
<path d="M63.2507 39.3838C62.9883 39.8171 62.4242 39.9561 61.9908 39.6937C61.1479 39.1844 60.271 38.7035 59.3833 38.2656C58.9344 38.0443 58.7469 37.504 58.959 37.0523C58.9618 37.0468 58.9645 37.0414 58.9664 37.0359C59.1904 36.5815 59.7408 36.395 60.1952 36.6199C61.1296 37.0816 62.053 37.5872 62.9399 38.1239C63.3458 38.3689 63.493 38.8791 63.2955 39.2987C63.2818 39.328 63.2672 39.3563 63.2498 39.3838H63.2507ZM54.917 36.4288C53.9789 36.1161 53.018 35.84 52.0608 35.6087C51.5689 35.4898 51.2653 34.9943 51.3842 34.5015C51.5049 34.0078 51.9995 33.706 52.4914 33.8249C53.498 34.0681 54.5101 34.3579 55.4976 34.688C55.9785 34.848 56.2381 35.3682 56.0772 35.8491C56.0653 35.8839 56.0516 35.9177 56.037 35.9506C55.8423 36.3657 55.3622 36.5787 54.917 36.4297V36.4288ZM47.3019 34.805C46.32 34.709 45.3225 34.6542 44.335 34.6432C43.8285 34.6377 43.4226 34.2217 43.4281 33.7152C43.4345 33.2087 43.8496 32.8027 44.3561 32.8082C45.3956 32.8201 46.447 32.8777 47.4802 32.9783C47.9849 33.0277 48.3533 33.4766 48.304 33.9813C48.293 34.0891 48.2646 34.1897 48.2217 34.283C48.0608 34.624 47.6987 34.8443 47.3019 34.8059V34.805ZM39.5149 34.9257C38.5348 35.0519 37.5492 35.2219 36.5856 35.4313C36.09 35.5383 35.6018 35.2238 35.4939 34.7291C35.3869 34.2336 35.7014 33.7454 36.1961 33.6375C37.2118 33.4171 38.2496 33.2379 39.28 33.1054C39.7828 33.0404 40.2427 33.3961 40.3076 33.8981C40.3305 34.0782 40.3003 34.2519 40.2281 34.4055C40.0992 34.6798 39.8377 34.8846 39.5149 34.9257ZM31.9483 36.778C31.023 37.1182 30.0996 37.5022 29.2036 37.92C28.7437 38.1339 28.1979 37.9355 27.9839 37.4766C27.7691 37.0167 27.9684 36.4708 28.4283 36.2569C29.3709 35.8171 30.3428 35.413 31.3165 35.0555C31.792 34.8809 32.3195 35.125 32.4941 35.6004C32.5819 35.84 32.5636 36.0932 32.463 36.3072C32.3643 36.5184 32.1851 36.6912 31.9492 36.778H31.9483ZM24.9805 40.2578C24.1522 40.7945 23.3366 41.3732 22.5567 41.9785C22.1563 42.2894 21.5794 42.2162 21.2694 41.8158C20.9586 41.4153 21.0317 40.8393 21.4322 40.5284C22.2532 39.8912 23.1117 39.2823 23.983 38.7172C24.4082 38.442 24.9769 38.5636 25.2521 38.9888C25.4313 39.2649 25.4422 39.6014 25.3115 39.8793C25.2411 40.0292 25.1295 40.1618 24.9805 40.2578ZM8.18051 69.9035C7.67399 69.8971 7.26805 69.4811 7.27537 68.9737C7.28908 67.936 7.34851 66.8836 7.45182 65.8487C7.50211 65.344 7.95194 64.9764 8.45571 65.0267C8.95948 65.077 9.32794 65.5268 9.27765 66.0306C9.17982 67.0144 9.12314 68.0128 9.11034 68.9984C9.10851 69.1337 9.07742 69.2617 9.02348 69.3769C8.87537 69.6923 8.55171 69.909 8.18051 69.9044V69.9035ZM18.9609 45.1931C18.2733 45.8999 17.6077 46.645 16.9833 47.4094C16.6623 47.8016 16.0836 47.8592 15.6914 47.5383C15.2991 47.2174 15.2434 46.6404 15.5625 46.2473C16.2198 45.4436 16.9211 44.6583 17.6452 43.914C17.999 43.5511 18.5796 43.5428 18.9426 43.8967C19.2306 44.1774 19.2955 44.6007 19.1337 44.9454C19.0916 45.035 19.034 45.1191 18.9609 45.195V45.1931ZM8.98142 61.9465C8.48954 61.8267 8.18691 61.3303 8.30668 60.8375C8.55262 59.829 8.8452 58.8178 9.17617 57.8313C9.33525 57.3495 9.85731 57.0926 10.3382 57.2535C10.8182 57.4144 11.077 57.9346 10.9161 58.4155C10.6015 59.3527 10.3236 60.3136 10.0905 61.2717C10.0758 61.333 10.0548 61.3906 10.0292 61.4455C9.84725 61.8322 9.41297 62.0507 8.98234 61.9456L8.98142 61.9465ZM14.1956 51.349C13.6836 52.192 13.2009 53.0669 12.762 53.952C12.5371 54.4064 11.9867 54.5911 11.5323 54.3661C11.0843 54.144 10.8978 53.6045 11.1099 53.1538C11.1126 53.1483 11.1154 53.1419 11.1181 53.1364C11.5798 52.2048 12.0882 51.2823 12.6267 50.3954C12.89 49.962 13.4541 49.8249 13.8875 50.0882C14.2916 50.3342 14.4388 50.8425 14.2413 51.2621C14.2276 51.2914 14.2121 51.3207 14.1947 51.349H14.1956Z" fill="#8CB3FF"/>
<path d="M9.52171 75.8007C9.59851 75.6371 9.62868 75.4496 9.59577 75.2576C9.51623 74.7914 9.44583 74.315 9.38548 73.8432C9.32148 73.3404 8.8616 72.9847 8.35874 73.0496C7.85588 73.1136 7.50023 73.5735 7.56514 74.0764C7.62823 74.5728 7.7032 75.0739 7.7864 75.5639C7.87143 76.0631 8.34503 76.3996 8.84423 76.3155C9.15234 76.2634 9.39828 76.0631 9.52171 75.8007Z" fill="#8CB3FF"/>
</g>
<g opacity="0.3">
<path d="M24.5992 99.3655C24.7876 98.965 24.6632 98.475 24.2856 98.218C23.8952 97.952 23.503 97.6722 23.1208 97.3879C22.714 97.0853 22.1389 97.1694 21.8372 97.5762C21.5336 97.9849 21.6187 98.5582 22.0255 98.8599C22.4278 99.1588 22.8402 99.4532 23.2516 99.7339C23.6703 100.019 24.2408 99.9113 24.527 99.4926C24.5554 99.4514 24.5791 99.4085 24.5992 99.3655Z" fill="#8CB3FF"/>
<path d="M76.2729 86.7145C76.0352 87.1616 75.4793 87.3316 75.0313 87.0939C74.5842 86.8562 74.4151 86.3012 74.6519 85.8532C75.1044 85.0011 75.5287 84.117 75.9163 83.2146C76.1138 82.7501 76.656 82.5344 77.1223 82.7337C77.5886 82.933 77.8034 83.4733 77.6032 83.9396C77.435 84.3309 77.2612 84.7168 77.0811 85.0989C76.8251 85.6438 76.5527 86.1878 76.2729 86.7145ZM78.1325 79.861C77.6443 79.7257 77.3582 79.2201 77.4935 78.7318C77.7531 77.7938 77.9762 76.8356 78.1563 75.882C78.2487 75.3846 78.7296 75.0564 79.2279 75.1506C79.7252 75.2448 80.0535 75.7248 79.9593 76.2221C79.77 77.226 79.5351 78.2354 79.2617 79.2219C79.2471 79.2731 79.2288 79.3225 79.2078 79.3682C79.0212 79.765 78.5696 79.9817 78.1325 79.861ZM73.6288 90.9586C73.0308 91.786 72.389 92.5997 71.7216 93.376C71.3915 93.76 70.8119 93.8038 70.4269 93.4729C70.0429 93.1428 70 92.5632 70.33 92.1792C70.9645 91.4422 71.5735 90.6697 72.1412 89.8843C72.4384 89.4738 73.0116 89.3814 73.4231 89.6777C73.786 89.9401 73.9003 90.4192 73.7165 90.8114C73.6928 90.8626 73.6635 90.912 73.6297 90.9595L73.6288 90.9586ZM79.5863 72.1261C79.0798 72.1014 78.6894 71.6708 78.715 71.1652C78.7625 70.1952 78.7689 69.2114 78.7341 68.2413C78.7159 67.7348 79.1117 67.3097 79.6183 67.2914C80.1248 67.2731 80.5499 67.669 80.5682 68.1755C80.6048 69.1968 80.5975 70.2336 80.5481 71.2548C80.5417 71.3782 80.5124 71.4953 80.4621 71.6004C80.3085 71.9268 79.9694 72.1453 79.5863 72.1261ZM68.2107 96.9307C67.4455 97.6064 66.6418 98.2582 65.8189 98.8681C65.4121 99.1707 64.8379 99.0857 64.5353 98.6788C64.2327 98.272 64.3177 97.6969 64.7245 97.3952C65.5053 96.8146 66.2697 96.1956 66.9956 95.5547C67.376 95.2192 67.9556 95.2557 68.2912 95.6352C68.5408 95.9186 68.5847 96.3127 68.4338 96.6336C68.3817 96.7433 68.3076 96.8448 68.2107 96.9307ZM61.6141 101.57C60.7181 102.063 59.791 102.523 58.8576 102.939C58.3949 103.146 57.8518 102.938 57.6452 102.475C57.4386 102.011 57.6461 101.469 58.1097 101.264C58.9956 100.869 59.877 100.431 60.7291 99.9616C61.1735 99.7174 61.7312 99.8793 61.9753 100.324C62.1225 100.592 62.1216 100.901 62.0009 101.157C61.9213 101.326 61.7897 101.472 61.6132 101.569L61.6141 101.57ZM54.1627 104.661C53.1798 104.947 52.1741 105.195 51.1739 105.398C50.6774 105.498 50.1929 105.178 50.0923 104.681C49.9917 104.184 50.3126 103.7 50.8091 103.6C51.76 103.407 52.7154 103.172 53.6498 102.899C54.1362 102.757 54.6454 103.037 54.7872 103.524C54.8521 103.748 54.8283 103.975 54.7369 104.171C54.629 104.401 54.426 104.585 54.1627 104.662V104.661ZM46.2148 106.053C45.1936 106.117 44.1577 106.139 43.1355 106.117C42.629 106.106 42.2267 105.687 42.2377 105.18C42.2486 104.675 42.6683 104.272 43.1748 104.283C44.1449 104.304 45.1286 104.283 46.0987 104.223C46.6043 104.191 47.0404 104.575 47.0724 105.081C47.0825 105.241 47.0514 105.393 46.9874 105.529C46.8493 105.822 46.5604 106.032 46.2139 106.054L46.2148 106.053ZM38.1508 105.665C37.1424 105.503 36.1284 105.296 35.1355 105.049C34.6436 104.926 34.3437 104.429 34.4662 103.937C34.5878 103.447 35.0861 103.145 35.578 103.268C36.5216 103.503 37.4852 103.699 38.4425 103.853C38.9426 103.933 39.2836 104.404 39.2032 104.904C39.1894 104.991 39.1638 105.073 39.1273 105.15C38.9572 105.51 38.5641 105.732 38.1508 105.665ZM30.3766 103.517C29.6772 103.239 28.9787 102.936 28.2985 102.617C28.0525 102.501 27.8084 102.383 27.5661 102.262C27.1126 102.036 26.9161 101.487 27.1529 101.032C27.3778 100.579 27.9291 100.393 28.3835 100.619C28.6139 100.733 28.8461 100.846 29.0802 100.956C29.7266 101.26 30.3903 101.548 31.055 101.813C31.5259 102 31.7554 102.534 31.5679 103.004C31.5606 103.022 31.5533 103.039 31.5451 103.056C31.3403 103.492 30.8292 103.698 30.3757 103.517H30.3766Z" fill="#8CB3FF"/>
<path d="M79.9702 63.7248C80.0479 63.5593 80.0771 63.37 80.0433 63.1771C79.9574 62.688 79.8605 62.1906 79.7535 61.7005C79.6456 61.205 79.1574 60.8914 78.6618 60.9993C78.1663 61.1072 77.8527 61.5954 77.9606 62.0909C78.0621 62.5572 78.1544 63.029 78.2358 63.4934C78.3226 63.9926 78.7981 64.3264 79.2973 64.2395C79.6035 64.1856 79.8467 63.9862 79.9702 63.7257V63.7248Z" fill="#8CB3FF"/>
</g>
<path d="M67.1071 54.6688C67.0276 54.5033 66.8529 54.4073 66.671 54.4283L61.4852 55.0253C59.9583 53.1245 58.1179 51.4541 56.004 50.1028L56.0388 44.8868C56.0397 44.704 55.9245 44.5403 55.7526 44.4791L49.8472 42.3991C49.6744 42.3378 49.4824 42.3936 49.3691 42.5371L46.127 46.6231C43.6328 46.3515 41.1515 46.4996 38.7707 47.0235L35.1044 43.3079C34.9755 43.178 34.7789 43.1433 34.6134 43.2219L28.9668 45.9264C28.8022 46.005 28.7053 46.1805 28.7263 46.3625L29.3233 51.5483C27.4225 53.0752 25.7521 54.9156 24.4008 57.0295L19.1848 56.9947C19.002 56.9938 18.8383 57.1081 18.7771 57.2809L16.6971 63.1863C16.6367 63.3591 16.6916 63.5511 16.8351 63.6644L20.922 66.9065C20.6504 69.4007 20.7985 71.882 21.3224 74.2628L17.6068 77.9291C17.4769 78.058 17.4422 78.2546 17.5208 78.4201L20.2253 84.0667C20.3039 84.2313 20.4795 84.3282 20.6614 84.3072L25.8472 83.7102C27.3741 85.611 29.2145 87.2813 31.3284 88.6327L31.2936 93.8487C31.2927 94.0315 31.407 94.1952 31.5798 94.2564L37.4852 96.3364C37.658 96.3968 37.85 96.3419 37.9633 96.1984L41.2054 92.1124C43.6996 92.384 46.1809 92.2359 48.5617 91.712L52.228 95.4276C52.356 95.5575 52.5535 95.5922 52.719 95.5136L58.3656 92.8091C58.5302 92.7305 58.6271 92.555 58.6061 92.373L58.0091 87.1872C59.9099 85.6603 61.5803 83.8199 62.9316 81.706L68.1476 81.7408C68.3304 81.7417 68.4941 81.6274 68.5553 81.4546L70.6353 75.5492C70.6957 75.3764 70.6408 75.1844 70.4973 75.0711L66.4113 71.829C66.6829 69.3348 66.5348 66.8535 66.0109 64.4727L69.7265 60.8064C69.8564 60.6775 69.8911 60.4809 69.8125 60.3163L67.108 54.6697L67.1071 54.6688Z" fill="#8CB3FF"/>
<path d="M48.9092 72.8484C46.9901 75.7394 43.077 76.5312 40.1851 74.6112C38.7844 73.6813 37.8299 72.2624 37.4971 70.6139C37.1643 68.9664 37.4925 67.2877 38.4224 65.8871C40.3415 62.9961 44.2546 62.2043 47.1465 64.1243C49.7769 65.8706 50.6692 69.2672 49.3636 72.0429C49.2338 72.3181 49.0829 72.5879 48.9101 72.8484H48.9092ZM38.9362 70.3241C39.1913 71.5876 39.9236 72.6756 40.9979 73.3888C43.2141 74.8599 46.2157 74.2537 47.6868 72.0365C49.1597 69.8194 48.5517 66.8187 46.3346 65.3476C44.1184 63.8765 41.1168 64.4827 39.6457 66.6999C39.5122 66.901 39.3952 67.1095 39.2946 67.3234C38.8567 68.2541 38.7287 69.2973 38.9362 70.3241Z" fill="#B2CCFF"/>
<path d="M57.5337 76.0283C57.7577 75.552 57.9598 75.061 58.1371 74.5572C58.1929 74.3991 58.2459 74.2391 58.2971 74.0791C58.5476 73.2882 58.7342 72.48 58.8548 71.6644C58.8567 71.6535 58.8585 71.6425 58.8594 71.6315C58.864 71.6004 58.8686 71.5684 58.8731 71.5364C58.8823 71.4752 58.8896 71.413 58.8978 71.3518C58.9188 71.1899 58.8302 71.0391 58.6903 70.9732C58.6564 70.9568 58.619 70.9458 58.5796 70.9412C58.3785 70.9156 58.1956 71.0583 58.1691 71.2594C58.0375 72.2944 57.7934 73.322 57.4441 74.3131C55.7097 79.2402 51.6064 82.6688 46.8603 83.7732C44.2208 84.3886 41.3828 84.2843 38.6427 83.3188C38.1618 83.1497 37.6937 82.9577 37.2393 82.7438C34.1792 81.3038 31.727 78.8754 30.2468 75.7842C28.5453 72.2331 28.3296 68.2322 29.6379 64.5184C32.3405 56.8493 40.773 52.8119 48.4393 55.5127C48.912 55.6791 49.3746 55.8692 49.8253 56.0813C51.7774 57.0002 53.5072 58.3351 54.885 59.9981C54.9207 60.0411 54.9636 60.074 55.0112 60.096C55.1355 60.1545 55.2882 60.1399 55.4016 60.0466C55.557 59.9168 55.5799 59.6864 55.45 59.53C54.0036 57.7847 52.1879 56.3821 50.138 55.4176C49.6653 55.1954 49.1799 54.9961 48.6834 54.8205C40.6349 51.9853 31.7801 56.2285 28.9458 64.2743C27.5725 68.1728 27.7993 72.373 29.5858 76.1015C31.1401 79.3472 33.7138 81.8962 36.9266 83.4084C37.4039 83.6334 37.8957 83.8345 38.4004 84.0128C42.2999 85.386 46.4992 85.1593 50.2276 83.3737C53.4743 81.8185 56.0233 79.2439 57.5346 76.0302L57.5337 76.0283Z" fill="#B2CCFF"/>
<g opacity="0.3">
<path d="M98.5064 21.2553C98.6106 21.0331 98.5621 20.7607 98.3692 20.5897C98.009 20.2706 97.6341 19.9579 97.2556 19.6608C97.0097 19.4679 96.6531 19.5108 96.4602 19.7568C96.2655 20.0027 96.3103 20.3593 96.5562 20.5522C96.9173 20.8356 97.2739 21.1337 97.6177 21.4382C97.8517 21.6457 98.2101 21.6238 98.4177 21.3897C98.4543 21.3476 98.4835 21.3028 98.5064 21.2544V21.2553Z" fill="#8CB3FF"/>
<path d="M94.9654 18.7264C94.8035 18.9943 94.4561 19.0811 94.1873 18.9202C93.5098 18.5134 92.804 18.1367 92.0899 17.8002C91.9391 17.7289 91.7873 17.6603 91.6337 17.5918C91.3485 17.4647 91.2195 17.1291 91.3466 16.8439C91.4774 16.5778 91.8093 16.4297 92.0954 16.5568C92.2554 16.6281 92.4145 16.7012 92.5727 16.7753C93.3215 17.1273 94.062 17.5232 94.7724 17.9502C95.0239 18.101 95.1162 18.4164 94.9937 18.6761C94.9855 18.6935 94.9763 18.7108 94.9663 18.7273L94.9654 18.7264ZM88.9375 16.5833C88.0214 16.3035 87.0797 16.0777 86.1389 15.9122C85.8307 15.8583 85.625 15.5648 85.679 15.2558C85.7329 14.9495 86.0264 14.741 86.3354 14.7959C87.321 14.9687 88.3085 15.2055 89.2685 15.4999C89.5674 15.5913 89.7366 15.9086 89.6451 16.2075C89.6369 16.234 89.6269 16.2596 89.6159 16.2834C89.4979 16.5339 89.2109 16.6665 88.9375 16.5833ZM83.279 15.5922C82.3235 15.5447 81.3553 15.5575 80.4008 15.6297C80.089 15.6535 79.8166 15.4185 79.7937 15.1067C79.77 14.794 80.004 14.5225 80.3167 14.4987C81.3178 14.4238 82.3336 14.411 83.3348 14.4594C83.6474 14.475 83.8888 14.741 83.8733 15.0537C83.8696 15.1296 83.8504 15.2018 83.8202 15.2667C83.7252 15.4688 83.5158 15.6032 83.2799 15.5922H83.279ZM77.5492 16.0219C76.6102 16.2112 75.674 16.4599 74.7688 16.7625C74.4717 16.8612 74.1508 16.7012 74.052 16.4041C73.9533 16.1079 74.1133 15.786 74.4104 15.6873C75.3604 15.37 76.3414 15.1095 77.327 14.9111C77.6342 14.8489 77.9332 15.0482 77.9944 15.3554C78.0191 15.4788 78.0017 15.6014 77.9514 15.7074C77.8774 15.8647 77.7329 15.9854 77.5501 16.0219H77.5492ZM72.0982 17.8377C71.2333 18.2491 70.3866 18.7182 69.5802 19.2311C69.3169 19.3993 68.9658 19.3207 68.7976 19.0574C68.6294 18.7931 68.7071 18.443 68.9713 18.2747C69.8161 17.7371 70.7039 17.2462 71.61 16.8146C71.8925 16.6802 72.2308 16.8 72.3652 17.0825C72.441 17.2425 72.4356 17.4199 72.3661 17.568C72.3121 17.6823 72.2198 17.7801 72.0973 17.8386L72.0982 17.8377ZM67.2534 20.9216C66.5156 21.5305 65.8097 22.1906 65.1533 22.8855C64.9384 23.1131 64.58 23.1232 64.3524 22.9083C64.1247 22.6935 64.1146 22.336 64.3295 22.1065C65.017 21.3787 65.7585 20.6857 66.532 20.0466C66.7734 19.8473 67.1309 19.882 67.3293 20.1234C67.4737 20.298 67.4957 20.5339 67.4052 20.7259C67.3704 20.7991 67.3201 20.8667 67.2534 20.9216ZM63.311 25.0944C62.7469 25.8633 62.2239 26.6779 61.7567 27.5154C61.604 27.7888 61.2584 27.8866 60.9851 27.7339C60.7117 27.5813 60.6175 27.2393 60.7665 26.9623C61.2575 26.0846 61.8061 25.2306 62.3976 24.4242C62.5832 24.1719 62.938 24.117 63.1903 24.3026C63.4125 24.4654 63.4811 24.7598 63.3677 25.0002C63.3521 25.0331 63.3339 25.0642 63.3119 25.0944H63.311ZM58.8959 33.237C58.5933 33.1557 58.415 32.8448 58.4964 32.5422C58.7222 31.7056 58.9983 30.8672 59.3147 30.0517C59.3622 29.9273 59.4116 29.8048 59.4609 29.6823C59.5697 29.3906 59.9099 29.2535 60.1997 29.3723C60.4895 29.4903 60.6285 29.8213 60.5105 30.1111C60.463 30.2263 60.4173 30.3415 60.3725 30.4603C60.0689 31.2402 59.8065 32.0402 59.5908 32.8375C59.5816 32.8704 59.5707 32.9015 59.556 32.9317C59.4408 33.1758 59.1647 33.3102 58.8959 33.237Z" fill="#8CB3FF"/>
</g>
<g opacity="0.3">
<path d="M104.136 49.6411C103.704 50.5298 103.213 51.3993 102.679 52.2258C102.509 52.4882 102.159 52.5641 101.896 52.394C101.632 52.2239 101.561 51.8729 101.727 51.6105C102.237 50.8223 102.704 49.9922 103.116 49.1446C103.253 48.863 103.593 48.746 103.873 48.8831C104.152 49.0194 104.27 49.354 104.138 49.6338C104.137 49.6356 104.137 49.6384 104.135 49.6411H104.136ZM104.55 47.2484C104.255 47.146 104.097 46.8233 104.2 46.528C104.507 45.6384 104.764 44.7204 104.962 43.8006C105.029 43.4971 105.33 43.3005 105.636 43.3664C105.942 43.4322 106.136 43.7339 106.07 44.0402C105.862 45.0038 105.593 45.9657 105.271 46.8982C105.265 46.9184 105.257 46.9366 105.248 46.9549C105.127 47.2137 104.828 47.3444 104.551 47.2484H104.55ZM100.918 54.6166C100.284 55.3746 99.5981 56.1005 98.8803 56.7734C98.6518 56.9874 98.2924 56.9755 98.0794 56.7469C97.8655 56.5183 97.8774 56.1609 98.105 55.946C98.7907 55.3042 99.4445 54.6121 100.05 53.8889C100.251 53.6484 100.608 53.6173 100.848 53.8175C101.05 53.9867 101.104 54.2656 100.997 54.4932C100.977 54.5362 100.95 54.5773 100.918 54.6157V54.6166ZM105.902 41.6182C105.59 41.5899 105.361 41.3147 105.388 41.0029C105.472 40.0649 105.5 39.1131 105.47 38.1732C105.46 37.8605 105.705 37.599 106.017 37.5881C106.33 37.578 106.592 37.823 106.602 38.1366C106.634 39.1232 106.606 40.1216 106.517 41.1044C106.511 41.1721 106.494 41.2361 106.466 41.2946C106.367 41.504 106.146 41.6402 105.902 41.6182ZM96.5955 58.666C95.7992 59.2475 94.959 59.7869 94.0986 60.2687C93.8253 60.4214 93.4797 60.3236 93.327 60.0511C93.1743 59.7778 93.2712 59.4322 93.5446 59.2795C94.3665 58.8205 95.1674 58.3058 95.9263 57.7508C96.1786 57.5661 96.5334 57.621 96.718 57.8742C96.8451 58.047 96.8588 58.2683 96.7729 58.4502C96.7336 58.5334 96.6742 58.6084 96.5946 58.666H96.5955ZM91.4271 61.5597C90.5128 61.9346 89.5683 62.2573 88.6184 62.5188C88.3167 62.602 88.0049 62.4246 87.9217 62.1229C87.8385 61.8212 88.015 61.5094 88.3176 61.4262C89.2227 61.1766 90.1242 60.8685 90.9965 60.5101C91.2863 60.3913 91.6173 60.5302 91.7361 60.8191C91.7992 60.9718 91.7901 61.1364 91.7242 61.2754C91.6657 61.3988 91.5633 61.5021 91.4271 61.5579V61.5597ZM85.7137 63.1332C84.7354 63.2786 83.7407 63.3654 82.756 63.391C82.4424 63.3993 82.1827 63.1524 82.1745 62.8388C82.1663 62.5261 82.4141 62.2665 82.7258 62.2573C83.6648 62.2335 84.6138 62.1503 85.5464 62.0114C85.8563 61.9657 86.1443 62.1787 86.1901 62.4886C86.2074 62.6038 86.1882 62.7154 86.1425 62.8132C86.0648 62.9787 85.9075 63.1039 85.7128 63.1332H85.7137Z" fill="#8CB3FF"/>
<path d="M106.276 35.4816C106.323 35.3828 106.341 35.2695 106.323 35.1533C106.248 34.6743 106.158 34.1952 106.056 33.7289C105.99 33.4235 105.688 33.2288 105.382 33.2955C105.076 33.3632 104.883 33.664 104.948 33.9703C105.045 34.4146 105.13 34.8717 105.203 35.3289C105.251 35.6379 105.541 35.85 105.85 35.8007C106.043 35.7705 106.198 35.6461 106.275 35.4816H106.276Z" fill="#8CB3FF"/>
</g>
<path d="M97.6405 29.013C97.5875 28.9024 97.4705 28.8375 97.3489 28.8521L93.8792 29.2516C92.8579 27.9799 91.6254 26.8626 90.212 25.9584L90.2348 22.4676C90.2348 22.3451 90.1589 22.2354 90.0428 22.1952L86.0913 20.8036C85.9761 20.7625 85.8472 20.8 85.7713 20.896L83.6017 23.6306C81.9331 23.4487 80.2728 23.5474 78.6792 23.8985L76.2261 21.4125C76.1402 21.3257 76.0085 21.3028 75.8979 21.355L72.1192 23.1652C72.0085 23.2183 71.9436 23.3353 71.9583 23.4569L72.3578 26.9266C71.086 27.9479 69.9679 29.1803 69.0636 30.5947L65.5729 30.5719C65.4504 30.5719 65.3407 30.6477 65.3004 30.7639L63.908 34.7154C63.8677 34.8306 63.9043 34.9595 64.0003 35.0354L66.7349 37.205C66.553 38.8736 66.6517 40.5339 67.0028 42.1275L64.5169 44.5805C64.43 44.6665 64.4072 44.7981 64.4593 44.9088L66.2696 48.6875C66.3226 48.7981 66.4396 48.8621 66.5612 48.8484L70.0309 48.4489C71.0522 49.7206 72.2837 50.8388 73.6981 51.7421L73.6753 55.2329C73.6753 55.3554 73.7512 55.4651 73.8673 55.5053L77.8188 56.8978C77.934 56.938 78.0629 56.9014 78.1388 56.8054L80.3084 54.0708C81.977 54.2528 83.6373 54.154 85.2309 53.8029L87.684 56.2889C87.7699 56.3757 87.9016 56.3986 88.0122 56.3465L91.7909 54.5362C91.9016 54.4832 91.9665 54.3661 91.9518 54.2445L91.5523 50.7748C92.8241 49.7536 93.9422 48.5211 94.8465 47.1076L98.3372 47.1305C98.4597 47.1305 98.5694 47.0546 98.6097 46.9385L100.001 42.9869C100.041 42.8717 100.005 42.7428 99.9089 42.6669L97.1742 40.4973C97.3562 38.8288 97.2574 37.1684 96.9064 35.5748L99.3923 33.1218C99.4791 33.0359 99.502 32.9042 99.4499 32.7936L97.6396 29.0148L97.6405 29.013Z" fill="#8CB3FF"/>
<path d="M85.5262 41.2196C84.8935 42.1741 83.9262 42.8242 82.8035 43.0509C81.6817 43.2777 80.5379 43.0537 79.5834 42.421C77.614 41.1136 77.0764 38.453 78.382 36.4781C79.6894 34.5088 82.3555 33.9703 84.3239 35.2777C85.2785 35.9113 85.9285 36.8777 86.1553 38.0004C86.3399 38.9129 86.2266 39.839 85.8371 40.6665C85.7475 40.8566 85.6433 41.0422 85.5253 41.2205L85.5262 41.2196ZM80.2106 41.4765C80.9127 41.9428 81.7539 42.1074 82.5795 41.9401C83.4051 41.7728 84.1164 41.2946 84.5818 40.5933C85.0471 39.8912 85.2117 39.05 85.0453 38.2244C84.8789 37.3988 84.3998 36.6875 83.6986 36.2221C82.2494 35.2603 80.2892 35.6571 79.3274 37.1053C79.2405 37.2361 79.1655 37.3705 79.1006 37.5085C78.446 38.8992 78.8931 40.6016 80.2115 41.4765H80.2106Z" fill="#B2CCFF"/>
<path d="M91.5294 43.4322C91.6821 43.1077 91.8193 42.773 91.9418 42.4274C92.1832 41.7417 92.356 41.0313 92.4538 40.3127C92.4584 40.2807 92.462 40.2478 92.4666 40.2158C92.4986 39.9662 92.3624 39.7339 92.1466 39.6315C92.0936 39.6069 92.0369 39.5895 91.9756 39.5822C91.6648 39.5429 91.3832 39.7632 91.342 40.0731C91.257 40.7442 91.0988 41.4098 90.873 42.0498C90.8611 42.0855 90.8474 42.1202 90.8355 42.155C90.2869 43.6663 89.3827 44.9829 88.2097 46.0206C87.5733 46.5838 86.8565 47.0647 86.073 47.4478C86.0666 47.4505 86.0602 47.4542 86.0538 47.4569C86.0337 47.4661 86.0145 47.4761 85.9953 47.4853C83.6968 48.5861 81.1066 48.7269 78.702 47.8793C78.3912 47.7696 78.0876 47.6453 77.7932 47.5072C75.812 46.5746 74.2248 45.003 73.2657 43.0016C72.1649 40.7031 72.025 38.1129 72.8716 35.7093C73.7192 33.3074 75.4508 31.3746 77.7493 30.2729C80.0478 29.1721 82.638 29.0313 85.0426 29.8789C85.3489 29.9867 85.6478 30.1093 85.9395 30.2464C87.204 30.8416 88.323 31.7056 89.2145 32.7817C89.2693 32.8485 89.3361 32.8987 89.4092 32.9326C89.6012 33.0231 89.838 33.0011 90.0117 32.8558C90.2522 32.6555 90.286 32.299 90.0867 32.0576C89.0883 30.8535 87.8357 29.8862 86.4222 29.2206C86.0958 29.067 85.7612 28.9298 85.4193 28.8091C82.7294 27.8619 79.8312 28.0183 77.2593 29.2507C74.6874 30.4832 72.7482 32.64 71.8019 35.3317C70.8538 38.0215 71.011 40.9189 72.2435 43.4907C73.316 45.7298 75.0915 47.4889 77.3077 48.5312C77.6369 48.6857 77.9761 48.8256 78.3235 48.9481C83.5313 50.7822 89.2273 48.3228 91.5285 43.4304L91.5294 43.4322Z" fill="#B2CCFF"/>
<path d="M212.746 73.3266C212.331 73.3266 211.988 72.9984 211.971 72.5796C211.957 72.2313 210.442 37.578 195.33 25.1273C190.879 21.4592 185.616 20.064 179.695 20.981C167.192 22.9157 158.54 32.1262 153.981 48.3556C150.545 60.586 150.864 72.4087 150.868 72.5266C150.88 72.9554 150.544 73.3138 150.115 73.3266C149.684 73.3266 149.328 73.0039 149.315 72.5742C149.311 72.4544 148.983 60.4251 152.477 47.9689C154.539 40.6153 157.511 34.5426 161.309 29.9191C166.096 24.0923 172.202 20.5687 179.458 19.4459C185.838 18.4585 191.512 19.9671 196.321 23.9305C202.911 29.3614 207.81 39.2027 210.881 53.1822C213.155 63.5328 213.522 72.4324 213.525 72.5211C213.541 72.9499 213.207 73.3102 212.778 73.3275C212.768 73.3275 212.758 73.3275 212.747 73.3275L212.746 73.3266Z" fill="url(#paint1_linear_570_11064)"/>
<path d="M115.425 63.0565C115.542 62.2611 116.219 61.6668 117.023 61.654L204.823 60.203L233.572 231.589H94.8438C90.0785 231.589 115.425 63.0574 115.425 63.0574V63.0565Z" fill="#3F80FF"/>
<path d="M220.177 61.5095L204.822 60.203L233.571 231.589H250.769C254.256 231.589 256.862 228.384 256.15 224.971L222.548 63.6124C222.31 62.4649 221.345 61.6101 220.177 61.5104V61.5095Z" fill="#0041BF"/>
<path d="M193.58 72.9582C193.165 72.9582 192.821 72.63 192.805 72.2112C192.791 71.8629 191.275 37.2096 176.164 24.7589C171.712 21.0908 166.451 19.6965 160.529 20.6126C148.026 22.5472 139.374 31.7577 134.815 47.9872C131.379 60.2176 131.698 72.0403 131.701 72.1582C131.714 72.587 131.378 72.9454 130.949 72.9582C130.531 72.9646 130.162 72.6346 130.149 72.2058C130.145 72.086 129.817 60.0567 133.311 47.6005C135.373 40.2469 138.345 34.1742 142.143 29.5507C146.93 23.7239 153.036 20.2003 160.292 19.0775C166.672 18.0892 172.346 19.5987 177.155 23.5621C183.745 28.9929 188.644 38.8343 191.715 52.8138C193.989 63.1644 194.356 72.064 194.358 72.1527C194.375 72.5815 194.041 72.9418 193.612 72.9591C193.602 72.9591 193.592 72.9591 193.581 72.9591L193.58 72.9582Z" fill="url(#paint2_linear_570_11064)"/>
<path d="M138.661 135.982C138.648 135.66 137.248 103.653 123.264 92.128C119.12 88.7132 114.224 87.4149 108.714 88.2679C97.1149 90.0626 89.0939 98.5948 84.8717 113.627C81.7001 124.922 81.9954 135.835 81.9981 135.944L80.9312 135.977C80.9275 135.867 80.6258 124.811 83.8368 113.361C85.7302 106.611 88.4557 101.038 91.9392 96.7982C96.3204 91.4652 101.909 88.2405 108.549 87.2128C114.373 86.3113 119.553 87.6883 123.942 91.3052C129.982 96.2825 134.474 105.316 137.295 118.155C139.387 127.675 139.723 135.859 139.727 135.941L138.661 135.982Z" fill="url(#paint3_linear_570_11064)"/>
<path d="M37.1369 224.904L51.3129 131.46C51.4482 130.567 52.208 129.903 53.1104 129.888L135.023 128.534L152.742 234.026H44.1102C39.5022 234.026 36.4649 229.463 37.1369 224.904Z" fill="#B2CCFF"/>
<path d="M150.816 129.878L135.024 128.534L152.743 234.026L170.234 233.574C171.961 233.53 173.225 231.931 172.871 230.241L152.041 130.883C151.881 130.327 151.394 129.926 150.817 129.878H150.816Z" fill="#8CB3FF"/>
<path d="M121.003 135.643C120.991 135.321 119.592 103.313 105.606 91.7888C101.462 88.3739 96.5673 87.0756 91.056 87.9287C79.4573 89.7234 71.4363 98.2555 67.2141 113.288C64.0425 124.582 64.3378 135.496 64.3405 135.605L63.2736 135.638C63.2699 135.527 62.9682 124.472 66.1792 113.022C68.0727 106.272 70.7981 100.699 74.2816 96.459C78.6628 91.1259 84.2509 87.9012 90.8914 86.8736C96.7163 85.9721 101.896 87.349 106.284 90.9659C112.324 95.9433 116.816 104.976 119.637 117.816C121.729 127.336 122.066 135.52 122.069 135.601L121.003 135.643Z" fill="url(#paint4_linear_570_11064)"/>
<path d="M61.6232 166.708C61.6168 166.536 60.8653 149.366 53.3855 143.204C51.1885 141.394 48.591 140.705 45.668 141.158C30.8603 143.449 31.4015 166.446 31.4088 166.678L30.5394 166.705C30.5375 166.645 30.3748 160.669 32.1092 154.483C34.4315 146.203 39.0742 141.298 45.5345 140.297C48.7144 139.805 51.5423 140.557 53.9396 142.533C61.7192 148.944 62.4644 165.953 62.4918 166.674L61.6223 166.708H61.6232Z" fill="url(#paint5_linear_570_11064)"/>
<path d="M16.1759 159.571L62.0438 158.813L75.5094 235.176H6.96361C4.62212 235.176 14.0667 168.563 15.2333 160.402C15.301 159.931 15.7005 159.58 16.1759 159.571Z" fill="#8CB3FF"/>
<path d="M70.1161 159.501L62.0438 158.814L75.5094 235.176H84.5261C85.5785 235.176 86.3657 234.212 86.1554 233.181L71.3129 160.566C71.194 159.986 70.7067 159.552 70.1161 159.502V159.501Z" fill="#7D97F4"/>
<path d="M52.1155 166.525C52.1091 166.353 51.3576 149.183 43.8778 143.021C41.6808 141.211 39.0833 140.522 36.1603 140.975C21.3526 143.266 21.8938 166.263 21.9011 166.495L21.0317 166.522C21.0298 166.462 20.8671 160.487 22.6015 154.301C24.9238 146.02 29.5665 141.115 36.0269 140.114C39.2067 139.623 42.0346 140.374 44.4319 142.35C52.2115 148.761 52.9567 165.77 52.9841 166.492L52.1146 166.525H52.1155Z" fill="url(#paint6_linear_570_11064)"/>
<path d="M193.818 243.13C193.818 243.13 194.54 247.221 194.895 251.271C195.034 252.854 193.813 254.228 192.225 254.295C186.832 254.52 175.295 254.957 171.155 254.771C170.532 254.744 170.125 254.107 170.356 253.528C170.549 253.043 170.921 252.651 171.395 252.432L190.453 243.674L193.818 243.13Z" fill="url(#paint7_linear_570_11064)"/>
<path d="M194.41 240.726L193.83 245.62C193.83 245.62 190.492 247.174 188.212 245.425L189.594 239.971L194.41 240.727V240.726Z" fill="url(#paint8_linear_570_11064)"/>
<path d="M193.973 148.717C194.224 149.995 195.32 212.494 188.639 240.502C188.531 240.959 188.762 241.43 189.197 241.607C190.222 242.026 192.231 242.632 194.638 242.714C195.383 242.738 196.053 242.254 196.263 241.539C198.173 235.04 207.323 202.482 208.517 171.38C209.851 136.626 208.517 170.197 208.517 170.197L207.734 148.715L193.974 148.718L193.973 148.717Z" fill="url(#paint9_linear_570_11064)"/>
<path d="M215.741 245.264C215.741 245.264 216.891 247.33 218.005 252.818C218.207 253.809 217.514 254.758 216.507 254.857C214.726 255.033 211.984 255.258 209.788 255.242C208.776 255.235 207.985 254.353 208.107 253.349C208.351 251.345 209.109 248.058 211.45 245.497L215.741 245.264Z" fill="url(#paint10_linear_570_11064)"/>
<path d="M216.751 238.97L215.394 246.371C215.394 246.371 214.053 247.368 211.399 246.645L212.046 238.682L216.751 238.969V238.97Z" fill="url(#paint11_linear_570_11064)"/>
<path d="M220.416 150.634C225.88 183.61 219.231 232.135 216.989 241.633C216.852 242.214 216.383 242.66 215.793 242.758C214.792 242.923 213.144 243.059 211.52 242.587C210.96 242.424 210.567 241.919 210.544 241.337C210.243 233.659 210.784 186.519 205.694 167.889C205.436 166.945 204.859 166.122 204.062 165.555L194.18 158.53L193.422 147.174L220.417 150.633L220.416 150.634Z" fill="url(#paint12_linear_570_11064)"/>
<path d="M188.212 89.3294C188.212 89.3294 213.312 83.0738 230.867 92.3703L220.416 150.634C220.416 150.634 203.79 151.974 193.421 148.676L188.212 89.3285V89.3294Z" fill="#8CB3FF"/>
<path d="M216.362 71.8729L218.283 88.406C218.406 88.64 218.346 88.9289 218.136 89.0889C216.85 90.0782 212.13 93.088 205.448 90.1449C204.753 89.8386 204.221 89.2471 204.011 88.5157L206.729 74.187L216.362 71.872V71.8729Z" fill="url(#paint13_linear_570_11064)"/>
<path d="M200.956 63.254C200.956 63.254 198.511 75.2009 200.443 79.1671C202.376 83.1333 209.089 80.8302 214.03 75.691L214.895 63.3134L200.956 63.2531V63.254Z" fill="url(#paint14_linear_570_11064)"/>
<path d="M212.154 70.2903C211.882 70.2547 211.705 69.9859 211.785 69.7216C212.026 68.9207 212.447 67.307 212.357 66.0297C212.357 66.0297 213.158 65.1072 209.413 65.3001C205.669 65.4931 200.07 65.7299 198.097 63.0757C196.173 60.4883 196.831 52.3612 203.025 56.8576C203.261 57.0286 203.596 56.9353 203.701 56.6638C204.153 55.4917 205.5 52.9381 208.535 53.3513C211.376 53.7381 212.2 55.4935 212.438 56.4297C212.509 56.7049 212.815 56.8457 213.067 56.715C214.265 56.0997 217.248 54.9952 219.588 57.6988C221.516 59.926 221.184 61.6064 220.702 62.5225C220.545 62.8197 220.756 63.1699 221.091 63.1735C222 63.1836 223.285 63.5731 223.752 65.558C224.398 68.3027 221.309 68.9536 220.413 69.0835C220.266 69.1045 220.138 69.195 220.074 69.3285C219.578 70.3616 217.277 74.8023 213.806 76.278C213.505 76.406 213.173 76.1692 213.189 75.8437L213.413 70.8645C213.423 70.6332 213.255 70.4329 213.025 70.4019L212.153 70.2876L212.154 70.2903Z" fill="url(#paint15_linear_570_11064)"/>
<path d="M211.718 71.1168C211.718 71.1168 214.836 67.2851 215.786 69.4583C216.737 71.6316 213.231 73.7646 211.099 73.4784L211.718 71.1168Z" fill="url(#paint16_linear_570_11064)"/>
<path d="M235.458 124.353C235.458 124.353 233.747 146.232 219.344 147.175C219.344 147.175 213.171 146.609 210.491 148.714C207.811 150.819 209.109 154.061 209.109 154.061L220.73 152.644C220.73 152.644 237.349 155.411 247.341 127.594L235.458 124.353Z" fill="url(#paint17_linear_570_11064)"/>
<path d="M230.867 92.3703C230.867 92.3703 250.581 104.098 247.341 127.594C247.341 127.594 240.298 130.647 235.178 126.555C235.178 126.555 231.187 111.29 222.52 110.529L230.868 92.3703H230.867Z" fill="#8CB3FF"/>
<path d="M175.113 100.778C175.113 100.778 165.645 105.179 154.572 93.4309C147.005 85.4016 142.375 90.3251 140.912 93.5662C139.448 96.8073 142.949 96.5367 144.17 96.5367C145.39 96.5367 145.542 93.0112 147.694 93.4912C149.846 93.9712 149.214 93.3285 149.348 95.4889C149.483 97.6494 161.054 122.048 175.368 110.165L175.113 100.779V100.778Z" fill="url(#paint18_linear_570_11064)"/>
<path d="M131.574 104.187L164.107 102.362C167.073 102.195 169.676 104.106 170.056 106.73L177.341 157.087C177.775 160.089 175.148 162.747 171.747 162.747H129.297C126.076 162.747 123.509 160.35 123.664 157.486L126.296 108.954C126.435 106.4 128.707 104.347 131.574 104.187Z" fill="#002B7F"/>
<path d="M137.069 109.303C136.569 109.303 136.154 108.909 136.133 108.404C136.106 107.758 135.596 92.5467 146.301 90.8736C148.591 90.5179 150.623 91.0546 152.341 92.4736C157.552 96.7808 157.993 107.863 158.009 108.333C158.027 108.85 157.622 109.284 157.105 109.302C156.591 109.31 156.153 108.915 156.136 108.398C156.132 108.292 155.708 97.6869 151.146 93.9182C149.843 92.8411 148.352 92.4535 146.591 92.7269C137.522 94.144 138.002 108.184 138.007 108.325C138.029 108.843 137.627 109.28 137.109 109.302C137.096 109.302 137.083 109.302 137.07 109.302L137.069 109.303Z" fill="#B2CCFF"/>
<path d="M188.212 89.3294L172.937 100.778C172.937 100.778 172.668 109.355 174.693 113.411L191.707 109.23L188.212 89.3294Z" fill="#8CB3FF"/>
<path d="M91.0577 178.953V192.515C91.0577 197.565 92.9576 202.43 95.695 206.672L98.2861 209.987C101.286 214.63 106.42 217.286 111.947 217.286H168.695L169.125 215.827L183.034 164.87L194.705 158.577L192.967 155.399L179.927 162.469L175.455 178.953H91.0577ZM95.1071 183.002H174.461L168.863 203.652L165.91 214.587H111.947C107.663 214.587 103.641 212.08 101.319 208.483L98.9599 204.721C96.6001 201.072 95.1062 196.86 95.1062 192.515V183.002L95.1071 183.002Z" fill="#002B7F"/>
<path d="M98.8932 235.781C98.8932 236.785 99.7106 237.803 100.72 237.803H167.303C168.312 237.803 169.075 236.378 169.075 235.373V203.976C169.075 203.631 169.006 203.665 168.838 203.39L165.91 214.587H165.025V233.754H100.721C99.7115 233.754 98.8941 234.772 98.8941 235.781L98.8932 235.781Z" fill="#002B7F"/>
<path d="M135.858 180.859H133.427V215.037H135.858V180.859Z" fill="#002B7F"/>
<path d="M157.326 180.859H154.896V215.037H157.326V180.859Z" fill="#002B7F"/>
<path d="M114.896 180.859H112.466V215.037H114.896V180.859Z" fill="#002B7F"/>
<path d="M173.537 190.913H94.4854V193.086H173.537V190.913Z" fill="#002B7F"/>
<path d="M170.087 202.81H96.4657V204.984H170.087V202.81Z" fill="#002B7F"/>
<path d="M150.924 248.149C150.924 252.484 154.439 256 158.774 256C163.11 256 166.625 252.485 166.625 248.149C166.625 243.812 163.111 240.299 158.774 240.299C154.438 240.299 150.924 243.813 150.924 248.149ZM154.036 248.149C154.036 245.532 156.158 243.41 158.775 243.41C161.393 243.41 163.514 245.531 163.514 248.149C163.514 250.766 161.392 252.888 158.775 252.888C156.158 252.888 154.036 250.766 154.036 248.149Z" fill="#002B7F"/>
<path d="M102.139 248.149C102.139 252.484 105.653 256 109.989 256C114.325 256 117.84 252.485 117.84 248.149C117.84 243.812 114.325 240.299 109.989 240.299C105.653 240.299 102.139 243.813 102.139 248.149ZM105.251 248.149C105.251 245.532 107.372 243.41 109.99 243.41C112.607 243.41 114.729 245.531 114.729 248.149C114.729 250.766 112.607 252.888 109.99 252.888C107.372 252.888 105.251 250.766 105.251 248.149Z" fill="#002B7F"/>
<path d="M184.878 158.576C184.878 160.613 186.529 162.264 188.566 162.264H200.839C202.876 162.264 204.527 160.613 204.527 158.576C204.527 156.539 202.876 154.887 200.839 154.887H188.566C186.529 154.887 184.878 156.539 184.878 158.576Z" fill="#002B7F"/>
</g>
<defs>
<linearGradient id="paint0_linear_570_11064" x1="277.58" y1="293.31" x2="98.6263" y2="102.81" gradientUnits="userSpaceOnUse">
<stop stop-color="#DAE3FE"/>
<stop offset="1" stop-color="#E9EFFD"/>
</linearGradient>
<linearGradient id="paint1_linear_570_11064" x1="186.433" y1="18.7273" x2="200.104" y2="-121.08" gradientUnits="userSpaceOnUse">
<stop stop-color="#09005D"/>
<stop offset="1" stop-color="#1A0F91"/>
</linearGradient>
<linearGradient id="paint2_linear_570_11064" x1="171.356" y1="-65.3842" x2="167.938" y2="-14.432" gradientUnits="userSpaceOnUse">
<stop stop-color="#09005D"/>
<stop offset="1" stop-color="#1A0F91"/>
</linearGradient>
<linearGradient id="paint3_linear_570_11064" x1="122.176" y1="12.4443" x2="135.846" y2="-127.363" gradientUnits="userSpaceOnUse">
<stop stop-color="#09005D"/>
<stop offset="1" stop-color="#1A0F91"/>
</linearGradient>
<linearGradient id="paint4_linear_570_11064" x1="109.824" y1="-1.34858" x2="103.3" y2="49.6036" gradientUnits="userSpaceOnUse">
<stop stop-color="#09005D"/>
<stop offset="1" stop-color="#1A0F91"/>
</linearGradient>
<linearGradient id="paint5_linear_570_11064" x1="62.0484" y1="6.5656" x2="75.7179" y2="-133.242" gradientUnits="userSpaceOnUse">
<stop stop-color="#09005D"/>
<stop offset="1" stop-color="#1A0F91"/>
</linearGradient>
<linearGradient id="paint6_linear_570_11064" x1="71.6995" y1="59.7761" x2="53.6798" y2="113.213" gradientUnits="userSpaceOnUse">
<stop stop-color="#09005D"/>
<stop offset="1" stop-color="#1A0F91"/>
</linearGradient>
<linearGradient id="paint7_linear_570_11064" x1="171.758" y1="237.475" x2="241.546" y2="313.384" gradientUnits="userSpaceOnUse">
<stop stop-color="#09005D"/>
<stop offset="1" stop-color="#1A0F91"/>
</linearGradient>
<linearGradient id="paint8_linear_570_11064" x1="194.409" y1="243.113" x2="188.211" y2="243.113" gradientUnits="userSpaceOnUse">
<stop stop-color="#FEBBBA"/>
<stop offset="1" stop-color="#FF928E"/>
</linearGradient>
<linearGradient id="paint9_linear_570_11064" x1="187.667" y1="125.918" x2="204.49" y2="234.573" gradientUnits="userSpaceOnUse">
<stop stop-color="#09005D"/>
<stop offset="1" stop-color="#1A0F91"/>
</linearGradient>
<linearGradient id="paint10_linear_570_11064" x1="187.413" y1="223.082" x2="257.201" y2="298.991" gradientUnits="userSpaceOnUse">
<stop stop-color="#09005D"/>
<stop offset="1" stop-color="#1A0F91"/>
</linearGradient>
<linearGradient id="paint11_linear_570_11064" x1="216.75" y1="242.795" x2="211.399" y2="242.795" gradientUnits="userSpaceOnUse">
<stop stop-color="#FEBBBA"/>
<stop offset="1" stop-color="#FF928E"/>
</linearGradient>
<linearGradient id="paint12_linear_570_11064" x1="202.506" y1="123.621" x2="219.33" y2="232.275" gradientUnits="userSpaceOnUse">
<stop stop-color="#09005D"/>
<stop offset="1" stop-color="#1A0F91"/>
</linearGradient>
<linearGradient id="paint13_linear_570_11064" x1="215.974" y1="108.357" x2="208.984" y2="74.3397" gradientUnits="userSpaceOnUse">
<stop stop-color="#FEBBBA"/>
<stop offset="1" stop-color="#FF928E"/>
</linearGradient>
<linearGradient id="paint14_linear_570_11064" x1="201.621" y1="75.9801" x2="215.332" y2="60.8627" gradientUnits="userSpaceOnUse">
<stop stop-color="#FEBBBA"/>
<stop offset="1" stop-color="#FF928E"/>
</linearGradient>
<linearGradient id="paint15_linear_570_11064" x1="221.013" y1="47.5118" x2="204.445" y2="70.9249" gradientUnits="userSpaceOnUse">
<stop stop-color="#09005D"/>
<stop offset="1" stop-color="#1A0F91"/>
</linearGradient>
<linearGradient id="paint16_linear_570_11064" x1="207.131" y1="78.4883" x2="219.467" y2="64.8874" gradientUnits="userSpaceOnUse">
<stop stop-color="#FEBBBA"/>
<stop offset="1" stop-color="#FF928E"/>
</linearGradient>
<linearGradient id="paint17_linear_570_11064" x1="227.792" y1="151.364" x2="228.66" y2="115.221" gradientUnits="userSpaceOnUse">
<stop stop-color="#FEBBBA"/>
<stop offset="1" stop-color="#FF928E"/>
</linearGradient>
<linearGradient id="paint18_linear_570_11064" x1="157.768" y1="110.709" x2="158.451" y2="82.3031" gradientUnits="userSpaceOnUse">
<stop stop-color="#FEBBBA"/>
<stop offset="1" stop-color="#FF928E"/>
</linearGradient>
<clipPath id="clip0_570_11064">
<rect width="255.684" height="256" fill="white" transform="translate(0.58374)"/>
</clipPath>
</defs>
</svg>
