<svg width="259" height="256" viewBox="0 0 259 256" fill="none" xmlns="http://www.w3.org/2000/svg">
<g clip-path="url(#clip0_570_11143)">
<path d="M245.317 175.787C218.446 235.855 149.848 260.655 96.5321 255.287C81.9749 253.822 52.6846 250.872 30.1601 228.748C-13.0966 186.261 -4.80296 99.1796 38.1967 48.5795C43.7337 42.0634 82.0378 -1.57353 140.514 0.0438349C183.326 1.22875 212.959 26.0159 216.561 29.1025C221.112 33.0019 231.136 42.2527 240.062 56.8072C261.036 91.005 262.108 138.251 245.316 175.787H245.317Z" fill="url(#paint0_linear_570_11143)"/>
<path d="M18.0698 225.223C18.0698 227.459 19.8957 229.289 22.1282 229.289H241.57C243.802 229.289 245.629 227.459 245.629 225.223L247.455 98.7429C247.455 96.5065 244.828 92.1408 240.013 92.469L25.5503 86.9038C22.7499 86.8316 20.0424 87.9123 18.0588 89.8944C16.0761 91.8766 14.9904 94.5874 15.057 97.3934L18.0707 225.223H18.0698Z" fill="url(#paint1_linear_570_11143)"/>
<path d="M22.0762 221.321C22.0762 223.438 23.8037 225.171 25.9158 225.171H236.279C238.39 225.171 240.118 223.439 240.118 221.321L241.841 106.501C241.638 99.5919 235.599 97.1078 231.937 97.255L26.3935 91.7245C24.4263 91.6715 22.5238 92.4322 21.1309 93.8255C19.7371 95.2198 18.9713 97.127 19.0205 99.101L22.0771 221.321L22.0762 221.321Z" fill="#3F80FF"/>
<path d="M237.844 166.774H237.836C237.525 166.77 237.277 166.514 237.282 166.201L237.418 156.889C237.422 156.58 237.673 156.333 237.98 156.333H237.988C238.299 156.338 238.547 156.594 238.543 156.907L238.407 166.219C238.402 166.528 238.151 166.774 237.844 166.774Z" fill="#8CB3FF"/>
<path d="M238.179 143.955H238.17C237.86 143.951 237.612 143.694 237.616 143.382L238.139 107.717C238.128 105.599 237.488 103.908 236.232 102.702C233.89 100.451 230.171 100.566 230.014 100.573L164.318 98.806C164.007 98.7977 163.762 98.5381 163.771 98.2272C163.779 97.9155 164.018 97.6503 164.349 97.6787L230.006 99.446C230.415 99.4222 234.375 99.3527 237.011 101.887C238.494 103.312 239.252 105.276 239.263 107.724L238.741 143.399C238.737 143.708 238.486 143.955 238.179 143.955Z" fill="#8CB3FF"/>
<path d="M0.78241 239.788L258.466 239.788C258.75 239.788 258.981 239.557 258.981 239.272V229.192C258.981 228.906 258.75 228.675 258.466 228.675L0.78241 228.675C0.497955 228.675 0.267334 228.906 0.267334 229.192V239.272C0.267334 239.557 0.497955 239.788 0.78241 239.788Z" fill="url(#paint2_linear_570_11143)"/>
<path d="M193.223 30.9878L61.5955 30.1796C57.27 30.1531 53.8096 33.7773 54.0238 38.1101L63.0796 225.674H209.556L217.689 58.0963L193.223 30.9878Z" fill="#8CB3FF"/>
<path d="M198.696 57.2948C194.408 57.144 191.112 53.4375 191.45 49.1476L192.861 31.2377L217.715 57.9888L198.696 57.2948Z" fill="#7D97F4"/>
<path d="M83.6649 150.08C101.911 149.784 171.955 148.571 189.643 148.265C191.874 148.227 193.709 149.582 193.697 151.258C193.686 152.852 191.996 154.15 189.873 154.193L83.9603 156.393C81.9202 156.435 80.1663 155.304 79.9147 153.783L79.8509 153.398C79.5628 151.659 81.3322 150.118 83.6649 150.08Z" fill="#D9E6FF"/>
<path d="M82.3876 168.703C82.6948 169.095 83.2582 169.334 83.8626 169.328L156.582 168.658C157.495 168.65 158.229 168.095 158.235 167.409L158.26 163.812C158.266 163.097 157.478 162.519 156.526 162.539L85.8289 164.021C82.6802 164.087 80.7887 166.66 82.3876 168.703Z" fill="#D9E6FF"/>
<path d="M83.3139 182.629C101.56 182.333 171.604 181.121 189.292 180.815C191.522 180.776 193.357 182.131 193.346 183.807C193.335 185.401 191.645 186.699 189.521 186.743L83.6092 188.942C81.5691 188.985 79.8152 187.854 79.5636 186.332L79.4998 185.947C79.2117 184.208 80.9811 182.668 83.3139 182.629Z" fill="#D9E6FF"/>
<path d="M82.0367 201.248C82.3439 201.641 82.9072 201.879 83.5116 201.874L156.231 201.204C157.144 201.195 157.878 200.64 157.884 199.955L157.909 196.357C157.915 195.642 157.127 195.064 156.175 195.084L85.4779 196.566C82.3293 196.632 80.4377 199.206 82.0367 201.248Z" fill="#D9E6FF"/>
<g opacity="0.8">
<path d="M167.4 73.3409C167.013 72.8646 166.408 72.6671 165.765 72.6808L107.279 73.9114L105.801 69.2047C105.596 68.5492 104.98 68.1286 104.286 68.1478L96.2556 68.359C95.3941 68.3818 94.6968 68.9825 94.6968 69.8438C94.6968 70.705 95.3941 71.271 96.2556 71.2509L103.118 71.0881L115.535 110.883C115.744 111.553 116.371 112.013 117.082 112.023L158.133 112.576C159.097 112.589 159.879 111.983 159.879 111.07C159.879 110.156 159.097 109.531 158.133 109.52L118.28 109.089L115.081 98.7571L158.876 98.8238C159.773 98.8257 160.564 98.2369 160.814 97.4204L167.727 75.0049C167.908 74.4198 167.785 73.8182 167.399 73.3418L167.4 73.3409Z" fill="white"/>
<path d="M123.087 114.477C119.71 114.424 116.977 117.061 116.977 120.354C116.977 123.648 119.71 126.399 123.087 126.487C126.486 126.577 129.265 123.941 129.265 120.611C129.265 117.281 126.486 114.529 123.087 114.476V114.477ZM123.087 123.286C121.508 123.248 120.228 121.964 120.228 120.423C120.228 118.881 121.508 117.651 123.087 117.68C124.671 117.709 125.961 118.994 125.961 120.543C125.961 122.092 124.67 123.322 123.087 123.285V123.286Z" fill="white"/>
<path d="M150.453 114.903C146.908 114.849 144.04 117.548 144.04 120.921C144.04 124.295 146.908 127.115 150.453 127.208C154.02 127.302 156.938 124.603 156.938 121.191C156.938 117.779 154.02 114.958 150.453 114.903V114.903ZM150.453 123.927C148.796 123.888 147.451 122.572 147.451 120.993C147.451 119.415 148.796 118.155 150.453 118.185C152.115 118.216 153.471 119.532 153.471 121.12C153.471 122.708 152.115 123.967 150.453 123.927Z" fill="white"/>
</g>
<path opacity="0.81" d="M133.905 141.225C106.214 141.225 83.6849 118.629 83.6849 90.8561C83.6849 63.0829 106.214 40.4873 133.905 40.4873C161.597 40.4873 184.126 63.0829 184.126 90.8561C184.126 118.629 161.597 141.225 133.905 141.225ZM133.905 42.9934C107.591 42.9934 86.1836 64.4644 86.1836 90.8561C86.1836 117.248 107.591 138.719 133.905 138.719C160.219 138.719 181.627 117.248 181.627 90.8561C181.627 64.4644 160.219 42.9934 133.905 42.9934Z" fill="white"/>
<path d="M134.564 97.1236C133.788 97.1748 133.067 96.8127 132.666 96.1663L125.925 85.3092C125.293 84.2916 125.633 82.8982 126.685 82.197C127.735 81.4957 129.099 81.7517 129.729 82.7693L134.404 90.3057L140.573 77.7051C141.126 76.5741 142.456 76.0557 143.543 76.5458C144.629 77.0358 145.062 78.3496 144.508 79.4797L136.536 95.7759C136.172 96.522 135.445 97.0358 134.641 97.1163C134.616 97.119 134.589 97.1208 134.564 97.1227V97.1236Z" fill="#3F80FF"/>
<path d="M40.0182 137.615C39.5979 137.615 39.2506 137.28 39.2379 136.856C39.2296 136.571 39.0492 129.801 41.0364 122.571C43.7129 112.833 49.0821 107.062 56.5617 105.881C60.2263 105.302 63.4925 106.17 66.2692 108.46C75.3186 115.925 76.1791 135.952 76.2111 136.802C76.2275 137.234 75.8911 137.598 75.4608 137.614C75.0269 137.625 74.6668 137.294 74.6504 136.862C74.6422 136.661 73.7835 116.686 65.2756 109.669C62.859 107.677 60.0103 106.923 56.8051 107.429C40.1795 110.054 40.7921 136.541 40.8003 136.809C40.8131 137.241 40.4749 137.603 40.0437 137.615C40.0355 137.615 40.0273 137.615 40.0191 137.615H40.0182Z" fill="#659AFF"/>
<path d="M7.1234 223.373L20.542 130.564L70.952 129.713L87.1992 228.532H11.4881C8.79526 228.532 6.73051 226.092 7.1234 223.373Z" fill="#3F80FF"/>
<path d="M80.7415 130.564L70.951 129.713L87.1983 228.532H96.9177C98.8885 228.532 100.361 226.684 99.9596 224.717L80.7415 130.564Z" fill="#0056FE"/>
<path d="M64.5984 137.402C64.1809 137.402 63.8345 137.071 63.8181 136.649C63.8099 136.448 62.9511 116.473 54.4433 109.456C52.0276 107.464 49.1779 106.71 45.9728 107.216C29.3609 109.839 29.9598 136.328 29.9671 136.596C29.9798 137.028 29.6407 137.39 29.2104 137.402C28.7747 137.421 28.4192 137.076 28.4064 136.644C28.3982 136.359 28.2177 129.589 30.205 122.359C32.8814 112.621 38.2507 106.85 45.7303 105.668C49.3958 105.09 52.6611 105.957 55.4378 108.248C64.4863 115.713 65.3477 135.74 65.3796 136.59C65.396 137.022 65.0597 137.386 64.6294 137.402C64.6194 137.402 64.6093 137.402 64.5993 137.402H64.5984Z" fill="#659AFF"/>
<path d="M199.109 248.481C202.411 248.767 208.144 249.232 212.664 249.432C215.381 249.552 216.945 249.285 217.846 248.923C217.844 249.025 217.841 249.122 217.837 249.211C217.816 249.688 217.43 250.069 216.949 250.096C208.41 250.574 201.618 250.261 199.2 250.114C198.7 250.084 198.402 249.539 198.658 249.111C198.785 248.897 198.94 248.688 199.109 248.481Z" fill="#3F80FF"/>
<path d="M212.664 249.433C208.144 249.233 202.412 248.768 199.109 248.482C202.356 244.485 212.664 241.792 212.664 241.792H215.576C217.579 244.686 217.868 247.443 217.847 248.924C216.946 249.286 215.382 249.552 212.665 249.433H212.664Z" fill="url(#paint3_linear_570_11143)"/>
<path d="M216.065 237.027L215.793 242.434C215.763 243.019 215.326 243.512 214.742 243.595C214.16 243.678 213.381 243.689 212.555 243.413C212.047 243.243 211.669 242.814 211.576 242.29L210.634 237.027H216.065Z" fill="url(#paint4_linear_570_11143)"/>
<path d="M249.854 254.719C251.286 254.461 251.934 253.496 252.206 252.465C252.208 252.474 252.21 252.483 252.211 252.492C252.422 253.58 251.933 254.707 250.957 255.243C249.777 255.891 248.486 256.002 247.484 255.948C246.409 255.891 245.422 255.314 244.88 254.391L244.871 254.377C245.951 255.07 247.466 255.151 249.854 254.719Z" fill="#659AFF"/>
<path d="M243.1 238.692H245.501C249.158 238.595 251.455 248.593 252.206 252.464C251.934 253.496 251.286 254.46 249.854 254.719C247.465 255.151 245.951 255.069 244.871 254.377C242.896 251.007 241.916 246.072 241.446 243.191C240.91 239.915 243.101 238.691 243.101 238.691L243.1 238.692Z" fill="url(#paint5_linear_570_11143)"/>
<path d="M245.193 233.674L246.526 238.992C246.689 239.644 246.378 240.319 245.778 240.628C245.032 241.012 243.982 241.415 243.016 241.298C242.562 241.243 242.186 240.922 242.036 240.494L240.078 234.899L245.192 233.674H245.193Z" fill="url(#paint6_linear_570_11143)"/>
<path d="M198.296 163.631C198.296 163.631 210.209 238.323 210.013 238.733C210.013 238.733 213.304 240.234 216.891 238.924C216.891 238.924 215.814 198.997 213.289 183.687C213.289 183.687 233.622 219.374 240.079 237.157C240.079 237.157 243.447 236.754 246.234 234.914C246.234 234.914 224.342 170.678 218.501 162.123L198.297 163.631H198.296Z" fill="url(#paint7_linear_570_11143)"/>
<path d="M212.813 183.298C212.877 183.298 212.942 183.281 212.999 183.244C213.164 183.141 213.214 182.923 213.112 182.758L208.659 175.625C208.608 175.543 208.525 175.486 208.431 175.466L205.154 174.805C204.963 174.768 204.778 174.891 204.739 175.081C204.701 175.272 204.825 175.459 205.015 175.497L208.142 176.128L212.514 183.132C212.581 183.239 212.696 183.297 212.813 183.297V183.298Z" fill="url(#paint8_linear_570_11143)"/>
<path d="M143.624 90.4911C143.624 90.4911 151.663 92.2694 156.553 94.5341C157.524 94.9839 158.299 95.7702 158.74 96.7394C160.202 99.9522 164.578 108.009 173.063 111.853C171.841 113.48 169.873 116.864 169.016 122.551C163.92 118.746 159.52 112.393 157.408 101.974C157.408 101.974 155.8 102.85 153.793 101.873C152.732 101.357 151.508 100.624 150.589 100.048C149.674 99.474 148.992 98.5816 148.727 97.5403C148.377 96.1643 148.583 94.9547 148.583 93.6564L144.451 92.3728C144.451 92.3728 143.208 91.9028 143.623 90.4921L143.624 90.4911Z" fill="url(#paint9_linear_570_11143)"/>
<path d="M169.016 122.551C169.873 116.864 171.841 113.48 173.063 111.853C178.333 114.242 185.19 115.006 193.922 111.971C194.726 111.692 195.566 111.528 196.417 111.478C201.066 111.204 216.382 110.705 229.057 114.905C231.724 115.789 233.885 117.767 234.999 120.33C238.427 128.221 243.978 146.193 228.568 155.265C227.384 152.318 226.018 149.948 224.849 148.207C227.33 144.009 228.066 138.275 223.662 130.808C220.452 139.504 218.945 152.194 218.63 157.809C218.526 159.658 218.85 161.503 219.573 163.21L219.652 163.396C219.807 163.762 219.594 164.182 219.204 164.269C210.53 166.224 201.507 165.693 198.811 165.47C198.33 165.43 197.931 165.085 197.819 164.618C193.601 146.79 193.592 134.63 194.624 126.943C190.678 127.828 178.611 129.715 169.017 122.552L169.016 122.551Z" fill="#0056FE"/>
<path d="M194.606 127.421C194.78 127.421 194.932 127.292 194.955 127.115C195.945 119.609 197.963 116.334 197.983 116.301C198.087 116.136 198.038 115.918 197.874 115.814C197.71 115.71 197.492 115.758 197.389 115.922C197.302 116.059 195.271 119.338 194.257 127.022C194.232 127.215 194.368 127.392 194.56 127.418C194.575 127.419 194.591 127.42 194.606 127.42V127.421Z" fill="url(#paint10_linear_570_11143)"/>
<path d="M216.015 101.093C216.015 101.093 216.893 110.399 217.665 113.152C217.782 113.57 217.601 114.01 217.223 114.227C215.911 114.979 212.766 116.205 208.463 114.09C207.766 113.747 207.347 113.019 207.379 112.248L207.759 103.255L216.014 101.094L216.015 101.093Z" fill="url(#paint11_linear_570_11143)"/>
<path d="M207.57 89.1865C207.57 89.1865 204.763 95.6533 204.575 99.048C204.386 102.443 203.657 104.645 207.57 105.328C211.484 106.012 214.78 104.056 216.566 100.675C216.566 100.675 219.364 95.4658 218.736 93.3319C218.108 91.198 207.57 89.1865 207.57 89.1865Z" fill="url(#paint12_linear_570_11143)"/>
<path d="M215.229 98.2441L215.007 98.1454C214.723 98.0201 214.602 97.6818 214.744 97.4057C215.296 96.336 216.371 93.8857 214.982 93.3143C213.191 92.5774 206.097 91.1264 204.566 88.6021C203.095 86.1756 204.399 83.0432 206.358 82.1527C206.489 82.0933 206.643 82.1408 206.71 82.2679L206.874 82.5778C206.986 82.79 207.298 82.758 207.364 82.5276C207.428 82.3063 207.721 82.2633 207.843 82.459C208.313 83.2142 209.584 84.4393 212.98 85.0674C217.808 85.9607 221 87.9209 221.079 91.2663C221.084 91.4793 221.31 91.5973 221.49 91.4866C221.846 91.269 222.417 91.1666 223.179 91.8094C224.505 92.9275 223.962 95.8276 221.056 98.2139C220.918 98.3273 220.919 98.5431 221.069 98.6409C221.596 98.9847 222.382 99.8039 220.346 100.895C218.241 102.023 216.669 101.93 216.063 101.831C215.913 101.806 215.815 101.66 215.848 101.51L216.495 98.5696C216.531 98.4032 216.405 98.2459 216.235 98.2459H215.228L215.229 98.2441Z" fill="url(#paint13_linear_570_11143)"/>
<path d="M215.107 98.8649C215.107 98.8649 216.178 94.7342 218.024 95.8916C219.871 97.05 217.066 100.521 215.581 100.675L215.106 98.8649H215.107Z" fill="url(#paint14_linear_570_11143)"/>
<path d="M155.264 101.013C155.341 101.013 155.421 100.987 155.485 100.933C155.636 100.811 155.659 100.589 155.536 100.437C155.233 100.062 152.535 96.7533 151.495 96.1645C151.117 95.9506 150.892 95.7284 150.844 95.5245C150.821 95.4267 150.836 95.317 150.891 95.1926L154.061 95.8299L155.856 97.375C156.003 97.5021 156.226 97.4856 156.352 97.3375C156.479 97.1894 156.462 96.9673 156.315 96.8402L154.449 95.2347C154.403 95.1954 154.349 95.1689 154.289 95.157L150.781 94.4521C150.64 94.4237 150.499 94.4831 150.42 94.6011C150.163 94.9842 150.077 95.3398 150.16 95.6882C150.256 96.1005 150.58 96.458 151.15 96.7807C151.932 97.2242 154.188 99.893 154.991 100.884C155.061 100.97 155.162 101.014 155.265 101.014L155.264 101.013Z" fill="url(#paint15_linear_570_11143)"/>
<path d="M215.244 159.738L202.836 159.892L207.178 155.792C208.258 154.773 209.905 154.608 211.151 155.418C211.88 155.892 212.671 156.537 213.357 157.39C213.357 157.39 221.096 154.553 224.848 148.206C226.017 149.947 227.384 152.317 228.568 155.264C225.204 157.245 220.845 158.802 215.244 159.737V159.738Z" fill="url(#paint16_linear_570_11143)"/>
<path d="M213.907 161.344C213.883 161.345 213.858 161.346 213.835 161.346L182.34 161.312C181.562 161.312 180.931 160.685 180.932 159.911C180.932 159.139 181.566 158.5 182.343 158.514L213.837 158.548C214.616 158.548 215.247 159.175 215.246 159.949C215.246 160.698 214.651 161.308 213.907 161.345V161.344Z" fill="url(#paint17_linear_570_11143)"/>
<path d="M154.028 132.966H180.257C182.192 132.966 183.954 134.074 184.779 135.81L196.905 161.325H164.309C163.062 161.325 161.941 160.569 161.483 159.418L152.08 135.807C151.537 134.443 152.549 132.965 154.028 132.965V132.966Z" fill="url(#paint18_linear_570_11143)"/>
<path d="M171.576 149.857C172.66 149.499 173.071 147.789 172.496 146.039C171.921 144.289 170.577 143.16 169.494 143.518C168.411 143.876 167.999 145.585 168.574 147.335C169.149 149.086 170.493 150.215 171.576 149.857Z" fill="#3F80FF"/>
</g>
<defs>
<linearGradient id="paint0_linear_570_11143" x1="269.507" y1="292.155" x2="84.5545" y2="86.0089" gradientUnits="userSpaceOnUse">
<stop stop-color="#DAE3FE"/>
<stop offset="1" stop-color="#E9EFFD"/>
</linearGradient>
<linearGradient id="paint1_linear_570_11143" x1="151.893" y1="219.565" x2="99.7894" y2="63.7157" gradientUnits="userSpaceOnUse">
<stop stop-color="#09005D"/>
<stop offset="1" stop-color="#1A0F91"/>
</linearGradient>
<linearGradient id="paint2_linear_570_11143" x1="126.39" y1="99.2914" x2="129.544" y2="230.072" gradientUnits="userSpaceOnUse">
<stop stop-color="#09005D"/>
<stop offset="1" stop-color="#1A0F91"/>
</linearGradient>
<linearGradient id="paint3_linear_570_11143" x1="217.847" y1="245.627" x2="199.109" y2="245.627" gradientUnits="userSpaceOnUse">
<stop stop-color="#09005D"/>
<stop offset="1" stop-color="#1A0F91"/>
</linearGradient>
<linearGradient id="paint4_linear_570_11143" x1="216.065" y1="240.337" x2="210.634" y2="240.337" gradientUnits="userSpaceOnUse">
<stop stop-color="#FEBBBA"/>
<stop offset="1" stop-color="#FF928E"/>
</linearGradient>
<linearGradient id="paint5_linear_570_11143" x1="252.207" y1="246.838" x2="241.361" y2="246.838" gradientUnits="userSpaceOnUse">
<stop stop-color="#09005D"/>
<stop offset="1" stop-color="#1A0F91"/>
</linearGradient>
<linearGradient id="paint6_linear_570_11143" x1="246.569" y1="237.496" x2="240.078" y2="237.496" gradientUnits="userSpaceOnUse">
<stop stop-color="#FEBBBA"/>
<stop offset="1" stop-color="#FF928E"/>
</linearGradient>
<linearGradient id="paint7_linear_570_11143" x1="232.224" y1="255.101" x2="209.606" y2="154.873" gradientUnits="userSpaceOnUse">
<stop stop-color="#09005D"/>
<stop offset="1" stop-color="#1A0F91"/>
</linearGradient>
<linearGradient id="paint8_linear_570_11143" x1="234.282" y1="139.257" x2="201.032" y2="191.176" gradientUnits="userSpaceOnUse">
<stop stop-color="#CB236D"/>
<stop offset="1" stop-color="#4C246D"/>
</linearGradient>
<linearGradient id="paint9_linear_570_11143" x1="157.291" y1="100.369" x2="183.094" y2="133.839" gradientUnits="userSpaceOnUse">
<stop stop-color="#FEBBBA"/>
<stop offset="1" stop-color="#FF928E"/>
</linearGradient>
<linearGradient id="paint10_linear_570_11143" x1="194.254" y1="121.59" x2="198.038" y2="121.59" gradientUnits="userSpaceOnUse">
<stop stop-color="#E1473D"/>
<stop offset="1" stop-color="#E9605A"/>
</linearGradient>
<linearGradient id="paint11_linear_570_11143" x1="214.592" y1="122.049" x2="211.764" y2="107.244" gradientUnits="userSpaceOnUse">
<stop stop-color="#FEBBBA"/>
<stop offset="1" stop-color="#FF928E"/>
</linearGradient>
<linearGradient id="paint12_linear_570_11143" x1="206.982" y1="94.8789" x2="223.064" y2="107.148" gradientUnits="userSpaceOnUse">
<stop stop-color="#FEBBBA"/>
<stop offset="1" stop-color="#FF928E"/>
</linearGradient>
<linearGradient id="paint13_linear_570_11143" x1="218.279" y1="85.1287" x2="203.278" y2="104.384" gradientUnits="userSpaceOnUse">
<stop stop-color="#09005D"/>
<stop offset="1" stop-color="#1A0F91"/>
</linearGradient>
<linearGradient id="paint14_linear_570_11143" x1="208.972" y1="92.2702" x2="225.054" y2="104.538" gradientUnits="userSpaceOnUse">
<stop stop-color="#FEBBBA"/>
<stop offset="1" stop-color="#FF928E"/>
</linearGradient>
<linearGradient id="paint15_linear_570_11143" x1="150.129" y1="97.7289" x2="156.437" y2="97.7289" gradientUnits="userSpaceOnUse">
<stop stop-color="#FF928E"/>
<stop offset="1" stop-color="#FE7062"/>
</linearGradient>
<linearGradient id="paint16_linear_570_11143" x1="199.565" y1="132.568" x2="210.842" y2="149.434" gradientUnits="userSpaceOnUse">
<stop stop-color="#FEBBBA"/>
<stop offset="1" stop-color="#FF928E"/>
</linearGradient>
<linearGradient id="paint17_linear_570_11143" x1="219.241" y1="152.966" x2="194.228" y2="161.144" gradientUnits="userSpaceOnUse">
<stop stop-color="#09005D"/>
<stop offset="1" stop-color="#1A0F91"/>
</linearGradient>
<linearGradient id="paint18_linear_570_11143" x1="184.841" y1="136.727" x2="166.888" y2="155.647" gradientUnits="userSpaceOnUse">
<stop stop-color="#09005D"/>
<stop offset="1" stop-color="#1A0F91"/>
</linearGradient>
<clipPath id="clip0_570_11143">
<rect width="258.714" height="256" fill="white" transform="translate(0.267334)"/>
</clipPath>
</defs>
</svg>
