<svg width="345" height="256" viewBox="0 0 345 256" fill="none" xmlns="http://www.w3.org/2000/svg">
<g clip-path="url(#clip0_570_10809)">
<g clip-path="url(#clip1_570_10809)">
<path d="M310.112 236.376H287.323V236.548H310.112V236.376Z" fill="#EBEBEB"/>
<path d="M228.453 238.248H222.473V238.42H228.453V238.248Z" fill="#EBEBEB"/>
<path d="M286.635 229.991H273.431V230.163H286.635V229.991Z" fill="#EBEBEB"/>
<path d="M66.3663 231.147H36.6489V231.319H66.3663V231.147Z" fill="#EBEBEB"/>
<path d="M76.8523 231.147H72.4969V231.319H76.8523V231.147Z" fill="#EBEBEB"/>
<path d="M155.47 234.051H91.0126V234.223H155.47V234.051Z" fill="#EBEBEB"/>
<path d="M164.587 194.618H31.7224C29.555 194.618 27.7936 192.857 27.7936 190.689V3.92883C27.7936 1.76144 29.555 0 31.7224 0H164.587C166.754 0 168.516 1.76144 168.516 3.92883V190.689C168.516 192.857 166.754 194.618 164.587 194.618ZM31.7224 0.172015C29.6513 0.172015 27.9656 1.85777 27.9656 3.92883V190.689C27.9656 192.76 29.6513 194.446 31.7224 194.446H164.587C166.658 194.446 168.344 192.76 168.344 190.689V3.92883C168.344 1.85777 166.658 0.172015 164.587 0.172015H31.7224Z" fill="#EBEBEB"/>
<path d="M313.414 194.618H180.55C178.383 194.618 176.621 192.857 176.621 190.689V3.92883C176.621 1.76144 178.383 0 180.55 0H313.414C315.582 0 317.343 1.76144 317.343 3.92883V190.689C317.343 192.857 315.582 194.618 313.414 194.618ZM180.55 0.172015C178.479 0.172015 176.793 1.85777 176.793 3.92883V190.689C176.793 192.76 178.479 194.446 180.55 194.446H313.414C315.486 194.446 317.171 192.76 317.171 190.689V3.92883C317.171 1.85777 315.486 0.172015 313.414 0.172015H180.55Z" fill="#EBEBEB"/>
<path d="M344.584 225.306H0.553223V225.478H344.584V225.306Z" fill="#EBEBEB"/>
<path d="M90.469 43.6781L95.485 40.4649L98.2235 45.763L104.182 45.4809L103.907 51.4395L109.205 54.178L105.985 59.2008L109.205 64.2237L103.907 66.9621L104.182 72.9208L98.2235 72.6455L95.485 77.9436L90.469 74.7235L85.4462 77.9436L82.7077 72.6455L76.7491 72.9208L77.0243 66.9621L71.7263 64.2237L74.9464 59.2008L71.7263 54.178L77.0243 51.4395L76.7491 45.4809L82.7077 45.763L85.4462 40.4649L90.469 43.6781Z" fill="#E6E6E6"/>
<path d="M88.5631 66.8658L82.5976 60.9003C81.9164 60.2191 81.9164 59.1114 82.5976 58.4302C83.2788 57.749 84.3866 57.749 85.0678 58.4302L88.5631 61.9255L95.8634 54.6252C96.5446 53.944 97.6524 53.944 98.3336 54.6252C99.0147 55.3064 99.0147 56.4142 98.3336 57.0953L88.5631 66.8658Z" fill="#FAFAFA"/>
<path d="M277.057 96.3492L280.993 93.824L283.147 97.9799L287.819 97.7597L287.599 102.432L291.754 104.578L289.229 108.521L291.754 112.457L287.599 114.603L287.819 119.275L283.147 119.055L280.993 123.211L277.057 120.686L273.122 123.211L270.975 119.055L266.303 119.275L266.516 114.603L262.36 112.457L264.886 108.521L262.36 104.578L266.516 102.432L266.303 97.7597L270.975 97.9799L273.122 93.824L277.057 96.3492Z" fill="#E6E6E6"/>
<path d="M275.564 114.528L270.886 109.849C270.349 109.312 270.349 108.445 270.886 107.909C271.422 107.372 272.289 107.372 272.826 107.909L275.564 110.647L281.289 104.922C281.826 104.386 282.693 104.386 283.229 104.922C283.766 105.459 283.766 106.326 283.229 106.863L275.564 114.528Z" fill="#FAFAFA"/>
<path d="M90.9713 162.403L98.6432 166.318C99.9368 166.979 101.512 166.703 102.51 165.637L108.379 159.334C109.074 158.584 109.384 157.552 109.205 156.548L106.15 139.243C105.648 136.415 102.95 134.523 100.123 135.025L90.4071 136.738C87.5792 137.241 85.687 139.938 86.1893 142.766L89.2443 160.071C89.4232 161.075 90.0631 161.942 90.9713 162.41V162.403ZM99.7097 161.061C100.597 160.903 101.444 161.495 101.602 162.389C101.76 163.277 101.168 164.123 100.274 164.281C99.3863 164.44 98.54 163.848 98.3817 162.954C98.2235 162.066 98.8152 161.22 99.7097 161.061Z" fill="#E6E6E6"/>
<path d="M91.3474 157.048L106.194 154.431L105.911 152.825L91.0642 155.443L91.3474 157.048Z" fill="#FAFAFA"/>
<path d="M88.8331 142.778L103.68 140.16L103.396 138.554L88.55 141.172L88.8331 142.778Z" fill="#FAFAFA"/>
<path d="M117.193 50.3592L122.471 56.0219C123.365 56.9783 124.783 57.226 125.945 56.6343L132.847 53.1183C133.666 52.6986 134.243 51.9211 134.402 51.0197L137.147 35.4558C137.594 32.9099 135.895 30.488 133.356 30.0407L124.618 28.4995C122.072 28.0522 119.65 29.7517 119.202 32.2907L116.457 47.8546C116.299 48.7629 116.574 49.6849 117.2 50.3592H117.193ZM124.989 51.9142C125.787 52.0518 126.324 52.8155 126.179 53.6137C126.042 54.4118 125.278 54.9485 124.48 54.804C123.682 54.6664 123.145 53.9027 123.29 53.1045C123.427 52.3064 124.191 51.7697 124.989 51.9142Z" fill="#F0F0F0"/>
<path d="M119.165 45.9479L132.514 48.3017L132.768 46.8584L119.419 44.5046L119.165 45.9479Z" fill="#FAFAFA"/>
<path d="M121.423 33.1193L134.772 35.4731L135.026 34.0298L121.677 31.676L121.423 33.1193Z" fill="#FAFAFA"/>
<path d="M245.076 33.5705C243.04 30.66 239.021 29.9513 236.111 31.9879L233.386 33.9007L231.473 31.176C229.437 28.2655 225.418 27.5568 222.508 29.5935C219.597 31.6301 218.889 35.6484 220.925 38.5589L230.221 51.8385L243.501 42.5428C246.411 40.5061 247.12 36.4879 245.083 33.5774L245.076 33.5705Z" fill="#EBEBEB"/>
<path d="M264.163 34.809C263.166 33.3847 261.198 33.0338 259.773 34.0315L258.439 34.9673L257.503 33.6324C256.505 32.2081 254.537 31.8572 253.113 32.8549C251.689 33.8526 251.338 35.8205 252.335 37.2447L256.884 43.7469L263.386 39.1988C264.81 38.2011 265.161 36.2333 264.163 34.809Z" fill="#EBEBEB"/>
<path d="M60.6622 97.9869C51.4147 100.636 46.0684 110.289 48.7175 119.537C50.4376 125.544 60.9719 135.617 68.1483 141.933C71.3478 144.748 76.3913 143.303 77.6092 139.222C80.3408 130.064 83.9393 115.938 82.2123 109.932C79.5633 100.684 69.9098 95.3379 60.6622 97.9869ZM67.6804 122.461C63.4145 123.686 58.9558 121.216 57.738 116.95C56.5132 112.684 58.9834 108.225 63.2493 107.007C67.5153 105.783 71.974 108.253 73.1918 112.519C74.4166 116.785 71.9464 121.243 67.6804 122.461Z" fill="#E0E0E0"/>
<path d="M63.387 97.2024C54.1394 99.8514 48.7932 109.505 51.4422 118.752C53.1624 124.759 63.6966 134.832 70.8731 141.149C74.0725 143.963 79.116 142.518 80.3339 138.438C83.0655 129.28 86.6641 115.154 84.937 109.147C82.288 99.8996 72.6345 94.5534 63.387 97.2024ZM70.4052 121.677C66.1392 122.901 61.6806 120.431 60.4627 116.165C59.2379 111.899 61.7081 107.441 65.9741 106.223C70.24 104.998 74.6987 107.468 75.9166 111.734C77.1344 116 74.6712 120.459 70.4052 121.677Z" fill="#F5F5F5"/>
<path d="M264.019 53.7238C255.968 51.4119 247.567 56.0701 245.255 64.1273C243.755 69.3566 246.886 81.6522 249.267 89.6337C250.326 93.191 254.716 94.4502 257.503 91.9938C263.75 86.4893 272.922 77.7234 274.422 72.4873C276.734 64.4369 272.076 56.0357 264.019 53.7238ZM257.909 75.0331C254.193 73.9666 252.04 70.0928 253.106 66.3704C254.173 62.6549 258.046 60.5012 261.769 61.5677C265.484 62.6342 267.638 66.508 266.571 70.2304C265.505 73.9528 261.631 76.0996 257.909 75.0331Z" fill="#E0E0E0"/>
<path d="M266.392 54.3981C258.342 52.0862 249.941 56.7444 247.629 64.8016C246.129 70.0308 249.26 82.3265 251.64 90.308C252.7 93.8653 257.09 95.1244 259.877 92.668C266.124 87.1636 275.296 78.3977 276.796 73.1615C279.108 65.1112 274.45 56.71 266.392 54.3981ZM260.283 75.7073C256.567 74.6408 254.413 70.7671 255.48 67.0447C256.546 63.3291 260.42 61.1755 264.143 62.242C267.858 63.3085 270.012 67.1823 268.945 70.9047C267.879 74.6202 264.005 76.7738 260.283 75.7073Z" fill="#F5F5F5"/>
<path d="M172.568 256C246.248 256 305.977 252.513 305.977 248.211C305.977 243.91 246.248 240.422 172.568 240.422C98.8892 240.422 39.1603 243.91 39.1603 248.211C39.1603 252.513 98.8892 256 172.568 256Z" fill="#F5F5F5"/>
<path d="M130.253 91.4571H137.615C139.191 91.4571 140.36 92.7369 140.216 94.3126L138.86 109.842C138.723 111.418 137.333 112.698 135.757 112.698H128.395C126.819 112.698 125.65 111.418 125.794 109.842L127.15 94.3126C127.287 92.7369 128.677 91.4571 130.253 91.4571Z" fill="#3F80FF"/>
<path opacity="0.2" d="M212.614 88.1407H224.118C226.581 88.1407 228.405 90.1361 228.184 92.5993L226.767 108.817C226.554 111.28 224.379 113.276 221.916 113.276H210.412C207.949 113.276 206.125 111.28 206.345 108.817L207.763 92.5993C207.976 90.1361 210.15 88.1407 212.614 88.1407Z" fill="black"/>
<path opacity="0.2" d="M210.254 115.085H221.758C224.221 115.085 226.045 117.08 225.824 119.544L224.407 135.761C224.194 138.225 222.019 140.22 219.556 140.22H208.052C205.588 140.22 203.765 138.225 203.985 135.761L205.403 119.544C205.616 117.08 207.79 115.085 210.254 115.085Z" fill="black"/>
<path d="M150.901 57.7352H215.001C223.912 57.7352 230.496 64.953 229.719 73.8634L216.04 230.17C215.263 239.081 207.405 246.298 198.501 246.298H134.402C125.491 246.298 118.907 239.081 119.684 230.17L133.356 73.8634C134.133 64.953 141.991 57.7352 150.894 57.7352H150.901Z" fill="#3F80FF"/>
<path opacity="0.2" d="M150.901 57.7352H215.001C223.912 57.7352 230.496 64.953 229.719 73.8634L216.04 230.17C215.263 239.081 207.405 246.298 198.501 246.298H134.402C125.491 246.298 118.907 239.081 119.684 230.17L133.356 73.8634C134.133 64.953 141.991 57.7352 150.894 57.7352H150.901Z" fill="black"/>
<path d="M148.83 57.7352H212.93C221.841 57.7352 228.425 64.953 227.648 73.8634L213.976 230.17C213.198 239.081 205.341 246.298 196.437 246.298H132.338C123.427 246.298 116.842 239.081 117.62 230.17L131.299 73.8634C132.076 64.953 139.934 57.7352 148.837 57.7352H148.83Z" fill="#3F80FF"/>
<path d="M225.728 73.8634L212.056 230.163C211.368 238.007 204.453 244.372 196.609 244.372H132.509C124.666 244.372 118.858 238.014 119.546 230.163L133.218 73.8634C133.906 66.0195 140.821 59.6549 148.665 59.6549H212.765C220.609 59.6549 226.416 66.0126 225.728 73.8634Z" fill="white"/>
<g opacity="0.1">
<path d="M132.503 244.372H156.805L196.066 59.6618H165.103L126.172 242.81C128.023 243.808 130.17 244.379 132.503 244.379V244.372Z" fill="black"/>
<path d="M210.928 59.6618H205.038L165.77 244.372H171.667L210.928 59.6618Z" fill="black"/>
</g>
<path d="M161.924 59.2008C161.711 61.7122 163.569 63.742 166.08 63.7558H194.635C197.146 63.7489 199.355 61.7122 199.582 59.2008H161.924Z" fill="#3F80FF"/>
<path d="M211.602 64.6915H218.084C218.627 64.6915 219.026 65.1319 218.978 65.6686L218.731 68.4965C218.682 69.0401 218.208 69.4736 217.664 69.4736H211.182C210.639 69.4736 210.24 69.0332 210.288 68.4965L210.536 65.6686C210.584 65.125 211.059 64.6915 211.602 64.6915Z" fill="#3F80FF"/>
<path d="M142.397 64.6915H151.073C151.686 64.6915 152.133 65.1869 152.085 65.7993L151.858 68.3727C151.803 68.985 151.266 69.4804 150.654 69.4804H141.977C141.365 69.4804 140.918 68.985 140.966 68.3727L141.193 65.7993C141.248 65.1869 141.785 64.6915 142.397 64.6915Z" fill="#3F80FF"/>
<path opacity="0.4" d="M142.397 64.6915H151.073C151.686 64.6915 152.133 65.1869 152.085 65.7993L151.858 68.3727C151.803 68.985 151.266 69.4804 150.654 69.4804H141.977C141.365 69.4804 140.918 68.985 140.966 68.3727L141.193 65.7993C141.248 65.1869 141.785 64.6915 142.397 64.6915Z" fill="white"/>
<path d="M209.875 65.5103H210.894C211.093 65.5103 211.238 65.6686 211.224 65.8682L211.011 68.2974C210.99 68.497 210.818 68.6553 210.618 68.6553H209.6C209.4 68.6553 209.256 68.497 209.27 68.2974L209.483 65.8682C209.504 65.6686 209.676 65.5103 209.875 65.5103Z" fill="#3F80FF"/>
<path d="M216.797 65.5103H217.816C218.015 65.5103 218.16 65.6686 218.146 65.8682L217.933 68.2974C217.912 68.497 217.74 68.6553 217.54 68.6553H216.522C216.322 68.6553 216.178 68.497 216.192 68.2974L216.405 65.8682C216.425 65.6686 216.598 65.5103 216.797 65.5103Z" fill="white"/>
<path d="M214.602 65.5103H215.621C215.82 65.5103 215.965 65.6686 215.951 65.8682L215.738 68.2974C215.717 68.497 215.545 68.6553 215.345 68.6553H214.327C214.127 68.6553 213.983 68.497 213.997 68.2974L214.21 65.8682C214.231 65.6686 214.403 65.5103 214.602 65.5103Z" fill="white"/>
<path d="M226.12 108.707L224.723 124.69C226.065 124.443 227.173 123.28 227.297 121.89L228.205 111.514C228.329 110.117 227.428 108.961 226.127 108.714L226.12 108.707Z" fill="#3F80FF"/>
<path opacity="0.2" d="M226.12 108.707L224.723 124.69C226.065 124.443 227.173 123.28 227.297 121.89L228.205 111.514C228.329 110.117 227.428 108.961 226.127 108.714L226.12 108.707Z" fill="black"/>
<path d="M227.627 91.4571L226.23 107.441C227.572 107.193 228.68 106.03 228.804 104.64L229.712 94.2644C229.836 92.8676 228.934 91.7117 227.634 91.464L227.627 91.4571Z" fill="#3F80FF"/>
<path opacity="0.2" d="M227.627 91.4571L226.23 107.441C227.572 107.193 228.68 106.03 228.804 104.64L229.712 94.2644C229.836 92.8676 228.934 91.7117 227.634 91.464L227.627 91.4571Z" fill="black"/>
<path d="M188.745 70.6432H167.305C163.72 70.6432 160.555 73.5538 160.238 77.1385L159.131 89.8333C158.814 93.4181 161.47 96.3286 165.055 96.3286H171.185L170.752 101.269C170.642 102.494 172.073 103.106 173.016 102.239L179.442 96.3286H186.488C190.073 96.3286 193.238 93.4181 193.554 89.8333L194.662 77.1385C194.979 73.5538 192.323 70.6432 188.738 70.6432H188.745Z" fill="#3F80FF"/>
<path d="M182.332 76.7051H172.039C172.011 75.8519 171.997 75.4253 171.97 74.5721H166.307C166.383 75.0606 166.424 75.3014 166.5 75.79H170.587C170.608 76.1546 170.621 76.3404 170.649 76.7051C170.766 78.5078 170.821 79.4092 170.938 81.2119C170.972 81.7004 170.986 81.9412 171.013 82.4297C171.13 84.2325 171.185 85.1338 171.302 86.9365C171.364 87.8998 171.399 88.3815 171.461 89.3448H182.759C182.917 88.8562 182.993 88.6154 183.144 88.1269H172.39C172.376 87.6521 172.369 87.4113 172.355 86.9365H184.052C184.658 85.1338 184.954 84.2325 185.559 82.4297C185.724 81.9412 185.8 81.7004 185.965 81.2119C186.571 79.4092 186.866 78.5078 187.472 76.7051H182.325H182.332ZM172.08 77.9229H175.727C175.651 79.2371 175.617 79.8977 175.541 81.2119H172.19C172.149 79.8977 172.128 79.2371 172.087 77.9229H172.08ZM172.328 85.7187C172.286 84.4045 172.266 83.7439 172.224 82.4297H175.472C175.396 83.7439 175.362 84.4045 175.286 85.7187H172.335H172.328ZM179.325 85.7187H176.373C176.49 84.4045 176.552 83.7439 176.669 82.4297H179.917C179.683 83.7439 179.566 84.4045 179.325 85.7187ZM180.13 81.2119H176.773C176.889 79.8977 176.951 79.2371 177.068 77.9229H180.715C180.481 79.2371 180.364 79.8977 180.123 81.2119H180.13ZM183.371 85.7187H180.419C180.701 84.4045 180.839 83.7439 181.114 82.4297H184.362C183.963 83.7439 183.77 84.4045 183.371 85.7187ZM184.727 81.2119H181.376C181.658 79.8977 181.795 79.2371 182.071 77.9229H185.717C185.318 79.2371 185.126 79.8977 184.727 81.2119Z" fill="white"/>
<path d="M172.073 90.4869C171.275 90.4869 170.573 91.1338 170.497 91.9321C170.429 92.7304 171.02 93.3773 171.819 93.3773C172.617 93.3773 173.319 92.7304 173.395 91.9321C173.463 91.1338 172.872 90.4869 172.073 90.4869Z" fill="white"/>
<path d="M182.346 90.4869C181.548 90.4869 180.846 91.1338 180.77 91.9321C180.701 92.7304 181.293 93.3773 182.091 93.3773C182.89 93.3773 183.592 92.7304 183.667 91.9321C183.736 91.1338 183.144 90.4869 182.346 90.4869Z" fill="white"/>
<path d="M204.15 160.476H179.635V184.992H204.15V160.476Z" fill="#3F80FF"/>
<path d="M219.198 160.476H204.144V184.992H219.198V160.476Z" fill="#3F80FF"/>
<path d="M199.465 154.325H174.949L179.635 160.476H204.144L199.465 154.325Z" fill="#3F80FF"/>
<path opacity="0.3" d="M219.198 160.476H204.144V184.992H219.198V160.476Z" fill="white"/>
<path opacity="0.4" d="M199.465 154.325H174.949L179.635 160.476H204.144L199.465 154.325Z" fill="white"/>
<path d="M208.582 154.325H223.636L219.205 160.476H204.144L208.582 154.325Z" fill="#3F80FF"/>
<path opacity="0.6" d="M204.15 160.476H179.635V184.992H204.15V160.476Z" fill="white"/>
<path opacity="0.2" d="M208.582 154.325H223.636L219.205 160.476H204.144L208.582 154.325Z" fill="white"/>
<path d="M273.129 184.38H211.341V246.168H273.129V184.38Z" fill="#3F80FF"/>
<path opacity="0.4" d="M273.129 184.38H211.341V246.168H273.129V184.38Z" fill="white"/>
<path d="M211.327 184.38H173.374V246.168H211.327V184.38Z" fill="#3F80FF"/>
<path opacity="0.6" d="M211.327 184.38H173.374V246.168H211.327V184.38Z" fill="white"/>
<path opacity="0.5" d="M185.098 184.38V200.976L186.605 201.774L187.905 200.687L189.963 201.774L191.917 200.687L193.431 201.774L195.164 200.687L196.148 201.574V184.38H185.098Z" fill="white"/>
<path opacity="0.5" d="M196.148 246.168V229.572L194.641 228.78L193.341 229.861L191.284 228.78L189.33 229.861L187.816 228.78L186.082 229.861L185.098 228.973V246.168H196.148Z" fill="white"/>
<path d="M236.544 209.577C236.895 210.987 237.067 211.696 237.418 213.106C237.515 213.492 237.563 213.677 237.652 214.063C238.003 215.473 238.175 216.182 238.526 217.592H247.691C247.65 217.964 247.622 218.15 247.581 218.521H239.152C239.242 218.9 239.283 219.092 239.372 219.478H248.228C248.345 218.721 248.4 218.342 248.517 217.592C248.73 216.182 248.84 215.473 249.053 214.063C249.108 213.684 249.143 213.492 249.198 213.106C249.411 211.696 249.521 210.987 249.735 209.577C249.776 209.288 249.796 209.15 249.845 208.861H253.044C253.14 208.483 253.189 208.29 253.278 207.905H248.84C248.757 208.572 248.723 208.909 248.641 209.577H236.538H236.544ZM248.228 213.106H245.599C245.634 212.074 245.647 211.558 245.675 210.533H248.53C248.407 211.565 248.345 212.081 248.221 213.106H248.228ZM245.489 216.636C245.524 215.604 245.537 215.088 245.565 214.056H248.111C247.987 215.088 247.925 215.604 247.801 216.636H245.489ZM242.083 214.056H244.629C244.629 215.088 244.629 215.604 244.636 216.636H242.324C242.228 215.604 242.18 215.088 242.09 214.056H242.083ZM241.76 210.526H244.622C244.622 211.558 244.622 212.074 244.629 213.099H242.001C241.904 212.067 241.856 211.551 241.767 210.526H241.76ZM238.595 214.056H241.141C241.271 215.088 241.333 215.604 241.464 216.636H239.152C238.932 215.604 238.822 215.088 238.602 214.056H238.595ZM237.838 210.526H240.693C240.824 211.558 240.886 212.074 241.017 213.099H238.388C238.168 212.067 238.058 211.551 237.838 210.526Z" fill="white"/>
<path d="M247.677 222.65C248.305 222.65 248.813 222.142 248.813 221.515C248.813 220.887 248.305 220.379 247.677 220.379C247.05 220.379 246.542 220.887 246.542 221.515C246.542 222.142 247.05 222.65 247.677 222.65Z" fill="white"/>
<path d="M239.62 222.65C240.247 222.65 240.756 222.142 240.756 221.515C240.756 220.887 240.247 220.379 239.62 220.379C238.993 220.379 238.485 220.887 238.485 221.515C238.485 222.142 238.993 222.65 239.62 222.65Z" fill="white"/>
<g opacity="0.5">
<path d="M183.983 209.577C184.334 210.987 184.506 211.696 184.857 213.106C184.954 213.492 185.002 213.677 185.091 214.063C185.442 215.473 185.614 216.182 185.965 217.592H195.13C195.089 217.964 195.061 218.15 195.02 218.521H186.591C186.681 218.9 186.722 219.092 186.811 219.478H195.667C195.784 218.721 195.839 218.342 195.956 217.592C196.169 216.182 196.279 215.473 196.492 214.063C196.547 213.684 196.582 213.492 196.637 213.106C196.85 211.696 196.96 210.987 197.174 209.577C197.215 209.288 197.236 209.15 197.284 208.861H200.483C200.579 208.483 200.628 208.29 200.717 207.905H196.279C196.197 208.572 196.162 208.909 196.08 209.577H183.977H183.983ZM195.667 213.106H193.038L193.114 210.533H195.969C195.846 211.565 195.784 212.081 195.66 213.106H195.667ZM192.928 216.636C192.963 215.604 192.976 215.088 193.004 214.056H195.55C195.426 215.088 195.364 215.604 195.24 216.636H192.928ZM189.522 214.056H192.068C192.068 215.088 192.068 215.604 192.075 216.636H189.763C189.667 215.604 189.619 215.088 189.529 214.056H189.522ZM189.199 210.526H192.061C192.061 211.558 192.061 212.074 192.068 213.099H189.44C189.343 212.067 189.295 211.551 189.206 210.526H189.199ZM186.034 214.056H188.58C188.71 215.088 188.772 215.604 188.903 216.636H186.591C186.371 215.604 186.261 215.088 186.041 214.056H186.034ZM185.277 210.526H188.132C188.263 211.558 188.325 212.074 188.456 213.099H185.827C185.607 212.067 185.497 211.551 185.277 210.526Z" fill="white"/>
<path d="M195.116 222.65C195.744 222.65 196.252 222.142 196.252 221.515C196.252 220.887 195.744 220.379 195.116 220.379C194.489 220.379 193.981 220.887 193.981 221.515C193.981 222.142 194.489 222.65 195.116 222.65Z" fill="white"/>
<path d="M187.059 222.65C187.686 222.65 188.195 222.142 188.195 221.515C188.195 220.887 187.686 220.379 187.059 220.379C186.432 220.379 185.924 220.887 185.924 221.515C185.924 222.142 186.432 222.65 187.059 222.65Z" fill="white"/>
</g>
<path d="M250.567 135.218C250.567 135.218 252.707 150.624 254.633 153.279C256.56 155.935 265.216 163.284 265.216 163.284L270.686 162.486L274.353 165.954L271.697 167.791L268.773 166.476C268.773 166.476 266.592 166.772 263.805 166.593C261.012 166.421 250.106 159.052 248.09 155.165C246.081 151.284 243.81 137.014 243.81 137.014L250.56 135.211L250.567 135.218Z" fill="#CE7A63"/>
<path d="M252.405 139.67L251.862 139.766C251.483 136.147 249.97 125.145 245.821 127.972C241.837 130.69 242.951 138.397 243.536 141.28L242.876 141.397L243.481 143.296L252.653 141.534L252.405 139.656V139.67Z" fill="#3F80FF"/>
<path opacity="0.2" d="M248.943 132.39L247.932 130.222L244.753 133.408C244.753 133.408 243.852 134.764 242.936 136.16C242.985 138.218 243.294 140.137 243.521 141.28L242.861 141.397L243.466 143.296L248.64 142.305C249.583 136.924 248.936 132.383 248.936 132.383L248.943 132.39Z" fill="black"/>
<path d="M249.26 104.75C249.26 104.75 260.2 107.11 254.386 112.312L249.583 108.108L249.26 104.757V104.75Z" fill="#263238"/>
<path d="M264.445 220.269L257.482 237.326L252.652 235.448L256.546 218.494L264.445 220.269Z" fill="#CE7A63"/>
<path opacity="0.2" d="M256.89 217.29L254.145 229.241L260.097 230.569L264.789 219.058L256.89 217.29Z" fill="black"/>
<path d="M258.597 236.927C259.484 238.936 260.083 240.601 263.709 242.748C264.5 243.202 263.165 245.294 261.191 244.406C257.929 242.934 258.783 242.906 255.982 241.695C253.636 240.663 251.895 240.03 249.975 239.239C249.927 239.218 249.879 239.191 249.838 239.156C249.838 239.156 249.831 239.156 249.824 239.149C249.487 238.895 249.418 238.413 249.673 238.076L252.494 234.216C252.617 234.037 252.851 233.975 253.051 234.058L257.62 236.026C258.039 236.198 258.383 236.514 258.59 236.92L258.597 236.927Z" fill="#263238"/>
<path d="M280.03 180.183C279.142 191.198 263.331 227.583 263.331 227.583L253.945 224.968C253.945 224.968 261.115 190.008 265.794 184.221C265.794 184.221 264.266 184.249 261.81 184.27C253.257 184.345 233.434 184.332 227.717 182.811C223.636 181.724 215.111 179.543 217.361 165.891L227.93 165.527L240.239 165.1C240.239 165.1 281.248 165.135 280.03 180.183Z" fill="#263238"/>
<path opacity="0.2" d="M261.81 184.27C253.257 184.345 233.434 184.332 227.717 182.811C223.636 181.724 215.111 179.543 217.361 165.892L227.93 165.527C236.249 166.511 247.12 168.155 254.53 171.341C258.136 172.889 260.64 175.683 261.377 178.972C261.59 179.935 261.748 182.254 261.81 184.27Z" fill="black"/>
<path d="M248.124 219.663L244.643 237.051L239.407 236.803L240.026 219.416L248.124 219.663Z" fill="#CE7A63"/>
<path opacity="0.2" d="M248.124 219.663L240.026 219.416L239.668 229.819L246.046 230.039L248.124 219.663Z" fill="black"/>
<path d="M245.441 237.464C246.294 239.548 246.852 241.262 250.484 243.56C251.269 244.069 249.845 246.168 247.87 245.191C244.595 243.587 245.462 243.594 242.654 242.266C240.281 241.145 238.526 240.443 236.606 239.576L236.455 239.5C236.111 239.232 236.049 238.737 236.317 238.393L239.31 234.533C239.448 234.361 239.682 234.299 239.881 234.395L244.464 236.535C244.891 236.707 245.241 237.037 245.441 237.457V237.464Z" fill="#263238"/>
<path d="M211.217 165.878C211.217 165.878 208.231 176.632 213.171 180.878C220.086 186.822 245.069 185.013 245.069 185.013C240.755 198.829 238.829 226.262 238.829 226.262H248.193C248.193 226.262 260.95 188.735 259.065 179.027C257.179 169.325 223.712 165.892 223.712 165.892L211.21 165.878H211.217Z" fill="#263238"/>
<path d="M253.113 226.056L263.737 228.732L265.904 224.184L254.234 220.875L253.113 226.056Z" fill="#3F80FF"/>
<path d="M237.9 227.562L248.737 228.12L249.858 223.352L237.9 222.794V227.562Z" fill="#3F80FF"/>
<path d="M242.868 150.988C245.592 142.876 249.067 136.704 249.452 129.789C240.033 116.193 221.613 124.229 221.613 124.229C210.467 145.14 211.21 165.878 211.21 165.878C236.538 165.878 237.989 165.444 237.989 165.444C237.989 165.444 238.086 161.86 242.868 150.988Z" fill="#3F80FF"/>
<path opacity="0.2" d="M234.363 123.83C234.769 126.218 235.615 130.546 236.62 131.172C238.017 132.011 240.074 130.835 240.074 130.835C240.074 130.835 241.746 133.099 243.528 131.592C244.519 130.642 245.297 129.486 245.799 128.206C245.276 129.094 244.622 129.892 243.852 130.573C242.063 132.073 240.391 129.823 240.391 129.823C240.391 129.823 238.326 130.986 236.937 130.16C236.035 129.617 234.976 126.19 234.363 123.837V123.83Z" fill="black"/>
<path d="M236.634 120.528L239.153 121.388L237.177 123.108L236.634 120.528Z" fill="#3F80FF"/>
<path opacity="0.2" d="M236.634 120.528L239.153 121.388L237.177 123.108L236.634 120.528Z" fill="black"/>
<path d="M244.615 123.115L245.31 125.145C245.31 125.145 241.719 128.901 240.687 128.943C239.654 128.984 236.627 121.876 236.627 121.876C240.625 120.067 240.253 118.078 240.253 118.078L244.608 123.115H244.615Z" fill="#CE7A63"/>
<path opacity="0.2" d="M243.308 127.099C244.368 126.128 245.31 125.145 245.31 125.145L244.615 123.115L240.728 118.622C240.232 120.576 239.737 124.67 243.308 127.099Z" fill="black"/>
<path d="M246.666 126.603C246.019 128.117 245.056 129.479 243.852 130.601C242.063 132.101 240.391 129.851 240.391 129.851C240.391 129.851 238.333 131.014 236.943 130.188C235.554 129.362 233.806 121.746 233.806 121.746L236.634 120.528L240.528 128.757L245.778 124.415L246.666 126.61V126.603Z" fill="#3F80FF"/>
<path d="M240.109 111.136C240.109 109.918 240.418 108.714 241.024 107.654C242.93 104.31 247.182 103.14 250.526 105.046C255.514 107.743 255.652 115.601 254.173 120.204C253.773 121.546 252.968 122.729 251.874 123.603C248.902 125.977 244.567 125.495 242.193 122.523C239.737 119.509 240.06 116.42 240.122 111.115L240.109 111.129V111.136Z" fill="#CE7A63"/>
<path d="M249.411 114.425C249.7 114.445 249.872 114.844 249.803 115.264C249.735 115.684 249.473 115.973 249.191 115.939C248.909 115.911 248.73 115.519 248.799 115.099C248.861 114.672 249.122 114.397 249.411 114.425Z" fill="#263238"/>
<path d="M254.179 115.319C254.469 115.347 254.647 115.725 254.579 116.159C254.51 116.585 254.248 116.867 253.959 116.833C253.67 116.806 253.505 116.42 253.567 115.993C253.636 115.574 253.89 115.285 254.179 115.319Z" fill="#263238"/>
<path d="M248.131 113.42C248.627 113.035 249.288 112.911 249.886 113.09C249.886 113.09 249.886 113.09 249.893 113.09C250.024 113.131 250.162 113.062 250.203 112.938C250.244 112.808 250.175 112.67 250.051 112.622C249.274 112.381 248.427 112.546 247.787 113.062C247.684 113.152 247.67 113.303 247.753 113.406C247.787 113.434 247.822 113.448 247.863 113.461C247.952 113.503 248.049 113.489 248.118 113.42H248.131Z" fill="#263238"/>
<path d="M255.384 114.762C255.501 114.686 255.535 114.535 255.466 114.418C255.074 113.702 254.358 113.22 253.546 113.11C253.436 113.11 253.347 113.193 253.319 113.296C253.285 113.434 253.374 113.571 253.505 113.599C254.159 113.702 254.73 114.101 255.04 114.686C255.081 114.755 255.157 114.803 255.239 114.81C255.294 114.81 255.343 114.783 255.377 114.748L255.384 114.762Z" fill="#263238"/>
<path d="M251.351 120.012C252.012 120.315 252.769 120.315 253.43 120.012C252.79 118.732 252.329 117.37 252.04 115.973L251.345 120.019L251.351 120.012Z" fill="#BA4D3C"/>
<path d="M239.778 114.569C237.721 107.062 241.051 105.108 244.657 103.766C248.262 102.425 250.257 103.711 251.413 104.977C251.771 105.37 252.487 106.574 250.175 106.732C248.771 106.787 247.368 106.677 245.991 106.409C245.434 106.305 244.863 106.533 244.526 106.987C243.728 108.026 242.434 109.98 242.448 111.693C242.551 113.007 242.063 114.301 241.113 115.216L239.771 114.569H239.778Z" fill="#263238"/>
<path d="M237.178 152.261H237.184C237.687 152.261 238.093 152.674 238.086 153.176C238.079 153.679 237.673 154.085 237.171 154.078C236.668 154.078 236.262 153.665 236.269 153.163C236.269 152.66 236.682 152.261 237.178 152.261Z" fill="#3F80FF"/>
<path d="M235.196 161.859H235.21C235.712 161.859 236.118 162.272 236.111 162.775C236.111 163.277 235.698 163.683 235.196 163.676C234.694 163.676 234.288 163.263 234.294 162.761C234.294 162.266 234.7 161.859 235.196 161.859Z" fill="#3F80FF"/>
<path d="M239.833 112.856C241.285 113.124 241.987 115.181 242.001 116.53C242.014 117.982 240.969 119.069 239.682 118.202C238.705 117.528 238.017 116.516 237.762 115.353C237.48 113.922 238.382 112.587 239.833 112.856Z" fill="#CE7A63"/>
<path d="M246.494 119.936C246.494 119.936 247.787 120.204 251.069 121.718C250.23 122.53 249.143 123.005 247.464 122.213C245.792 121.422 246.494 119.936 246.494 119.936Z" fill="#263238"/>
<path d="M248.606 121.794C247.801 121.408 247.127 121.326 246.556 121.429C246.714 121.711 247.003 121.986 247.471 122.213C248.276 122.592 248.944 122.681 249.522 122.578C249.363 122.296 249.081 122.021 248.613 121.801L248.606 121.794Z" fill="#A02724"/>
<path d="M246.659 119.97C246.659 120.225 246.652 120.48 246.948 120.7C247.608 121.064 249.452 121.677 249.969 121.794C250.292 121.883 250.595 121.897 250.932 121.649C248.4 120.486 247.086 120.087 246.659 119.97Z" fill="white"/>
<path d="M251.923 170.453L264.377 170.52L264.388 168.518L251.934 168.451L251.923 170.453Z" fill="#263238"/>
<path d="M252.954 170.454L237.108 170.368C236.592 170.365 236.175 169.943 236.178 169.427L236.183 168.368L252.965 168.459L252.954 170.461L252.954 170.454Z" fill="#263238"/>
<path opacity="0.3" d="M252.954 170.454L237.108 170.368C236.592 170.365 236.175 169.943 236.178 169.427L236.183 168.368L252.965 168.459L252.954 170.461L252.954 170.454Z" fill="white"/>
<path d="M248.437 169.792L250.44 169.803L250.444 169.094L248.441 169.083L248.437 169.792Z" fill="#263238"/>
<path d="M245.313 169.781L247.316 169.792L247.32 169.083L245.317 169.072L245.313 169.781Z" fill="#263238"/>
<path d="M255.328 168.486L254 168.479L259.299 150.431L260.627 150.438L255.328 168.486Z" fill="#263238"/>
<path opacity="0.3" d="M255.328 168.486L254 168.479L259.299 150.431L260.627 150.438L255.328 168.486Z" fill="white"/>
<path d="M254.84 168.485L278.213 168.609L283.511 150.561L260.138 150.438L254.84 168.485Z" fill="#263238"/>
<path opacity="0.6" d="M254.84 168.485L278.213 168.609L283.511 150.561L260.138 150.438L254.84 168.485Z" fill="white"/>
<path d="M253.698 168.479C253.952 168.479 277.773 168.609 278.028 168.609C278.44 168.609 278.771 169.063 278.764 169.614C278.764 170.164 278.427 170.612 278.014 170.612C277.601 170.612 254.09 170.481 253.684 170.481C253.271 170.481 252.941 170.027 252.948 169.476C252.948 168.926 253.285 168.479 253.698 168.479Z" fill="#263238"/>
<path opacity="0.5" d="M253.698 168.479C253.952 168.479 277.773 168.609 278.028 168.609C278.44 168.609 278.771 169.063 278.764 169.614C278.764 170.164 278.427 170.612 278.014 170.612C277.601 170.612 254.09 170.481 253.684 170.481C253.271 170.481 252.941 170.027 252.948 169.476C252.948 168.926 253.285 168.479 253.698 168.479Z" fill="white"/>
<path d="M252.948 169.476C252.948 170.027 253.278 170.481 253.684 170.481C254.097 170.481 254.427 170.041 254.434 169.483C254.434 168.933 254.104 168.479 253.698 168.479C253.285 168.479 252.955 168.919 252.948 169.476Z" fill="#263238"/>
<path opacity="0.3" d="M252.948 169.476C252.948 170.027 253.278 170.481 253.684 170.481C254.097 170.481 254.427 170.041 254.434 169.483C254.434 168.933 254.104 168.479 253.698 168.479C253.285 168.479 252.955 168.919 252.948 169.476Z" fill="white"/>
<path opacity="0.2" d="M229.973 151.773C228.852 150.224 227.662 144.52 226.829 139.8L227.909 139.594L227.655 137.64L227.09 137.743C226.705 134.048 225.178 122.963 221.035 125.365C219.831 127.711 218.779 130.057 217.85 132.383C217.705 135.094 218.139 137.826 218.442 139.312L217.76 139.436L218.393 141.41L219.852 141.128C220.733 145.683 221.999 151.442 223.189 153.734C224.744 156.733 231.425 161.743 235.932 164.185C240.975 163.291 242.138 162.658 242.138 162.658C242.138 162.658 241.973 162.458 241.794 162.038L240.982 162.155C240.982 162.155 231.989 154.518 229.987 151.766L229.973 151.773Z" fill="black"/>
<path d="M228.742 133.085C228.742 133.085 230.214 149.172 232.086 152.013C233.957 154.862 242.579 162.905 242.579 162.905L248.29 162.348L251.923 166.125L249.081 167.901L246.108 166.394C246.108 166.394 243.831 166.593 240.948 166.277C238.065 165.96 227.104 157.786 225.205 153.658C223.306 149.529 221.648 134.619 221.648 134.619L228.742 133.078V133.085Z" fill="#CE7A63"/>
<path d="M230.022 136.56L229.457 136.663C229.065 132.906 227.49 121.477 223.182 124.415C219.047 127.236 220.203 135.245 220.808 138.238L220.127 138.362L220.753 140.337L230.276 138.514L230.022 136.56Z" fill="#3F80FF"/>
<path d="M279.417 127.931H265.904C263.64 127.931 261.81 129.761 261.81 132.025V140.027C261.81 142.291 263.64 144.121 265.904 144.121H269.771V147.231C269.771 148.002 270.707 148.394 271.25 147.844L274.979 144.114H279.417C281.681 144.114 283.511 142.284 283.511 140.02V132.018C283.511 129.755 281.681 127.924 279.417 127.924V127.931Z" fill="#3F80FF"/>
<path d="M276.149 131.75H269.661C269.599 131.213 269.564 130.945 269.502 130.408H265.931C266.007 130.718 266.048 130.869 266.124 131.179H268.697C268.732 131.406 268.753 131.523 268.787 131.757C268.959 132.892 269.048 133.463 269.22 134.598C269.269 134.908 269.289 135.059 269.337 135.369C269.509 136.504 269.599 137.076 269.771 138.211C269.86 138.816 269.908 139.119 270.005 139.725H277.126C277.195 139.415 277.229 139.264 277.305 138.954H270.528C270.493 138.651 270.473 138.507 270.438 138.204H277.807C278.09 137.069 278.227 136.498 278.509 135.362C278.585 135.053 278.626 134.901 278.702 134.592C278.984 133.456 279.122 132.885 279.404 131.75H276.163H276.149ZM269.757 132.521H272.055C272.083 133.346 272.09 133.766 272.117 134.592H270.005C269.908 133.766 269.853 133.346 269.757 132.521ZM270.342 137.433C270.246 136.608 270.191 136.188 270.094 135.362H272.138C272.165 136.188 272.172 136.608 272.2 137.433H270.342ZM274.752 137.433H272.895C272.895 136.608 272.895 136.188 272.895 135.362H274.938C274.862 136.188 274.821 136.608 274.746 137.433H274.752ZM275.014 134.592H272.902C272.902 133.766 272.902 133.346 272.902 132.521H275.2C275.124 133.346 275.083 133.766 275.007 134.592H275.014ZM277.305 137.433H275.447C275.551 136.608 275.606 136.188 275.709 135.362H277.752C277.573 136.188 277.484 136.608 277.312 137.433H277.305ZM277.911 134.592H275.798C275.901 133.766 275.957 133.346 276.06 132.521H278.358C278.179 133.346 278.089 133.766 277.917 134.592H277.911Z" fill="white"/>
<path d="M270.438 140.433C269.936 140.433 269.53 140.839 269.53 141.342C269.53 141.844 269.936 142.25 270.438 142.25C270.941 142.25 271.347 141.844 271.347 141.342C271.347 140.839 270.941 140.433 270.438 140.433Z" fill="white"/>
<path d="M276.92 142.257C277.422 142.257 277.828 141.85 277.828 141.349C277.828 140.847 277.422 140.44 276.92 140.44C276.418 140.44 276.012 140.847 276.012 141.349C276.012 141.85 276.418 142.257 276.92 142.257Z" fill="white"/>
<path d="M90.8406 191.694L89.1962 191.604L89.5884 184.146C89.8567 179.068 94.1984 174.94 99.2763 174.94C101.753 174.94 104.031 175.903 105.696 177.657C107.361 179.412 108.207 181.751 108.083 184.228L107.691 191.687L106.047 191.598L106.439 184.139C106.542 182.116 105.861 180.217 104.506 178.793C103.157 177.368 101.299 176.584 99.2831 176.584C95.0722 176.584 91.4599 180.011 91.2397 184.228L90.8475 191.687L90.8406 191.694Z" fill="#263238"/>
<path d="M126.118 188.377H77.4922L75.8409 246.071L83.0518 244.427L90.2626 246.071H127.769L126.118 188.377Z" fill="#3F80FF"/>
<path opacity="0.6" d="M126.118 188.377H77.4922L75.8409 246.071L83.0518 244.427L90.2626 246.071H127.769L126.118 188.377Z" fill="white"/>
<path d="M90.2626 246.071L83.0518 244.427L75.8409 246.071L77.4922 188.377H88.6182L90.2626 246.071Z" fill="#3F80FF"/>
<path opacity="0.3" d="M90.2626 246.071L83.0518 244.427L75.8409 246.071L77.4922 188.377H88.6182L90.2626 246.071Z" fill="white"/>
<path d="M115.824 191.694L115.432 184.235C115.212 180.024 111.606 176.591 107.388 176.591C105.372 176.591 103.515 177.375 102.166 178.8C100.811 180.224 100.129 182.123 100.233 184.146L100.625 191.604L98.9804 191.694L98.5882 184.235C98.4574 181.758 99.3038 179.419 100.976 177.664C102.641 175.91 104.918 174.946 107.395 174.946C112.473 174.946 116.815 179.075 117.083 184.153L117.475 191.611L115.831 191.701L115.824 191.694Z" fill="#263238"/>
<g opacity="0.2">
<path d="M115.824 191.694L115.432 184.235C115.212 180.024 111.606 176.591 107.388 176.591C105.372 176.591 103.515 177.375 102.166 178.8C100.811 180.224 100.129 182.123 100.233 184.146L100.625 191.604L98.9804 191.694L98.5882 184.235C98.4574 181.758 99.3038 179.419 100.976 177.664C102.641 175.91 104.918 174.946 107.395 174.946C112.473 174.946 116.815 179.075 117.083 184.153L117.475 191.611L115.831 191.701L115.824 191.694Z" fill="white"/>
</g>
<path d="M96.9437 209.453H119.547C120.056 209.453 120.469 209.866 120.469 210.375V214.021C120.469 214.531 120.056 214.943 119.547 214.943H96.9437C96.4346 214.943 96.0217 214.531 96.0217 214.021V210.375C96.0217 209.866 96.4346 209.453 96.9437 209.453Z" fill="white"/>
<path d="M68.4924 209.625L67.3915 209.57L67.6529 204.567C67.8318 201.168 70.7423 198.396 74.1482 198.396C75.8065 198.396 77.334 199.042 78.4486 200.219C79.5633 201.395 80.1344 202.964 80.0449 204.622L79.7835 209.625L78.6826 209.57L78.944 204.567C79.0128 203.212 78.5518 201.939 77.6505 200.983C76.7422 200.026 75.5037 199.503 74.1482 199.503C71.3272 199.503 68.9052 201.801 68.7607 204.629L68.4993 209.632L68.4924 209.625Z" fill="#263238"/>
<path d="M92.141 207.395H59.5407L58.4329 246.071L63.27 244.97L68.1071 246.071H93.2488L92.141 207.395Z" fill="#3F80FF"/>
<path d="M68.1071 246.071L63.27 244.97L58.4329 246.071L59.5407 207.395H66.9993L68.1071 246.071Z" fill="#3F80FF"/>
<path opacity="0.2" d="M68.1071 246.071L63.27 244.97L58.4329 246.071L59.5407 207.395H66.9993L68.1071 246.071Z" fill="black"/>
<path d="M85.2398 209.625L84.9783 204.623C84.8338 201.795 82.4118 199.496 79.5908 199.496C78.2353 199.496 76.9968 200.019 76.0886 200.976C75.1803 201.932 74.7193 203.205 74.795 204.561L75.0565 209.563L73.9556 209.618L73.6941 204.616C73.6047 202.951 74.1758 201.389 75.2904 200.212C76.4051 199.035 77.9326 198.389 79.5908 198.389C82.9967 198.389 85.9072 201.155 86.0861 204.561L86.3476 209.563L85.2467 209.618L85.2398 209.625Z" fill="#263238"/>
<g opacity="0.2">
<path d="M85.2398 209.625L84.9783 204.623C84.8338 201.795 82.4118 199.496 79.5908 199.496C78.2353 199.496 76.9968 200.019 76.0886 200.976C75.1803 201.932 74.7193 203.205 74.795 204.561L75.0565 209.563L73.9556 209.618L73.6941 204.616C73.6047 202.951 74.1758 201.389 75.2904 200.212C76.4051 199.035 77.9326 198.389 79.5908 198.389C82.9967 198.389 85.9072 201.155 86.0861 204.561L86.3476 209.563L85.2467 209.618L85.2398 209.625Z" fill="white"/>
</g>
<path d="M87.4278 221.528H72.8822C72.373 221.528 71.9602 221.941 71.9602 222.45V224.287C71.9602 224.797 72.373 225.209 72.8822 225.209H87.4278C87.937 225.209 88.3498 224.797 88.3498 224.287V222.45C88.3498 221.941 87.937 221.528 87.4278 221.528Z" fill="white"/>
<path d="M118.679 242.301L113.443 241.75L113.705 229.523L118.941 230.067L118.679 242.301Z" fill="#B55B52"/>
<path d="M162.977 224.748L158.291 227.143L151.245 217.042L155.938 214.654L162.977 224.748Z" fill="#B55B52"/>
<path d="M157.314 226.489L162.131 223.056C162.303 222.932 162.536 222.952 162.681 223.104L165.949 226.523C166.286 226.881 166.218 227.494 165.805 227.776C164.105 228.945 163.225 229.42 161.105 230.934C159.805 231.863 157.995 233.356 156.199 234.643C154.438 235.895 153.034 234.216 153.667 233.521C156.509 230.404 156.33 229.028 156.784 227.273C156.867 226.957 157.06 226.682 157.314 226.496V226.489Z" fill="#263238"/>
<path d="M112.996 241.09L118.879 241.702C119.092 241.723 119.251 241.888 119.257 242.101L119.443 246.828C119.464 247.317 118.996 247.73 118.508 247.674C116.457 247.427 115.487 247.2 112.9 246.931C111.31 246.766 106.721 246.45 104.519 246.223C102.372 245.996 102.434 243.808 103.37 243.704C107.567 243.25 110.588 242.335 112.088 241.317C112.356 241.131 112.687 241.055 112.996 241.09Z" fill="#263238"/>
<g opacity="0.2">
<path d="M113.705 229.523L113.567 235.826L118.803 236.377L118.941 230.074L113.705 229.523Z" fill="black"/>
<path d="M155.938 214.654L151.245 217.049L154.878 222.251L159.571 219.856L155.938 214.654Z" fill="black"/>
</g>
<path d="M116.209 123.837C116.209 123.837 110.781 164.24 110.615 180.3C110.45 197.006 112.57 234.498 112.57 234.498L119.65 235.241C119.65 235.241 122.519 198.361 123.668 181.985C124.92 164.137 131.856 124.326 131.856 124.326L116.202 123.83L116.209 123.837Z" fill="#263238"/>
<path d="M120.241 235.558L111.93 234.691L111.599 231.98L120.936 232.627L120.241 235.558Z" fill="#3F80FF"/>
<path opacity="0.6" d="M125.113 134.213C119.533 144.61 123.118 164.006 124.748 171.231C126.042 160.497 128.058 147.39 129.613 137.77C128.987 132.28 127.686 129.424 125.113 134.22V134.213Z" fill="black"/>
<path d="M121.851 124.016C121.851 124.016 125.361 166.311 128.594 179.955C132.427 196.152 153.193 221.741 153.193 221.741L159.592 218.48C159.592 218.48 145.521 190.049 142.473 181.483C135.957 163.201 142.872 136.477 137.581 124.512L121.851 124.016Z" fill="#263238"/>
<path d="M160.5 218.446L152.56 222.485L150.447 220.42L159.571 215.246L160.5 218.446Z" fill="#3F80FF"/>
<path d="M155.463 228.65C155.463 228.65 155.422 228.65 155.401 228.65C155.167 228.622 154.982 228.478 154.851 228.23C154.755 228.044 154.796 227.893 154.851 227.803C155.188 227.225 157.087 227.136 157.308 227.122C157.363 227.122 157.404 227.15 157.425 227.191C157.445 227.239 157.438 227.287 157.404 227.329C156.957 227.838 156.124 228.677 155.47 228.657L155.463 228.65ZM157.005 227.384C156.248 227.439 155.236 227.618 155.057 227.92C155.037 227.962 155.016 228.017 155.064 228.106C155.154 228.278 155.271 228.375 155.429 228.395C155.787 228.436 156.365 228.065 157.005 227.384Z" fill="#3F80FF"/>
<path d="M157.129 227.37C156.475 227.349 155.284 226.998 155.064 226.503C155.016 226.4 154.975 226.186 155.202 225.973C155.346 225.835 155.525 225.78 155.725 225.801C156.489 225.884 157.37 227.108 157.411 227.164C157.438 227.198 157.438 227.246 157.425 227.287C157.404 227.329 157.37 227.356 157.321 227.363C157.266 227.363 157.198 227.37 157.129 227.363V227.37ZM155.663 226.049C155.553 226.049 155.456 226.083 155.367 226.159C155.25 226.269 155.264 226.345 155.284 226.4C155.436 226.737 156.42 227.081 157.06 227.115C156.743 226.723 156.152 226.097 155.697 226.049C155.684 226.049 155.67 226.049 155.656 226.049H155.663Z" fill="#3F80FF"/>
<path d="M110.939 241.806C110.416 241.751 109.948 241.62 109.7 241.351C109.542 241.179 109.494 240.966 109.542 240.725C109.57 240.581 109.652 240.471 109.79 240.415C110.471 240.133 112.446 241.413 112.666 241.565C112.708 241.592 112.728 241.647 112.721 241.702C112.708 241.751 112.666 241.792 112.611 241.799C112.157 241.84 111.517 241.874 110.946 241.812L110.939 241.806ZM110.12 240.622C110.024 240.615 109.941 240.622 109.886 240.643C109.831 240.663 109.804 240.705 109.79 240.766C109.755 240.932 109.79 241.069 109.893 241.179C110.182 241.496 111.035 241.64 112.219 241.565C111.538 241.145 110.622 240.67 110.127 240.622H110.12Z" fill="#3F80FF"/>
<path d="M112.577 241.785C112.577 241.785 112.542 241.778 112.528 241.771C111.937 241.427 110.815 240.168 110.973 239.583C111.008 239.445 111.131 239.28 111.476 239.28C111.73 239.28 111.957 239.376 112.143 239.569C112.742 240.189 112.721 241.606 112.714 241.668C112.714 241.709 112.687 241.751 112.652 241.771C112.632 241.785 112.604 241.792 112.577 241.785ZM111.551 239.535C111.551 239.535 111.503 239.535 111.476 239.535C111.248 239.535 111.221 239.624 111.214 239.652C111.118 240.003 111.861 240.98 112.46 241.427C112.439 241.007 112.356 240.147 111.964 239.741C111.847 239.617 111.71 239.549 111.551 239.535Z" fill="#3F80FF"/>
<path d="M113.952 102.349C111.964 104.977 109.879 107.324 107.43 109.574C106.205 110.695 104.905 111.769 103.315 112.718C102.517 113.186 101.643 113.647 100.528 113.957C99.9711 114.108 99.3381 114.225 98.6087 114.218C98.2509 114.218 97.8588 114.17 97.4666 114.087C97.267 114.039 97.0675 113.984 96.8748 113.915C96.6684 113.833 96.5239 113.785 96.2212 113.62C95.6914 113.331 95.2579 112.925 94.9758 112.553C94.6868 112.181 94.4873 111.81 94.3497 111.487C94.0675 110.826 93.9575 110.269 93.8749 109.753C93.7304 108.721 93.7373 107.833 93.7717 106.966C93.8542 105.246 94.1295 103.65 94.4322 102.067C95.0652 98.9225 95.9459 95.9226 97.0193 92.9364L99.8679 93.6726C99.4551 96.6657 99.0835 99.7207 98.8564 102.679C98.7395 104.159 98.6844 105.631 98.7464 106.993C98.7739 107.668 98.8496 108.321 98.9734 108.817C99.0353 109.058 99.111 109.257 99.1523 109.298C99.1867 109.367 99.1592 109.154 98.7464 108.893C98.6087 108.824 98.65 108.837 98.6225 108.824C98.6087 108.817 98.595 108.81 98.5881 108.803C98.5743 108.789 98.5675 108.789 98.5881 108.776C98.6294 108.762 98.7601 108.734 98.9459 108.665C99.3037 108.528 99.8129 108.26 100.315 107.915C101.333 107.221 102.393 106.285 103.418 105.301C104.443 104.31 105.427 103.223 106.404 102.122C107.382 101.035 108.345 99.8514 109.226 98.7643L113.959 102.356L113.952 102.349Z" fill="#B55B52"/>
<path d="M112.803 94.7804C110.643 94.1887 104.251 102.349 104.251 102.349L110.361 109.168C110.361 109.168 117.53 102.7 117.255 99.8033C116.973 96.7827 115.948 95.6543 112.797 94.7873L112.803 94.7804Z" fill="#3F80FF"/>
<path d="M99.9367 92.9089L99.6959 88.6223L95.5607 92.0282C95.5607 92.0282 96.1868 95.3515 98.2716 96.0121L99.5583 94.2025C99.8266 93.8241 99.9574 93.3699 99.9298 92.9158L99.9367 92.9089Z" fill="#B55B52"/>
<path d="M97.0056 85.0994L93.7029 88.1338L95.5606 92.0213L99.6959 88.6154L97.0056 85.0994Z" fill="#B55B52"/>
<path d="M95.3267 93.3905L94.3772 93.0465C93.8405 92.8538 93.524 92.2965 93.6272 91.7323L95.079 84.0123L97.6868 84.9618L96.8886 92.4204C96.806 93.1704 96.0423 93.652 95.3336 93.3905H95.3267Z" fill="#263238"/>
<path d="M102.2 83.5788C102.366 83.1316 102.517 82.6912 102.668 82.2508C102.262 81.4871 101.45 80.6683 100.363 79.8839C100.019 80.7302 99.6752 81.6178 99.3381 82.5329C99.0009 83.4481 98.6982 84.3494 98.4161 85.2233C99.7509 85.3196 100.9 85.2164 101.705 84.893C101.87 84.4595 102.035 84.026 102.2 83.5788Z" fill="#263238"/>
<path d="M100.473 82.9527C100.928 81.7004 101.23 80.5238 101.347 79.6362L92.7946 76.5193L90.469 82.9114L99.0285 86.0283C99.5032 85.2714 100.026 84.1912 100.48 82.9527H100.473Z" fill="#3F80FF"/>
<path opacity="0.6" d="M100.473 82.9527C100.928 81.7004 101.23 80.5238 101.347 79.6362L92.7946 76.5193L90.469 82.9114L99.0285 86.0283C99.5032 85.2714 100.026 84.1912 100.48 82.9527H100.473Z" fill="white"/>
<path d="M95.0171 76.7395C94.6249 76.595 85.4049 67.086 84.3521 66.7007C83.2306 66.2878 80.8224 70.0653 78.9784 75.1294C77.1344 80.1935 76.5495 84.6246 77.6779 85.0375C78.7376 85.4228 91.907 84.0673 92.2992 84.2118C92.7602 84.3769 93.7373 82.8426 94.4873 80.7784C95.2373 78.7142 95.4781 76.9115 95.0171 76.7395Z" fill="#3F80FF"/>
<path opacity="0.4" d="M95.0171 76.7395C94.6249 76.595 85.4049 67.086 84.3521 66.7007C83.2306 66.2878 80.8224 70.0653 78.9784 75.1294C77.1344 80.1935 76.5495 84.6246 77.6779 85.0375C78.7376 85.4228 91.907 84.0673 92.2992 84.2118C92.7602 84.3769 93.7373 82.8426 94.4873 80.7784C95.2373 78.7142 95.4781 76.9115 95.0171 76.7395Z" fill="white"/>
<path d="M83.0531 76.6092C81.2091 81.6733 78.8009 85.4439 77.6793 85.0379C76.5578 84.6319 77.1358 80.194 78.9798 75.1298C80.8238 70.0657 83.232 66.2951 84.3535 66.7011C85.4751 67.1139 84.8971 71.545 83.0531 76.6092Z" fill="#3F80FF"/>
<path d="M80.3339 75.6181C80.2101 75.9553 80.0931 76.2857 79.983 76.616C80.4096 77.2353 81.2148 77.9166 82.2746 78.5979C82.543 77.9648 82.8045 77.3042 83.0522 76.6091C83.3 75.9209 83.5271 75.2465 83.7335 74.5859C82.4879 74.4276 81.4281 74.4345 80.7055 74.6341C80.5817 74.9575 80.4509 75.2878 80.3339 75.6181Z" fill="#263238"/>
<path opacity="0.7" d="M80.3339 75.6181C80.2101 75.9553 80.0931 76.2857 79.983 76.616C80.4096 77.2353 81.2148 77.9166 82.2746 78.5979C82.543 77.9648 82.8045 77.3042 83.0522 76.6091C83.3 75.9209 83.5271 75.2465 83.7335 74.5859C82.4879 74.4276 81.4281 74.4345 80.7055 74.6341C80.5817 74.9575 80.4509 75.2878 80.3339 75.6181Z" fill="white"/>
<path opacity="0.2" d="M111.001 99.5762C111.317 104.152 110.244 106.877 109.494 108.191L110.361 109.161C110.361 109.161 114.407 105.514 116.299 102.473C114.166 99.3147 110.664 94.7735 110.994 99.5831L111.001 99.5762Z" fill="black"/>
<path d="M135.055 73.5537C137.924 73.5537 140.25 71.2279 140.25 68.3589C140.25 65.4898 137.924 63.164 135.055 63.164C132.186 63.164 129.86 65.4898 129.86 68.3589C129.86 71.2279 132.186 73.5537 135.055 73.5537Z" fill="#263238"/>
<path d="M134.498 70.7258C134.498 72.5285 133.039 73.9872 131.237 73.9872C129.434 73.9872 127.975 72.5285 127.975 70.7258C127.975 68.9231 129.434 67.4644 131.237 67.4644C133.039 67.4644 134.498 68.9231 134.498 70.7258Z" fill="#3F80FF"/>
<path d="M120.854 66.6731C120.854 66.6731 113.953 66.1089 113.959 77.9436C113.966 86.0489 117.895 89.7989 122.718 87.0741C122.718 87.0741 133.356 86.2003 134.581 76.4642C135.805 66.7282 128.285 63.1021 120.847 66.6663L120.854 66.6731Z" fill="#263238"/>
<path d="M111.4 95.0901C111.4 95.0901 108.964 96.1497 116.216 126.603C124.679 125.991 133.425 125.351 137.546 125.055C136.555 116.399 136.156 111.053 139.012 92.9365C139.012 92.9365 134.471 92.2897 129.867 92.3998C126.269 92.4892 123.317 92.5855 120.186 93.1016C116.051 93.7828 111.407 95.0901 111.407 95.0901H111.4Z" fill="#3F80FF"/>
<path d="M128.106 81.5627C127.721 84.7209 127.528 90.4731 129.861 92.3997C129.861 92.3997 129.241 95.6198 123.448 96.0464C117.083 96.5074 120.173 93.1084 120.173 93.1084C123.585 92.0282 123.31 89.4548 122.526 87.0741L128.099 81.5627H128.106Z" fill="#B55B52"/>
<path opacity="0.2" d="M125.835 83.8127L122.533 87.0673C122.718 87.6315 122.877 88.2026 122.959 88.7668C124.273 88.4778 125.994 86.8884 126.028 85.4916C126.049 84.7967 125.973 84.1293 125.835 83.8127Z" fill="black"/>
<path d="M131.67 76.306C130.48 81.3907 130.081 83.5719 127.033 85.7668C122.45 89.0695 116.464 86.4893 116.113 81.1499C115.796 76.3404 117.799 68.8336 123.186 67.6433C128.491 66.4736 132.867 71.2212 131.677 76.306H131.67Z" fill="#B55B52"/>
<path d="M122.897 76.2717C122.829 76.6915 122.547 76.9943 122.271 76.9461C121.996 76.898 121.831 76.5195 121.907 76.1066C121.975 75.6868 122.257 75.384 122.533 75.4322C122.808 75.4803 122.973 75.8588 122.897 76.2717Z" fill="#263238"/>
<path d="M118.17 75.4598C118.102 75.8796 117.82 76.1824 117.544 76.1342C117.269 76.086 117.104 75.7075 117.18 75.2946C117.248 74.8748 117.53 74.572 117.806 74.6202C118.081 74.6684 118.246 75.0469 118.17 75.4598Z" fill="#263238"/>
<path d="M117.923 74.6616L116.966 74.2005C116.966 74.2005 117.345 75.0745 117.923 74.6616Z" fill="#263238"/>
<path d="M119.836 76.4642C119.836 76.4642 118.817 78.1434 117.888 78.8797C118.356 79.4922 119.333 79.4165 119.333 79.4165L119.836 76.4642Z" fill="#A02724"/>
<path d="M132.262 81.2531C131.725 82.1958 130.803 82.8013 129.943 83.0215C128.643 83.3517 128.023 82.1889 128.409 80.9779C128.753 79.8908 129.847 78.4046 131.14 78.611C132.413 78.8105 132.881 80.1798 132.262 81.26V81.2531Z" fill="#B55B52"/>
<path d="M124.962 75.6321C124.859 75.6321 124.762 75.5633 124.728 75.4531C124.391 74.3521 122.98 73.8772 122.966 73.8772C122.835 73.8359 122.767 73.6914 122.808 73.5607C122.849 73.4299 122.994 73.3611 123.124 73.4024C123.193 73.423 124.797 73.9598 125.21 75.3086C125.251 75.4394 125.175 75.577 125.044 75.6183C125.017 75.6252 124.989 75.6321 124.969 75.6321H124.962Z" fill="#263238"/>
<path d="M117.118 73.0309C117.035 73.0309 116.952 72.9828 116.904 72.9071C116.835 72.7901 116.877 72.6318 116.994 72.5699C118.191 71.8817 119.223 72.3978 119.265 72.4185C119.389 72.4804 119.437 72.6318 119.375 72.7557C119.313 72.8795 119.162 72.9277 119.038 72.8658C119.038 72.8658 118.198 72.4598 117.242 73.0034C117.2 73.0241 117.159 73.0378 117.111 73.0378L117.118 73.0309Z" fill="#263238"/>
<path d="M122.65 75.4735L121.693 75.0125C121.693 75.0125 122.072 75.8864 122.65 75.4735Z" fill="#263238"/>
<path d="M119.746 80.7165C119.746 80.7165 121.129 80.3243 125.058 80.1385C124.652 81.3426 123.84 82.3472 121.831 82.4229C119.815 82.4985 119.746 80.7165 119.746 80.7165Z" fill="#263238"/>
<path d="M122.719 81.4458C121.748 81.4802 121.053 81.7417 120.551 82.1202C120.847 82.3129 121.26 82.4367 121.824 82.4161C122.794 82.3817 123.483 82.1271 123.985 81.7417C123.689 81.549 123.276 81.4251 122.719 81.4458Z" fill="#A02724"/>
<path d="M119.925 80.6683C120.049 80.916 120.173 81.1637 120.572 81.2256C121.39 81.2394 123.475 80.9091 124.033 80.7646C124.39 80.6889 124.693 80.5513 124.893 80.1454C121.865 80.2968 120.4 80.572 119.925 80.6752V80.6683Z" fill="white"/>
<path d="M117.001 72.5698C117.001 72.5698 119.643 71.4964 120.95 69.4804C120.95 69.4804 120.978 73.1409 122.443 72.8588C123.916 72.5767 121.693 69.4735 121.693 69.4735C121.693 69.4735 125.14 71.001 126.31 73.9872C127.48 76.9803 128.828 80.2279 131.477 79.4229C134.133 78.611 133.542 70.1478 129.633 68.0355L124.101 67.0447L122.478 67.2786C121.645 67.4025 120.847 67.6915 120.131 68.1318C119.044 68.7992 118.191 69.79 117.689 70.9597L117.001 72.5698Z" fill="#263238"/>
<path d="M129.847 73.0102C129.593 72.4735 128.375 72.5147 127.122 73.1066C125.87 73.6984 125.822 74.2558 126.076 74.7926C126.331 75.3294 126.792 75.6459 128.044 75.0541C129.297 74.4623 130.102 73.547 129.847 73.0102ZM126.895 74.4072C126.716 74.0218 126.751 73.6227 127.645 73.2029C128.54 72.7831 129.414 72.7487 129.593 73.1341C129.772 73.5195 129.194 74.1732 128.306 74.593C127.411 75.0128 127.081 74.7926 126.902 74.4072H126.895Z" fill="#3F80FF"/>
<path opacity="0.2" d="M136.652 99.9959L135.035 98.606L133.837 99.1427C133.837 99.1427 132.867 105.094 136.886 111.149C136.989 108.858 137.209 106.278 137.567 103.195C137.065 101.351 136.652 99.9959 136.652 99.9959Z" fill="black"/>
<path d="M158.449 116.764L157.576 116.853L157.163 112.911C156.881 110.227 158.821 107.695 161.484 107.276C162.784 107.069 164.057 107.386 165.075 108.17C166.094 108.955 166.734 110.11 166.871 111.418L167.284 115.36L166.41 115.45L165.997 111.507C165.887 110.434 165.364 109.498 164.539 108.858C163.713 108.225 162.674 107.964 161.615 108.136C159.406 108.487 157.796 110.585 158.03 112.815L158.443 116.757L158.449 116.764Z" fill="#263238"/>
<path d="M142.232 99.0808C142.349 99.6725 142.521 100.402 142.672 101.076C142.837 101.757 143.016 102.445 143.209 103.12C143.594 104.475 144 105.824 144.489 107.124C145.466 109.718 146.649 112.216 148.197 114.211L148.342 114.397L148.417 114.493C148.417 114.493 148.362 114.438 148.335 114.411C148.218 114.301 148.053 114.232 147.956 114.198C147.75 114.136 147.757 114.198 147.888 114.198C148.163 114.218 148.748 114.094 149.312 113.895C150.475 113.489 151.761 112.876 153 112.195C155.498 110.833 158.023 109.25 160.465 107.654L162.364 109.897C160.204 112.12 157.947 114.142 155.401 115.993C154.115 116.902 152.794 117.796 151.19 118.525C150.372 118.883 149.518 119.241 148.301 119.392C147.695 119.454 146.931 119.468 146.023 119.145C145.576 118.986 145.094 118.704 144.695 118.347C144.599 118.257 144.496 118.161 144.413 118.071L144.303 117.954L144.083 117.714C142.913 116.434 141.95 115.044 141.131 113.626C140.291 112.209 139.61 110.743 139.005 109.257C138.406 107.771 137.87 106.278 137.436 104.757C137.223 103.994 137.023 103.23 136.837 102.459C136.652 101.675 136.5 100.945 136.356 100.065L142.218 99.0808H142.232Z" fill="#B55B52"/>
<path d="M139.005 92.9364C141.186 93.4318 145.012 101.317 145.012 101.317L136.431 107.124C136.431 107.124 132.964 101.2 133.659 98.3721C134.388 95.4272 136.514 92.3653 139.005 92.9295V92.9364Z" fill="#3F80FF"/>
<path d="M160.115 107.675L165.096 104.929L164.05 110.179C164.05 110.179 160.83 111.198 159.261 109.677L160.115 107.682V107.675Z" fill="#B55B52"/>
<path d="M169.465 105.631L168.351 109.98L164.05 110.179L165.096 104.929L169.465 105.631Z" fill="#B55B52"/>
<path d="M171.557 114.686L170.731 110.805C170.263 108.61 168.089 107.11 165.881 107.461C164.821 107.627 163.913 108.198 163.321 109.051C162.729 109.911 162.53 110.964 162.75 112.016L163.576 115.897L162.715 116.083L161.89 112.202C161.615 110.909 161.869 109.615 162.592 108.555C163.321 107.496 164.436 106.801 165.736 106.594C168.399 106.175 171.02 107.977 171.585 110.62L172.41 114.5L171.55 114.686H171.557Z" fill="#263238"/>
<g opacity="0.3">
<path d="M171.557 114.686L170.731 110.805C170.263 108.61 168.089 107.11 165.881 107.461C164.821 107.627 163.913 108.198 163.321 109.051C162.729 109.911 162.53 110.964 162.75 112.016L163.576 115.897L162.715 116.083L161.89 112.202C161.615 110.909 161.869 109.615 162.592 108.555C163.321 107.496 164.436 106.801 165.736 106.594C168.399 106.175 171.02 107.977 171.585 110.62L172.41 114.5L171.55 114.686H171.557Z" fill="white"/>
</g>
<path d="M176.69 112.092L151.17 116.131L155.099 146.543L158.745 145.078L162.667 145.339L182.346 142.222L176.69 112.092Z" fill="#3F80FF"/>
<path opacity="0.6" d="M176.69 112.092L151.17 116.131L155.099 146.543L158.745 145.078L162.667 145.339L182.346 142.222L176.69 112.092Z" fill="white"/>
<path d="M162.667 145.339L158.745 145.078L155.099 146.543L151.17 116.131L157.011 115.209L162.667 145.339Z" fill="#3F80FF"/>
<path opacity="0.3" d="M162.667 145.339L158.745 145.078L155.099 146.543L151.17 116.131L157.011 115.209L162.667 145.339Z" fill="white"/>
<path d="M174.185 125.197L163.631 126.868C163.065 126.958 162.678 127.49 162.768 128.057L162.783 128.152C162.873 128.719 163.405 129.106 163.971 129.016L174.526 127.344C175.092 127.254 175.479 126.722 175.389 126.155L175.374 126.06C175.284 125.494 174.752 125.107 174.185 125.197Z" fill="white"/>
</g>
</g>
<defs>
<clipPath id="clip0_570_10809">
<rect width="344.03" height="256" fill="white" transform="translate(0.553223)"/>
</clipPath>
<clipPath id="clip1_570_10809">
<rect width="344.03" height="256" fill="white" transform="translate(0.553223)"/>
</clipPath>
</defs>
</svg>
