<svg width="17" height="16" viewBox="0 0 17 16" fill="none" xmlns="http://www.w3.org/2000/svg">
<g clip-path="url(#clip0_570_11562)">
<path d="M8.37053 5.27513L10.6372 7.53468V7.42027C10.6372 6.85134 10.4112 6.30572 10.0089 5.90343C9.60663 5.50114 9.06101 5.27513 8.49208 5.27513H8.37053ZM5.29583 5.84717L6.40415 6.95549C6.3684 7.10565 6.34695 7.25581 6.34695 7.42027C6.34695 7.98919 6.57295 8.53482 6.97524 8.93711C7.37753 9.3394 7.92316 9.5654 8.49208 9.5654C8.64939 9.5654 8.8067 9.54395 8.95686 9.5082L10.0652 10.6165C9.5861 10.8525 9.05697 10.9955 8.49208 10.9955C7.54388 10.9955 6.6345 10.6188 5.96402 9.94834C5.29353 9.27785 4.91686 8.36848 4.91686 7.42027C4.91686 6.85538 5.05987 6.32625 5.29583 5.84717ZM1.34163 1.89297L2.97194 3.52327L3.29371 3.84504C2.11388 4.7746 1.18432 5.99018 0.626587 7.42027C1.86362 10.5593 4.91686 12.7831 8.49208 12.7831C9.6004 12.7831 10.6587 12.5686 11.624 12.1825L11.9315 12.4828L14.0194 14.5707L14.9275 13.6626L2.24974 0.984863M8.49208 3.84504C9.44029 3.84504 10.3497 4.22172 11.0202 4.8922C11.6906 5.56269 12.0673 6.47206 12.0673 7.42027C12.0673 7.8779 11.9744 8.32123 11.8099 8.72165L13.905 10.8167C14.9775 9.92293 15.8356 8.75025 16.3576 7.42027C15.1206 4.28122 12.0673 2.05743 8.49208 2.05743C7.49102 2.05743 6.53286 2.23619 5.6319 2.55796L7.18355 4.09531C7.59113 3.938 8.02731 3.84504 8.49208 3.84504Z" fill="#001640"/>
</g>
<defs>
<clipPath id="clip0_570_11562">
<rect width="16" height="16" fill="white" transform="translate(0.626587)"/>
</clipPath>
</defs>
</svg>
