<svg width="17" height="16" viewBox="0 0 17 16" fill="none" xmlns="http://www.w3.org/2000/svg">
<path d="M13.7781 5.33333H12.9816V3.80952C12.9816 1.70667 11.1973 0 8.99888 0C6.80044 0 5.0162 1.70667 5.0162 3.80952V5.33333H4.21966C3.34347 5.33333 2.62659 6.01905 2.62659 6.85714V14.4762C2.62659 15.3143 3.34347 16 4.21966 16H13.7781C14.6543 16 15.3712 15.3143 15.3712 14.4762V6.85714C15.3712 6.01905 14.6543 5.33333 13.7781 5.33333ZM6.60927 3.80952C6.60927 2.54476 7.67663 1.52381 8.99888 1.52381C10.3211 1.52381 11.3885 2.54476 11.3885 3.80952V5.33333H6.60927V3.80952ZM13.7781 14.4762H4.21966V6.85714H13.7781V14.4762ZM8.99888 12.1905C9.87507 12.1905 10.592 11.5048 10.592 10.6667C10.592 9.82857 9.87507 9.14286 8.99888 9.14286C8.12269 9.14286 7.40581 9.82857 7.40581 10.6667C7.40581 11.5048 8.12269 12.1905 8.99888 12.1905Z" fill="#001640"/>
</svg>
