<svg width="88" height="56" viewBox="0 0 88 56" fill="none" xmlns="http://www.w3.org/2000/svg">
<g clip-path="url(#clip0_567_3179)">
<path d="M52.4211 24.7895C52.8265 24.7897 53.2164 24.9459 53.5099 25.2257C53.8033 25.5055 53.9779 25.8875 53.9974 26.2925C54.0169 26.6975 53.8798 27.0945 53.6146 27.4012C53.3493 27.708 52.9762 27.9009 52.5726 27.94L52.4211 27.9473H35.5789C35.1735 27.9471 34.7836 27.791 34.4901 27.5111C34.1967 27.2313 34.0221 26.8493 34.0026 26.4443C33.9831 26.0393 34.1202 25.6423 34.3854 25.3356C34.6507 25.0289 35.0238 24.836 35.4274 24.7968L35.5789 24.7895H52.4211ZM52.4211 17.421C52.8398 17.421 53.2414 17.5874 53.5375 17.8835C53.8336 18.1796 54 18.5812 54 19C54 19.4187 53.8336 19.8204 53.5375 20.1165C53.2414 20.4126 52.8398 20.5789 52.4211 20.5789H35.5789C35.1602 20.5789 34.7586 20.4126 34.4625 20.1165C34.1664 19.8204 34 19.4187 34 19C34 18.5812 34.1664 18.1796 34.4625 17.8835C34.7586 17.5874 35.1602 17.421 35.5789 17.421H52.4211ZM52.4211 10.0526C52.8398 10.0526 53.2414 10.219 53.5375 10.5151C53.8336 10.8112 54 11.2128 54 11.6316C54 12.0503 53.8336 12.4519 53.5375 12.748C53.2414 13.0442 52.8398 13.2105 52.4211 13.2105H35.5789C35.1602 13.2105 34.7586 13.0442 34.4625 12.748C34.1664 12.4519 34 12.0503 34 11.6316C34 11.2128 34.1664 10.8112 34.4625 10.5151C34.7586 10.219 35.1602 10.0526 35.5789 10.0526H52.4211Z" fill="#67687E"/>
</g>
<path d="M36.533 34.696V43H35.441V36.808L32.681 43H31.913L29.141 36.796V43H28.049V34.696H29.225L32.297 41.56L35.369 34.696H36.533ZM44.3849 39.46C44.3849 39.668 44.3729 39.888 44.3489 40.12H39.0929C39.1329 40.768 39.3529 41.276 39.7529 41.644C40.1609 42.004 40.6529 42.184 41.2289 42.184C41.7009 42.184 42.0929 42.076 42.4049 41.86C42.7249 41.636 42.9489 41.34 43.0769 40.972H44.2529C44.0769 41.604 43.7249 42.12 43.1969 42.52C42.6689 42.912 42.0129 43.108 41.2289 43.108C40.6049 43.108 40.0449 42.968 39.5489 42.688C39.0609 42.408 38.6769 42.012 38.3969 41.5C38.1169 40.98 37.9769 40.38 37.9769 39.7C37.9769 39.02 38.1129 38.424 38.3849 37.912C38.6569 37.4 39.0369 37.008 39.5249 36.736C40.0209 36.456 40.5889 36.316 41.2289 36.316C41.8529 36.316 42.4049 36.452 42.8849 36.724C43.3649 36.996 43.7329 37.372 43.9889 37.852C44.2529 38.324 44.3849 38.86 44.3849 39.46ZM43.2569 39.232C43.2569 38.816 43.1649 38.46 42.9809 38.164C42.7969 37.86 42.5449 37.632 42.2249 37.48C41.9129 37.32 41.5649 37.24 41.1809 37.24C40.6289 37.24 40.1569 37.416 39.7649 37.768C39.3809 38.12 39.1609 38.608 39.1049 39.232H43.2569ZM49.0303 36.304C49.8303 36.304 50.4783 36.548 50.9743 37.036C51.4703 37.516 51.7183 38.212 51.7183 39.124V43H50.6383V39.28C50.6383 38.624 50.4743 38.124 50.1463 37.78C49.8183 37.428 49.3703 37.252 48.8023 37.252C48.2263 37.252 47.7663 37.432 47.4223 37.792C47.0863 38.152 46.9183 38.676 46.9183 39.364V43H45.8263V36.424H46.9183V37.36C47.1343 37.024 47.4263 36.764 47.7943 36.58C48.1703 36.396 48.5823 36.304 49.0303 36.304ZM59.3341 36.424V43H58.2421V42.028C58.0341 42.364 57.7421 42.628 57.3661 42.82C56.9981 43.004 56.5901 43.096 56.1421 43.096C55.6301 43.096 55.1701 42.992 54.7621 42.784C54.3541 42.568 54.0301 42.248 53.7901 41.824C53.5581 41.4 53.4421 40.884 53.4421 40.276V36.424H54.5221V40.132C54.5221 40.78 54.6861 41.28 55.0141 41.632C55.3421 41.976 55.7901 42.148 56.3581 42.148C56.9421 42.148 57.4021 41.968 57.7381 41.608C58.0741 41.248 58.2421 40.724 58.2421 40.036V36.424H59.3341Z" fill="#67687E"/>
<defs>
<clipPath id="clip0_567_3179">
<rect width="20" height="20" fill="white" transform="translate(34.125 9)"/>
</clipPath>
</defs>
</svg>
