<svg width="18" height="18" viewBox="0 0 18 18" fill="none" xmlns="http://www.w3.org/2000/svg">
<path d="M15.9765 7.2958C15.9324 7.1619 15.8521 7.04429 15.7454 6.95723C15.6387 6.87017 15.5101 6.8174 15.3753 6.80532L11.3977 6.19771L9.61518 2.41296C9.55793 2.28919 9.46856 2.18481 9.35729 2.11177C9.24602 2.03874 9.11735 2 8.98603 2C8.85471 2 8.72605 2.03874 8.61478 2.11177C8.50351 2.18481 8.41413 2.28919 8.35689 2.41296L6.57432 6.19039L2.59673 6.80532C2.46735 6.82458 2.34572 6.88143 2.24563 6.96942C2.14555 7.05741 2.07102 7.17302 2.0305 7.30312C1.99341 7.43026 1.99008 7.56558 2.02087 7.69455C2.05166 7.82352 2.1154 7.94128 2.20526 8.03518L5.09233 10.9634L4.39328 15.1215C4.36833 15.2588 4.38139 15.4006 4.43094 15.5303C4.48049 15.6601 4.56445 15.7722 4.6729 15.8536C4.77861 15.9327 4.90329 15.9794 5.03295 15.9885C5.1626 15.9975 5.2921 15.9686 5.4069 15.9048L8.98603 13.9502L12.5512 15.9121C12.6493 15.9701 12.7601 16.0004 12.8727 16C13.0208 16.0005 13.1652 15.9518 13.2852 15.8609C13.3936 15.7795 13.4776 15.6674 13.5271 15.5377C13.5767 15.4079 13.5898 15.2661 13.5648 15.1288L12.8658 10.9707L15.7528 8.0425C15.8538 7.95296 15.9283 7.83526 15.9679 7.70308C16.0075 7.57091 16.0105 7.42968 15.9765 7.2958ZM11.6774 10.224C11.5954 10.3071 11.5341 10.4099 11.4987 10.5234C11.4634 10.637 11.4551 10.7579 11.4746 10.8756L11.978 13.9429L9.34954 12.4788C9.2484 12.4224 9.13557 12.3929 9.02099 12.3929C8.9064 12.3929 8.79357 12.4224 8.69243 12.4788L6.06401 13.9429L6.56732 10.8756C6.58685 10.7579 6.57859 10.637 6.54325 10.5234C6.50792 10.4099 6.44658 10.3071 6.3646 10.224L4.26745 8.02786L7.21045 7.58131C7.32369 7.56481 7.43135 7.51948 7.52397 7.44928C7.6166 7.37908 7.69137 7.28617 7.74173 7.17867L8.98603 4.38952L10.3002 7.18599C10.3506 7.29349 10.4254 7.3864 10.518 7.4566C10.6106 7.5268 10.7183 7.57213 10.8315 7.58863L13.7745 8.03518L11.6774 10.224Z" fill="#001640"/>
</svg>
